#N canvas 428 87 852 691 10;
#N canvas 284 27 996 751 (subpatch) 0;
#N canvas 0 22 450 300 about 0;
#X text 98 108 Guns by Piotr Goj \, kretopi@gmail.com;
#X restore 892 60 pd about;
#X obj 1 1 cnv 15 80 203 empty empty empty 20 12 0 14 -236430 -66577
0;
#X obj 81 1 cnv 15 301 203 empty empty empty 20 12 0 14 -96640 -66577
0;
#X obj 383 1 cnv 15 117 203 empty empty empty 20 12 0 14 -81482 -66577
0;
#X obj 616 104 noise~;
#X obj 646 161 lop~;
#X floatatom 273 150 5 0 0 2 low_pass_filter - -;
#X obj 754 477 line~;
#X obj 625 569 *~;
#X obj 754 276 pack 1 f;
#X floatatom 414 36 5 0 0 2 attack_time - -;
#X obj 799 243 t f f;
#X obj 811 279 del;
#X obj 19 8 bng 15 250 50 0 empty empty play 17 7 0 10 -262144 -1 -1
;
#X obj 811 388 pack f f;
#X floatatom 414 71 5 0 10 2 decay_volume - -;
#X obj 826 344 / 10;
#X floatatom 414 104 5 0 0 2 sustain_time - -;
#X obj 811 302 t b b;
#X obj 868 408 del;
#X obj 895 459 pack 0 f;
#X floatatom 414 141 5 0 0 2 release_time - -;
#X obj 616 629 dac~;
#X obj 625 596 *~;
#X obj 9 68 vsl 15 128 0 2 0 0 empty empty vol 0 -9 0 10 -262144 -1
-1 2800 1;
#X obj 856 323 t f f;
#X obj 563 159 bp~, f 5;
#X floatatom 273 68 5 0 0 2 band_pass_filter - -;
#X floatatom 273 103 5 0 0 2 Q - -;
#X obj 590 133 / 100;
#X obj 525 160 hip~;
#X floatatom 273 18 5 0 0 2 high_pass_filter - -;
#X obj 458 376 savepanel;
#X obj 458 582 writesf~;
#X msg 458 399 open \$1;
#X msg 465 445 start;
#X msg 476 549 stop;
#X obj 476 496 del;
#X obj 868 432 t b b;
#X obj 476 475 + 20;
#X obj 913 433 t f f;
#X obj 735 242 t b b b;
#X obj 465 423 spigot;
#X obj 19 30 tgl 15 0 empty empty record 17 7 0 10 -262144 -1 -1 0
1;
#X obj 458 355 sel 1;
#X obj 570 218 *~;
#X obj 640 530 *~;
#X obj 520 250 *~;
#X obj 811 364 f;
#X obj 891 85 loadbang;
#X msg 891 110 \; pd dsp 1;
#X msg 517 549 0;
#X obj 476 522 t b b;
#X obj 178 529 expr $f1 + $f2 + $f3;
#X floatatom 184 599 5 0 0 0 - - -;
#X obj 830 97 t f f;
#X obj 837 165 t b f f;
#X obj 398 231 t b f f;
#X obj 126 592 metro;
#X obj 30 62 tgl 15 0 empty empty loop 17 7 0 10 -262144 -1 -1 1 1
;
#X obj 89 21 vsl 15 128 0 2 0 0 empty empty high_pass 0 -9 0 10 -262144
-1 -1 1200 1;
#X obj 17 248 sig~;
#X obj 32 302 lop~ 5;
#X obj 89 157 sig~;
#X obj 89 178 lop~ 5;
#X obj 149 21 vsl 15 128 0 2 0 0 empty empty band_pass 0 -9 0 10 -262144
-1 -1 2400 1;
#X obj 149 157 sig~;
#X obj 149 178 lop~ 5;
#X obj 211 21 vsl 15 128 0 2 0 0 empty empty lop_pass 0 -9 0 10 -262144
-1 -1 3600 1;
#X obj 211 157 sig~;
#X obj 211 178 lop~ 5;
#X obj -10 -47 r onOff;
#X obj 47 -48 r loop;
#X obj 101 -47 r volume;
#X obj 159 -47 r highPass;
#X obj 227 -48 r bandPass;
#X obj 294 -48 r lowPass;
#X obj 355 -47 r highPassFilter;
#X obj 462 -47 r bandPassFilter;
#X obj 565 -47 r lowPassFilter;
#X obj 663 -46 r attackTime;
#X obj 743 -46 r decayVolume;
#X obj 743 -26 r sustainVolume;
#X obj 743 -5 r releaseTime;
#X obj 746 24 r Q;
#X connect 4 0 5 0;
#X connect 4 0 26 0;
#X connect 4 0 30 0;
#X connect 5 0 46 0;
#X connect 6 0 5 1;
#X connect 7 0 8 1;
#X connect 8 0 23 0;
#X connect 9 0 7 0;
#X connect 10 0 55 0;
#X connect 11 0 9 1;
#X connect 11 1 12 1;
#X connect 12 0 18 0;
#X connect 13 0 41 0;
#X connect 14 0 7 0;
#X connect 15 0 16 0;
#X connect 16 0 48 1;
#X connect 17 0 56 0;
#X connect 18 0 48 0;
#X connect 18 1 19 0;
#X connect 19 0 38 0;
#X connect 20 0 7 0;
#X connect 21 0 57 0;
#X connect 23 0 22 0;
#X connect 23 0 22 1;
#X connect 23 0 33 0;
#X connect 24 0 61 0;
#X connect 25 0 14 1;
#X connect 25 1 19 1;
#X connect 26 0 45 0;
#X connect 27 0 26 1;
#X connect 28 0 29 0;
#X connect 29 0 26 2;
#X connect 30 0 47 0;
#X connect 31 0 30 1;
#X connect 32 0 34 0;
#X connect 34 0 33 0;
#X connect 35 0 33 0;
#X connect 36 0 33 0;
#X connect 37 0 52 0;
#X connect 38 0 37 0;
#X connect 38 1 20 0;
#X connect 39 0 37 0;
#X connect 40 0 39 0;
#X connect 40 1 20 1;
#X connect 41 0 42 0;
#X connect 41 1 9 0;
#X connect 41 2 12 0;
#X connect 42 0 35 0;
#X connect 43 0 42 1;
#X connect 43 0 44 0;
#X connect 44 0 32 0;
#X connect 45 0 8 0;
#X connect 46 0 8 0;
#X connect 47 0 8 0;
#X connect 48 0 14 0;
#X connect 49 0 50 0;
#X connect 51 0 43 0;
#X connect 52 0 36 0;
#X connect 52 1 51 0;
#X connect 53 0 54 0;
#X connect 53 0 58 1;
#X connect 55 0 53 0;
#X connect 55 1 11 0;
#X connect 56 0 53 0;
#X connect 56 1 53 1;
#X connect 56 2 25 0;
#X connect 57 0 53 0;
#X connect 57 1 53 2;
#X connect 57 2 40 0;
#X connect 58 0 13 0;
#X connect 59 0 58 0;
#X connect 60 0 63 0;
#X connect 61 0 62 0;
#X connect 62 0 23 1;
#X connect 63 0 64 0;
#X connect 64 0 47 1;
#X connect 65 0 66 0;
#X connect 66 0 67 0;
#X connect 67 0 45 1;
#X connect 68 0 69 0;
#X connect 69 0 70 0;
#X connect 70 0 46 1;
#X connect 71 0 13 0;
#X connect 72 0 59 0;
#X connect 73 0 24 0;
#X connect 74 0 60 0;
#X connect 75 0 65 0;
#X connect 76 0 68 0;
#X connect 77 0 31 0;
#X connect 78 0 27 0;
#X connect 79 0 6 0;
#X connect 80 0 10 0;
#X connect 81 0 15 0;
#X connect 82 0 17 0;
#X connect 83 0 21 0;
#X connect 84 0 27 0;
#X coords 0 1 100 -1 500 205 1 0 0;
#X restore 62 49 graph;
