#N canvas 425 295 680 258 12;
#X obj 11 165 cnv 15 80 70 empty empty empty 20 12 0 14 -126271 -66577
0;
#X obj 11 94 cnv 15 80 70 empty empty empty 20 12 0 14 -254918 -66577
0;
#X obj 11 23 cnv 15 80 70 empty empty empty 20 12 0 14 -260809 -66577
0;
#N canvas 900 186 979 681 kick 0;
#X floatatom 12 98 0 0 0 0 - - -;
#X obj 12 122 mtof;
#X floatatom 12 146 0 0 0 0 - - -;
#X obj 12 228 phasor~;
#X obj 12 276 cos~;
#X obj 638 138 t b b;
#X obj 638 186 del 2;
#X obj 638 210 s \$0-trg-kik;
#X obj 670 162 s \$0-rst-kik;
#X obj 510 482 line~;
#X obj 72 252 *~ 2;
#X obj 72 276 cos~;
#X obj 638 92 r \$0-s-bng-kik;
#X obj 12 343 +~;
#X obj 269 386 *~;
#X obj 287 36 r \$0-trg-kik;
#X msg 287 60 1 \, 0 169;
#X obj 58 180 r \$0-trg-kik;
#X msg 58 204 0;
#X obj 12 252 -~ 0.25;
#X obj 287 84 line~;
#X obj 198 12 r \$0-trg-kik;
#X obj 198 60 line~;
#X msg 198 36 1 \, 0 66;
#X obj 12 50 r \$0-trg-kik;
#X obj 70 127 sig~ 2;
#X obj 70 151 pow~;
#X obj 198 84 pow~ 6;
#X obj 72 324 *~;
#X obj 180 281 sig~ 1;
#X obj 180 305 -~;
#X obj 546 239 line~;
#X obj 469 142 r \$0-trg-kik;
#X obj 409 219 noise~;
#X obj 409 282 *~;
#X msg 546 215 1 \, 0 50;
#X msg 409 195 seed 123;
#X msg 12 74 28;
#X obj 72 300 /~ 1;
#X msg 492 219 clear;
#X obj 546 263 pow~ 4;
#X obj 409 258 lop~ 2000;
#X obj 227 113 pow~ 6;
#X obj 155 108 *~ 2;
#X obj 12 170 *~;
#X obj 391 429 +~;
#X obj 12 367 /~ 2;
#X obj 391 477 expr~ tanh($v1);
#X obj 391 501 *~;
#X obj 409 306 *~ 0.25;
#X obj 638 116 bng 17 250 50 0 empty empty empty 17 7 0 10 -262144
-1 -1;
#X obj 155 132 +~;
#X obj 472 311 tgl 19 1 empty empty empty 17 7 0 10 -262144 -1 -1 1
1;
#X obj 469 166 t b b b;
#X obj 409 330 *~;
#X obj 510 410 r \$0-trg-kik;
#X obj 540 434 r \$0-rst-kik;
#X msg 510 458 1 0;
#X msg 540 458 0 1;
#X obj 332 391 tgl 19 1 empty empty empty 17 7 0 10 -262144 -1 -1 1
1;
#X obj 269 410 *~;
#X text 469 122 //Noise Click Layer;
#X text 88 103 sig;
#X text 510 390 //Reset;
#X obj 411 550 r \$0-metro;
#X obj 391 600 throw~ \$0-master;
#X obj 411 575 tabwrite~ \$0-kick;
#X obj 806 68 % 16;
#X obj 838 116 sel 0;
#X msg 838 140 seed 1431;
#X obj 806 164 random 101;
#X obj 806 212 sel 1;
#X msg 776 135 1;
#X obj 806 92 t b f;
#X obj 806 188 < 50;
#X obj 806 294 s \$0-r-bng-kik;
#X obj 806 44 r \$0-clock;
#X obj 391 453 *~ 1.5;
#X obj 391 525 *~ 0.8;
#X obj 806 265 spigot;
#X obj 835 241 r \$0-s-tgl-kik;
#X connect 0 0 1 0;
#X connect 1 0 2 0;
#X connect 2 0 44 0;
#X connect 3 0 19 0;
#X connect 3 0 10 0;
#X connect 4 0 13 0;
#X connect 5 0 6 0;
#X connect 5 1 8 0;
#X connect 6 0 7 0;
#X connect 9 0 48 1;
#X connect 10 0 11 0;
#X connect 11 0 38 0;
#X connect 12 0 50 0;
#X connect 13 0 46 0;
#X connect 14 0 60 0;
#X connect 15 0 16 0;
#X connect 16 0 20 0;
#X connect 17 0 18 0;
#X connect 18 0 3 1;
#X connect 19 0 4 0;
#X connect 20 0 42 0;
#X connect 20 0 14 1;
#X connect 21 0 23 0;
#X connect 22 0 27 0;
#X connect 23 0 22 0;
#X connect 24 0 37 0;
#X connect 25 0 26 0;
#X connect 26 0 44 1;
#X connect 27 0 30 1;
#X connect 27 0 43 0;
#X connect 28 0 13 1;
#X connect 29 0 30 0;
#X connect 30 0 28 1;
#X connect 31 0 40 0;
#X connect 32 0 53 0;
#X connect 33 0 41 0;
#X connect 34 0 49 0;
#X connect 35 0 31 0;
#X connect 36 0 33 0;
#X connect 37 0 0 0;
#X connect 38 0 28 0;
#X connect 39 0 41 0;
#X connect 40 0 34 1;
#X connect 41 0 34 0;
#X connect 42 0 51 1;
#X connect 43 0 51 0;
#X connect 44 0 3 0;
#X connect 45 0 77 0;
#X connect 46 0 14 0;
#X connect 47 0 48 0;
#X connect 48 0 78 0;
#X connect 49 0 54 0;
#X connect 50 0 5 0;
#X connect 51 0 26 1;
#X connect 52 0 54 1;
#X connect 53 0 36 0;
#X connect 53 1 39 0;
#X connect 53 2 35 0;
#X connect 54 0 45 1;
#X connect 55 0 57 0;
#X connect 56 0 58 0;
#X connect 57 0 9 0;
#X connect 58 0 9 0;
#X connect 59 0 60 1;
#X connect 60 0 45 0;
#X connect 64 0 66 0;
#X connect 67 0 73 0;
#X connect 68 0 72 0;
#X connect 68 0 69 0;
#X connect 69 0 70 0;
#X connect 70 0 74 0;
#X connect 71 0 79 0;
#X connect 72 0 71 0;
#X connect 73 0 70 0;
#X connect 73 1 68 0;
#X connect 74 0 71 0;
#X connect 76 0 67 0;
#X connect 77 0 47 0;
#X connect 78 0 65 0;
#X connect 78 0 66 0;
#X connect 79 0 75 0;
#X connect 80 0 79 1;
#X restore 314 75 pd kick;
#N canvas 663 491 618 474 noise 0;
#X obj 170 66 r \$0-s-bng-noi;
#X obj 170 114 vline~;
#X obj 170 162 clip~ 0 1;
#X obj 12 12 r \$0-s-bng-noi;
#X obj 12 60 noise~;
#X obj 12 181 *~;
#N canvas 0 23 450 300 highshelf~ 0;
#X obj 12 93 outlet~;
#N canvas 674 187 405 205 @hv_obj 0;
#X obj 62 12 inlet~ b0;
#X obj 132 12 inlet~ b1;
#X obj 202 12 inlet~ b2;
#X obj 272 12 inlet~ a1;
#X obj 332 12 inlet~ a2;
#X obj 12 12 inlet~;
#N canvas 677 380 306 397 zeros 0;
#X obj 12 282 czero~;
#X obj 12 329 czero~;
#X obj 12 356 outlet~;
#X obj 75 356 outlet~;
#X obj 62 12 inlet~ b0;
#X obj 132 12 inlet~ b1;
#X obj 202 12 inlet~ b2;
#X obj 12 12 inlet~;
#X obj 47 89 *~ -1;
#X obj 47 111 *~ 0.5;
#X obj 132 117 *~;
#X obj 132 155 -~;
#X obj 187 138 *~ 4;
#X obj 187 116 *~;
#X obj 228 172 abs~;
#X obj 228 216 *~ 0.5;
#X obj 228 238 /~;
#N canvas 773 235 262 212 location 0;
#X obj 12 12 inlet~;
#X obj 62 12 inlet~;
#X obj 207 12 inlet~;
#X obj 12 174 outlet~;
#X obj 72 174 outlet~;
#X obj 132 174 outlet~;
#X obj 192 174 outlet~;
#N canvas 725 189 180 137 gte 0;
#X obj 117 12 inlet~;
#X obj 12 12 inlet~;
#X obj 12 100 outlet~;
#N canvas 758 270 144 76 @hv_obj 0;
#X obj 62 12 inlet~;
#X obj 12 12 inlet~;
#X obj 12 34 outlet~;
#X connect 1 0 2 0;
#X restore 12 78 pd @hv_obj __and~f;
#X obj 117 56 sig~ 1;
#N canvas 945 362 136 178 @hv_obj 0;
#X obj 12 56 -~;
#X obj 12 78 clip~ -1e-37 0;
#X obj 12 12 inlet~;
#X obj 62 12 inlet~;
#X obj 12 144 outlet~;
#X obj 12 122 *~ 1e+37;
#X obj 12 34 min~;
#X obj 12 100 +~ 1e-37;
#X connect 0 0 1 0;
#X connect 1 0 7 0;
#X connect 2 0 6 0;
#X connect 3 0 6 1;
#X connect 3 0 0 1;
#X connect 5 0 4 0;
#X connect 6 0 0 0;
#X connect 7 0 5 0;
#X restore 12 34 pd @hv_obj __gte~f;
#X connect 0 0 5 1;
#X connect 1 0 5 0;
#X connect 3 0 2 0;
#X connect 4 0 3 1;
#X connect 5 0 3 0;
#X restore 62 49 pd gte;
#N canvas 845 375 187 138 lte 0;
#X obj 117 12 inlet~;
#X obj 12 12 inlet~;
#X obj 12 100 outlet~;
#N canvas 467 216 140 82 @hv_obj 0;
#X obj 72 12 inlet~;
#X obj 12 12 inlet~;
#X obj 12 39 outlet~;
#X connect 1 0 2 0;
#X restore 12 78 pd @hv_obj __and~f;
#X obj 117 56 sig~ 1;
#N canvas 715 101 137 184 @hv_obj 0;
#X obj 12 56 -~;
#X obj 12 78 clip~ -1e-37 0;
#X obj 12 12 inlet~;
#X obj 62 12 inlet~;
#X obj 12 144 outlet~;
#X obj 12 122 *~ 1e+37;
#X obj 12 34 min~;
#X obj 12 100 +~ 1e-37;
#X connect 0 0 1 0;
#X connect 1 0 7 0;
#X connect 2 0 6 0;
#X connect 2 0 0 1;
#X connect 3 0 6 1;
#X connect 5 0 4 0;
#X connect 6 0 0 0;
#X connect 7 0 5 0;
#X restore 12 34 pd @hv_obj __lte~f;
#X connect 0 0 5 1;
#X connect 1 0 5 0;
#X connect 3 0 2 0;
#X connect 4 0 3 1;
#X connect 5 0 3 0;
#X restore 127 49 pd lte;
#X obj 12 152 +~;
#X obj 160 22 sig~ 0;
#X obj 147 125 *~;
#X obj 192 125 *~;
#X obj 132 152 -~;
#X obj 192 152 *~ -1;
#X connect 0 0 9 0;
#X connect 0 0 13 0;
#X connect 1 0 7 0;
#X connect 1 0 8 0;
#X connect 2 0 11 1;
#X connect 2 0 12 1;
#X connect 7 0 11 0;
#X connect 8 0 12 0;
#X connect 9 0 3 0;
#X connect 10 0 7 1;
#X connect 10 0 8 1;
#X connect 11 0 9 1;
#X connect 11 0 13 1;
#X connect 12 0 4 0;
#X connect 12 0 14 0;
#X connect 13 0 5 0;
#X connect 14 0 6 0;
#X restore 34 255 pd location;
#X obj 228 194 sqrt~;
#X obj 47 133 /~;
#X connect 0 0 1 0;
#X connect 0 1 1 1;
#X connect 1 0 2 0;
#X connect 1 1 3 0;
#X connect 4 0 13 0;
#X connect 4 0 16 1;
#X connect 4 0 19 1;
#X connect 5 0 8 0;
#X connect 5 0 10 1;
#X connect 5 0 10 0;
#X connect 6 0 13 1;
#X connect 7 0 0 0;
#X connect 8 0 9 0;
#X connect 9 0 19 0;
#X connect 10 0 11 0;
#X connect 11 0 14 0;
#X connect 11 0 17 1;
#X connect 12 0 11 1;
#X connect 13 0 12 0;
#X connect 14 0 18 0;
#X connect 15 0 16 0;
#X connect 16 0 17 2;
#X connect 17 0 0 2;
#X connect 17 1 0 3;
#X connect 17 2 1 2;
#X connect 17 3 1 3;
#X connect 18 0 15 0;
#X connect 19 0 17 0;
#X restore 12 86 pd zeros;
#X obj 12 49 *~;
#N canvas 744 202 254 278 poles 0;
#X obj 12 170 cpole~;
#X obj 12 217 cpole~;
#X obj 12 244 outlet~;
#X obj 12 12 inlet~;
#X obj 62 12 inlet~;
#X obj 112 12 inlet~ a1;
#X obj 182 12 inlet~ a2;
#N canvas 739 258 279 198 location 0;
#X obj 12 12 inlet~;
#X obj 127 12 inlet~;
#X obj 222 49 inlet~;
#X obj 12 155 outlet~;
#X obj 62 155 outlet~;
#X obj 112 155 outlet~;
#X obj 172 155 outlet~;
#N canvas 796 341 183 142 gte 0;
#X obj 117 12 inlet~;
#X obj 12 12 inlet~;
#X obj 12 100 outlet~;
#N canvas 679 326 140 75 @hv_obj 0;
#X obj 72 12 inlet~;
#X obj 12 12 inlet~;
#X obj 12 34 outlet~;
#X connect 1 0 2 0;
#X restore 12 78 pd @hv_obj __and~f;
#X obj 117 56 sig~ 1;
#N canvas 754 439 132 184 @hv_obj 0;
#X obj 12 56 -~;
#X obj 12 78 clip~ -1e-37 0;
#X obj 12 12 inlet~;
#X obj 62 12 inlet~;
#X obj 12 144 outlet~;
#X obj 12 122 *~ 1e+37;
#X obj 12 34 min~;
#X obj 12 100 +~ 1e-37;
#X connect 0 0 1 0;
#X connect 1 0 7 0;
#X connect 2 0 6 0;
#X connect 3 0 6 1;
#X connect 3 0 0 1;
#X connect 5 0 4 0;
#X connect 6 0 0 0;
#X connect 7 0 5 0;
#X restore 12 34 pd @hv_obj __gte~f;
#X connect 0 0 5 1;
#X connect 1 0 5 0;
#X connect 3 0 2 0;
#X connect 4 0 3 1;
#X connect 5 0 3 0;
#X restore 127 39 pd gte;
#N canvas 816 493 187 138 lte 0;
#X obj 117 12 inlet~;
#X obj 12 12 inlet~;
#X obj 12 100 outlet~;
#N canvas 467 216 142 76 @hv_obj 0;
#X obj 72 12 inlet~;
#X obj 12 12 inlet~;
#X obj 12 34 outlet~;
#X connect 1 0 2 0;
#X restore 12 78 pd @hv_obj __and~f;
#X obj 117 56 sig~ 1;
#N canvas 715 101 131 178 @hv_obj 0;
#X obj 12 56 -~;
#X obj 12 78 clip~ -1e-37 0;
#X obj 12 12 inlet~;
#X obj 62 12 inlet~;
#X obj 12 144 outlet~;
#X obj 12 122 *~ 1e+37;
#X obj 12 34 min~;
#X obj 12 100 +~ 1e-37;
#X connect 0 0 1 0;
#X connect 1 0 7 0;
#X connect 2 0 6 0;
#X connect 2 0 0 1;
#X connect 3 0 6 1;
#X connect 5 0 4 0;
#X connect 6 0 0 0;
#X connect 7 0 5 0;
#X restore 12 34 pd @hv_obj __lte~f;
#X connect 0 0 5 1;
#X connect 1 0 5 0;
#X connect 3 0 2 0;
#X connect 4 0 3 1;
#X connect 5 0 3 0;
#X restore 172 39 pd lte;
#X obj 12 83 +~;
#X obj 205 12 sig~ 0;
#X obj 127 66 *~;
#X obj 172 66 *~;
#X obj 112 133 -~;
#X obj 172 133 *~ -1;
#X connect 0 0 9 0;
#X connect 0 0 13 0;
#X connect 1 0 7 0;
#X connect 1 0 8 0;
#X connect 2 0 11 1;
#X connect 2 0 12 1;
#X connect 7 0 11 0;
#X connect 8 0 12 0;
#X connect 9 0 3 0;
#X connect 10 0 7 1;
#X connect 10 0 8 1;
#X connect 11 0 9 1;
#X connect 11 0 13 1;
#X connect 12 0 4 0;
#X connect 12 0 14 0;
#X connect 13 0 5 0;
#X connect 14 0 6 0;
#X restore 34 144 pd location;
#X obj 54 77 *~ 0.5;
#X obj 112 39 *~;
#X obj 112 61 +~;
#X obj 182 44 *~ 4;
#X obj 112 83 abs~;
#X obj 112 127 *~ 0.5;
#X obj 112 105 sqrt~;
#X connect 0 0 1 0;
#X connect 0 1 1 1;
#X connect 1 0 2 0;
#X connect 3 0 0 0;
#X connect 4 0 0 1;
#X connect 5 0 8 0;
#X connect 5 0 9 0;
#X connect 5 0 9 1;
#X connect 6 0 11 0;
#X connect 7 0 0 2;
#X connect 7 1 0 3;
#X connect 7 2 1 2;
#X connect 7 3 1 3;
#X connect 8 0 7 0;
#X connect 9 0 10 0;
#X connect 10 0 7 1;
#X connect 10 0 12 0;
#X connect 11 0 10 1;
#X connect 12 0 14 0;
#X connect 13 0 7 2;
#X connect 14 0 13 0;
#X restore 12 133 pd poles;
#X obj 12 160 outlet~;
#X obj 272 116 *~ -1;
#X obj 332 116 *~ -1;
#X connect 0 0 6 1;
#X connect 0 0 7 1;
#X connect 1 0 6 2;
#X connect 2 0 6 3;
#X connect 3 0 10 0;
#X connect 4 0 11 0;
#X connect 5 0 7 0;
#X connect 6 0 8 0;
#X connect 6 1 8 1;
#X connect 7 0 6 0;
#X connect 8 0 9 0;
#X connect 10 0 8 2;
#X connect 11 0 8 3;
#X restore 12 71 pd @hv_obj biquad;
#X obj 62 12 inlet~ freq;
#X obj 142 12 inlet~ q;
#X obj 12 12 inlet~;
#X obj 202 12 inlet~ gain;
#N canvas 999 35 787 462 highshelf.coeffs 0;
#X obj 97 12 inlet~ freq;
#X obj 273 47 inlet~ q;
#N canvas 78 244 261 257 hz2rad 0;
#X obj 27 56 samplerate~;
#X obj 27 34 loadbang;
#X obj 27 122 atan;
#X msg 27 100 1;
#X obj 27 144 * 8;
#X obj 27 78 t b a;
#X obj 27 166 / 44100;
#X obj 12 188 *~;
#X obj 12 210 outlet~ w(rad);
#X obj 12 12 inlet~ freq(Hz);
#X text 77 166 // 2 * pi / SR;
#X text 107 56 // w = 2 * pi * f / SR;
#X connect 0 0 5 0;
#X connect 1 0 0 0;
#X connect 2 0 4 0;
#X connect 3 0 2 0;
#X connect 4 0 6 0;
#X connect 5 0 3 0;
#X connect 5 1 6 1;
#X connect 6 0 7 1;
#X connect 7 0 8 0;
#X connect 9 0 7 0;
#X restore 97 55 pd hz2rad;
#X obj 97 34 clip~ 20 20000;
#X obj 97 77 /~ 6.28319;
#X obj 97 121 cos~;
#X obj 273 69 clip~ 0.1 100;
#X obj 258 91 sig~ 1;
#X obj 258 113 /~;
#X obj 167 121 cos~;
#X obj 243 135 *~;
#X obj 243 157 *~ 0.5;
#X obj 12 361 sig~ 1;
#X obj 12 383 /~;
#X obj 82 397 *~;
#X obj 82 419 outlet~ b0;
#X obj 152 397 *~;
#X obj 152 419 outlet~ b1;
#X obj 222 397 *~;
#X obj 222 419 outlet~ b2;
#X obj 292 397 *~;
#X obj 292 419 outlet~ a1;
#X obj 362 397 *~;
#X obj 362 419 outlet~ a2;
#X text 443 142 w0 = 2*pi*f0*Fs;
#X text 443 162 alpha = sin(w0)/(2*Q);
#X text 482 72 H(z) = -----------------------------------------;
#X text 482 32 Audio-Cookbook:;
#X text 482 112 http://musicdsp.org/files/Audio-EQ-Cookbook.txt;
#X text 524 87 1 + (a1/a0)*z^(-1) + (a2/a0)*z^(-2);
#X text 524 57 (b0/a0) + (b1/a0)*z^(-1) + (b2/a0)*z^(-2);
#X obj 167 99 -~ 0.25;
#X obj 388 39 inlet~ dBGain;
#X obj 388 60 clip~ -24 24;
#X obj 388 81 /~ 40;
#X obj 367 102 sig~ 10;
#X obj 367 123 pow~;
#X obj 27 197 *~;
#X obj 27 218 +~;
#X obj 59 204 +~ 1;
#X obj 258 183 sqrt~;
#X obj 258 204 *~ 2;
#X obj 243 225 *~;
#X obj 27 239 +~;
#X text 443 182 A = 10^(dbGain/40);
#X obj 42 156 -~ 1;
#X text 443 212 High Shelf:;
#X text 453 292 b0 = A*( (A+1) + (A-1)*cos(wc) + 2*sqrt(A)*alpha);
#X text 453 312 b1 = -2*A*( (A-1) + (A+1)*cos(wc));
#X text 453 332 b2 = A*((A+1) + (A-1)*cos(wc) - 2*sqrt(A)*alpha);
#X text 453 232 a0 = (A+1) - (A-1)*cos(wc) + 2*sqrt(A)*alpha;
#X text 453 252 a1 = 2*((A-1) - (A+1)*cos(wc));
#X text 453 272 a2 = (A+1) - (A-1)*cos(wc) - 2*sqrt(A)*alpha;
#X obj 42 177 *~ -1;
#X obj 112 287 -~ 1;
#X obj 97 308 *~;
#X obj 97 329 +~;
#X obj 97 350 +~;
#X obj 97 371 *~;
#X obj 129 315 +~ 1;
#X obj 167 308 *~;
#X obj 167 329 +~;
#X obj 182 287 +~ 1;
#X obj 199 315 -~ 1;
#X obj 167 350 *~;
#X obj 199 336 *~ -2;
#X obj 252 287 -~ 1;
#X obj 237 308 *~;
#X obj 237 329 +~;
#X obj 237 371 *~;
#X obj 269 315 +~ 1;
#X obj 237 350 -~;
#X obj 307 308 *~;
#X obj 307 329 +~;
#X obj 307 350 *~ 2;
#X obj 339 315 -~ 1;
#X obj 322 287 *~ -1;
#X obj 322 266 +~ 1;
#X obj 377 308 *~;
#X obj 377 329 +~;
#X obj 392 266 -~ 1;
#X obj 392 287 *~ -1;
#X obj 409 315 +~ 1;
#X obj 377 350 -~;
#X connect 0 0 3 0;
#X connect 1 0 6 0;
#X connect 2 0 4 0;
#X connect 3 0 2 0;
#X connect 4 0 5 0;
#X connect 4 0 31 0;
#X connect 5 0 37 0;
#X connect 5 0 55 0;
#X connect 5 0 60 0;
#X connect 5 0 67 0;
#X connect 5 0 72 0;
#X connect 5 0 78 0;
#X connect 6 0 8 1;
#X connect 7 0 8 0;
#X connect 8 0 10 1;
#X connect 9 0 10 0;
#X connect 10 0 11 0;
#X connect 11 0 42 0;
#X connect 12 0 13 0;
#X connect 13 0 14 0;
#X connect 13 0 16 0;
#X connect 13 0 18 0;
#X connect 13 0 20 0;
#X connect 13 0 22 0;
#X connect 14 0 15 0;
#X connect 16 0 17 0;
#X connect 18 0 19 0;
#X connect 20 0 21 0;
#X connect 22 0 23 0;
#X connect 31 0 9 0;
#X connect 32 0 33 0;
#X connect 33 0 34 0;
#X connect 34 0 36 1;
#X connect 35 0 36 0;
#X connect 36 0 40 0;
#X connect 36 0 39 0;
#X connect 36 0 45 0;
#X connect 36 0 54 0;
#X connect 36 0 59 0;
#X connect 36 0 58 1;
#X connect 36 0 62 0;
#X connect 36 0 63 0;
#X connect 36 0 65 0;
#X connect 36 0 66 0;
#X connect 36 0 70 0;
#X connect 36 0 69 1;
#X connect 36 0 77 0;
#X connect 36 0 75 0;
#X connect 36 0 80 0;
#X connect 36 0 82 0;
#X connect 37 0 38 0;
#X connect 38 0 43 0;
#X connect 39 0 38 1;
#X connect 40 0 41 0;
#X connect 41 0 42 1;
#X connect 42 0 43 1;
#X connect 42 0 57 1;
#X connect 42 0 71 1;
#X connect 42 0 83 1;
#X connect 43 0 13 1;
#X connect 45 0 53 0;
#X connect 53 0 37 1;
#X connect 54 0 55 1;
#X connect 55 0 56 0;
#X connect 56 0 57 0;
#X connect 57 0 58 0;
#X connect 58 0 14 1;
#X connect 59 0 56 1;
#X connect 60 0 61 0;
#X connect 61 0 64 0;
#X connect 62 0 60 1;
#X connect 63 0 61 1;
#X connect 64 0 16 1;
#X connect 65 0 64 1;
#X connect 66 0 67 1;
#X connect 67 0 68 0;
#X connect 68 0 71 0;
#X connect 69 0 18 1;
#X connect 70 0 68 1;
#X connect 71 0 69 0;
#X connect 72 0 73 0;
#X connect 73 0 74 0;
#X connect 74 0 20 1;
#X connect 75 0 73 1;
#X connect 76 0 72 1;
#X connect 77 0 76 0;
#X connect 78 0 79 0;
#X connect 79 0 83 0;
#X connect 80 0 81 0;
#X connect 81 0 78 1;
#X connect 82 0 79 1;
#X connect 83 0 22 1;
#X restore 62 34 pd highshelf.coeffs;
#X connect 1 0 0 0;
#X connect 2 0 6 0;
#X connect 3 0 6 1;
#X connect 4 0 1 0;
#X connect 5 0 6 2;
#X connect 6 0 1 1;
#X connect 6 1 1 2;
#X connect 6 2 1 3;
#X connect 6 3 1 4;
#X connect 6 4 1 5;
#X restore 12 157 pd highshelf~;
#X obj 70 108 sig~ 0.7;
#X obj 100 133 sig~ -18;
#X obj 41 84 sig~ 3500;
#X msg 12 36 seed 15;
#X obj 170 138 *~ 1;
#X msg 170 90 1 \, 0 50;
#N canvas 0 23 450 300 highpass~ 0;
#N canvas 200 23 682 315 highpass.coeffs 0;
#X obj 12 46 clip~ 20 20000;
#X obj 283 51 clip~ 0.1 100;
#X obj 268 73 sig~ 1;
#X obj 268 95 /~;
#X obj 268 117 *~;
#X obj 268 139 *~ 0.5;
#X obj 12 215 sig~ 1;
#X obj 12 237 /~;
#X obj 122 254 *~;
#X obj 137 200 +~ 1;
#X obj 137 232 *~ 0.5;
#X obj 122 276 outlet~ b0;
#X obj 192 254 *~;
#X obj 207 200 +~ 1;
#X obj 192 276 outlet~ b1;
#X obj 207 232 *~ -1;
#X obj 262 254 *~;
#X obj 277 200 +~ 1;
#X obj 277 232 *~ 0.5;
#X obj 262 276 outlet~ b2;
#X obj 332 254 *~;
#X obj 347 200 *~ -2;
#X obj 332 276 outlet~ a1;
#X obj 417 210 sig~ 1;
#X obj 417 232 -~;
#X obj 402 254 *~;
#X obj 402 276 outlet~ a2;
#X obj 57 220 +~ 1;
#X text 348 141 w0 = 2*pi*f0*Fs;
#X text 348 161 alpha = sin(w0)/(2*Q);
#X text 512 176 a0 = 1 + alpha;
#X text 512 216 a2 = 1 - alpha;
#X text 512 196 a1 = -2*cos(w0);
#X text 512 256 b1 = -(1 + cos(w0));
#X text 512 236 b0 = (1 + cos(w0))/2;
#X text 502 156 HPF:;
#X text 512 276 b2 = (1 + cos(w0))/2;
#X text 419 36 (b0/a0) + (b1/a0)*z^(-1) + (b2/a0)*z^(-2);
#X text 377 51 H(z) = -----------------------------------------;
#X text 419 66 1 + (a1/a0)*z^(-1) + (a2/a0)*z^(-2);
#X text 377 11 Audio-Cookbook:;
#X text 377 91 http://musicdsp.org/files/Audio-EQ-Cookbook.txt;
#X obj 12 24 inlet~;
#X obj 283 29 inlet~;
#X obj 12 89 *~ 6.28319;
#X obj 12 67 /~ 44100;
#X obj 105 32 loadbang;
#X obj 105 53 samplerate~;
#X obj 122 103 expr~ sin($v1);
#X obj 12 186 expr~ cos($v1);
#X connect 0 0 45 0;
#X connect 1 0 3 1;
#X connect 2 0 3 0;
#X connect 3 0 4 0;
#X connect 4 0 5 0;
#X connect 5 0 24 1;
#X connect 5 0 27 0;
#X connect 6 0 7 0;
#X connect 7 0 8 0;
#X connect 7 0 12 0;
#X connect 7 0 16 0;
#X connect 7 0 20 0;
#X connect 7 0 25 0;
#X connect 8 0 11 0;
#X connect 9 0 10 0;
#X connect 10 0 8 1;
#X connect 12 0 14 0;
#X connect 13 0 15 0;
#X connect 15 0 12 1;
#X connect 16 0 19 0;
#X connect 17 0 18 0;
#X connect 18 0 16 1;
#X connect 20 0 22 0;
#X connect 21 0 20 1;
#X connect 23 0 24 0;
#X connect 24 0 25 1;
#X connect 25 0 26 0;
#X connect 27 0 7 1;
#X connect 42 0 0 0;
#X connect 43 0 1 0;
#X connect 44 0 48 0;
#X connect 44 0 49 0;
#X connect 45 0 44 0;
#X connect 46 0 47 0;
#X connect 47 0 45 1;
#X connect 48 0 4 1;
#X connect 49 0 9 0;
#X connect 49 0 13 0;
#X connect 49 0 17 0;
#X connect 49 0 21 0;
#X restore 62 52 pd highpass.coeffs;
#X obj 46 109 outlet~;
#N canvas 776 547 365 190 @hv_obj 0;
#X obj 12 31 inlet~;
#N canvas 1097 522 303 331 zeros 0;
#X obj 12 217 czero~;
#X obj 12 273 czero~;
#X obj 12 299 outlet~;
#X obj 75 299 outlet~;
#X obj 12 31 inlet~;
#X obj 47 122 *~ -1;
#X obj 47 143 *~ 0.5;
#X obj 132 58 *~;
#X obj 132 92 -~;
#X obj 187 78 *~ 4;
#X obj 187 57 *~;
#X obj 132 113 abs~;
#X obj 132 155 *~ 0.5;
#X obj 132 176 /~;
#N canvas 773 235 262 212 location 0;
#X obj 12 12 inlet~;
#X obj 62 12 inlet~;
#X obj 207 12 inlet~;
#X obj 12 174 outlet~;
#X obj 72 174 outlet~;
#X obj 132 174 outlet~;
#X obj 192 174 outlet~;
#N canvas 725 189 180 137 gte 0;
#X obj 117 12 inlet~;
#X obj 12 12 inlet~;
#X obj 12 100 outlet~;
#N canvas 758 270 144 76 @hv_obj 0;
#X obj 62 12 inlet~;
#X obj 12 12 inlet~;
#X obj 12 34 outlet~;
#X connect 1 0 2 0;
#X restore 12 78 pd @hv_obj __and~f;
#X obj 117 56 sig~ 1;
#N canvas 945 362 136 178 @hv_obj 0;
#X obj 12 56 -~;
#X obj 12 78 clip~ -1e-37 0;
#X obj 12 12 inlet~;
#X obj 62 12 inlet~;
#X obj 12 144 outlet~;
#X obj 12 122 *~ 1e+37;
#X obj 12 34 min~;
#X obj 12 100 +~ 1e-37;
#X connect 0 0 1 0;
#X connect 1 0 7 0;
#X connect 2 0 6 0;
#X connect 3 0 6 1;
#X connect 3 0 0 1;
#X connect 5 0 4 0;
#X connect 6 0 0 0;
#X connect 7 0 5 0;
#X restore 12 34 pd @hv_obj __gte~f;
#X connect 0 0 5 1;
#X connect 1 0 5 0;
#X connect 3 0 2 0;
#X connect 4 0 3 1;
#X connect 5 0 3 0;
#X restore 62 49 pd gte;
#N canvas 845 375 187 138 lte 0;
#X obj 117 12 inlet~;
#X obj 12 12 inlet~;
#X obj 12 100 outlet~;
#N canvas 467 216 140 82 @hv_obj 0;
#X obj 72 12 inlet~;
#X obj 12 12 inlet~;
#X obj 12 39 outlet~;
#X connect 1 0 2 0;
#X restore 12 78 pd @hv_obj __and~f;
#X obj 117 56 sig~ 1;
#N canvas 715 101 137 184 @hv_obj 0;
#X obj 12 56 -~;
#X obj 12 78 clip~ -1e-37 0;
#X obj 12 12 inlet~;
#X obj 62 12 inlet~;
#X obj 12 144 outlet~;
#X obj 12 122 *~ 1e+37;
#X obj 12 34 min~;
#X obj 12 100 +~ 1e-37;
#X connect 0 0 1 0;
#X connect 1 0 7 0;
#X connect 2 0 6 0;
#X connect 2 0 0 1;
#X connect 3 0 6 1;
#X connect 5 0 4 0;
#X connect 6 0 0 0;
#X connect 7 0 5 0;
#X restore 12 34 pd @hv_obj __lte~f;
#X connect 0 0 5 1;
#X connect 1 0 5 0;
#X connect 3 0 2 0;
#X connect 4 0 3 1;
#X connect 5 0 3 0;
#X restore 127 49 pd lte;
#X obj 12 152 +~;
#X obj 160 22 sig~ 0;
#X obj 147 125 *~;
#X obj 192 125 *~;
#X obj 132 152 -~;
#X obj 192 152 *~ -1;
#X connect 0 0 9 0;
#X connect 0 0 13 0;
#X connect 1 0 7 0;
#X connect 1 0 8 0;
#X connect 2 0 11 1;
#X connect 2 0 12 1;
#X connect 7 0 11 0;
#X connect 8 0 12 0;
#X connect 9 0 3 0;
#X connect 10 0 7 1;
#X connect 10 0 8 1;
#X connect 11 0 9 1;
#X connect 11 0 13 1;
#X connect 12 0 4 0;
#X connect 12 0 14 0;
#X connect 13 0 5 0;
#X connect 14 0 6 0;
#X restore 34 190 pd location;
#X obj 132 134 sqrt~;
#X obj 47 164 /~;
#X obj 252 203 inlet;
#X text 62 11 b0;
#X text 132 11 b1;
#X text 202 11 b2;
#X obj 202 31 inlet~;
#X obj 132 31 inlet~;
#X obj 62 31 inlet~;
#X text 252 183 clear;
#X connect 0 0 1 0;
#X connect 0 1 1 1;
#X connect 1 0 2 0;
#X connect 1 1 3 0;
#X connect 4 0 0 0;
#X connect 5 0 6 0;
#X connect 6 0 16 0;
#X connect 7 0 8 0;
#X connect 8 0 11 0;
#X connect 8 0 14 1;
#X connect 9 0 8 1;
#X connect 10 0 9 0;
#X connect 11 0 15 0;
#X connect 12 0 13 0;
#X connect 13 0 14 2;
#X connect 14 0 0 2;
#X connect 14 1 0 3;
#X connect 14 2 1 2;
#X connect 14 3 1 3;
#X connect 15 0 12 0;
#X connect 16 0 14 0;
#X connect 17 0 0 0;
#X connect 17 0 1 0;
#X connect 21 0 10 1;
#X connect 22 0 5 0;
#X connect 22 0 7 1;
#X connect 22 0 7 0;
#X connect 23 0 10 0;
#X connect 23 0 13 1;
#X connect 23 0 16 1;
#X restore 12 89 pd zeros;
#X obj 12 52 *~;
#N canvas 1083 390 288 282 poles 0;
#X obj 12 181 cpole~;
#X obj 12 228 cpole~;
#X obj 12 249 outlet~;
#X obj 12 31 inlet~;
#X obj 62 31 inlet~;
#N canvas 739 258 279 198 location 0;
#X obj 12 12 inlet~;
#X obj 127 12 inlet~;
#X obj 222 49 inlet~;
#X obj 12 155 outlet~;
#X obj 62 155 outlet~;
#X obj 112 155 outlet~;
#X obj 172 155 outlet~;
#N canvas 796 341 183 142 gte 0;
#X obj 117 12 inlet~;
#X obj 12 12 inlet~;
#X obj 12 100 outlet~;
#N canvas 679 326 140 75 @hv_obj 0;
#X obj 72 12 inlet~;
#X obj 12 12 inlet~;
#X obj 12 34 outlet~;
#X connect 1 0 2 0;
#X restore 12 78 pd @hv_obj __and~f;
#X obj 117 56 sig~ 1;
#N canvas 754 439 132 184 @hv_obj 0;
#X obj 12 56 -~;
#X obj 12 78 clip~ -1e-37 0;
#X obj 12 12 inlet~;
#X obj 62 12 inlet~;
#X obj 12 144 outlet~;
#X obj 12 122 *~ 1e+37;
#X obj 12 34 min~;
#X obj 12 100 +~ 1e-37;
#X connect 0 0 1 0;
#X connect 1 0 7 0;
#X connect 2 0 6 0;
#X connect 3 0 6 1;
#X connect 3 0 0 1;
#X connect 5 0 4 0;
#X connect 6 0 0 0;
#X connect 7 0 5 0;
#X restore 12 34 pd @hv_obj __gte~f;
#X connect 0 0 5 1;
#X connect 1 0 5 0;
#X connect 3 0 2 0;
#X connect 4 0 3 1;
#X connect 5 0 3 0;
#X restore 127 39 pd gte;
#N canvas 816 493 187 138 lte 0;
#X obj 117 12 inlet~;
#X obj 12 12 inlet~;
#X obj 12 100 outlet~;
#N canvas 467 216 142 76 @hv_obj 0;
#X obj 72 12 inlet~;
#X obj 12 12 inlet~;
#X obj 12 34 outlet~;
#X connect 1 0 2 0;
#X restore 12 78 pd @hv_obj __and~f;
#X obj 117 56 sig~ 1;
#N canvas 715 101 131 178 @hv_obj 0;
#X obj 12 56 -~;
#X obj 12 78 clip~ -1e-37 0;
#X obj 12 12 inlet~;
#X obj 62 12 inlet~;
#X obj 12 144 outlet~;
#X obj 12 122 *~ 1e+37;
#X obj 12 34 min~;
#X obj 12 100 +~ 1e-37;
#X connect 0 0 1 0;
#X connect 1 0 7 0;
#X connect 2 0 6 0;
#X connect 2 0 0 1;
#X connect 3 0 6 1;
#X connect 5 0 4 0;
#X connect 6 0 0 0;
#X connect 7 0 5 0;
#X restore 12 34 pd @hv_obj __lte~f;
#X connect 0 0 5 1;
#X connect 1 0 5 0;
#X connect 3 0 2 0;
#X connect 4 0 3 1;
#X connect 5 0 3 0;
#X restore 172 39 pd lte;
#X obj 12 83 +~;
#X obj 205 12 sig~ 0;
#X obj 127 66 *~;
#X obj 172 66 *~;
#X obj 112 133 -~;
#X obj 172 133 *~ -1;
#X connect 0 0 9 0;
#X connect 0 0 13 0;
#X connect 1 0 7 0;
#X connect 1 0 8 0;
#X connect 2 0 11 1;
#X connect 2 0 12 1;
#X connect 7 0 11 0;
#X connect 8 0 12 0;
#X connect 9 0 3 0;
#X connect 10 0 7 1;
#X connect 10 0 8 1;
#X connect 11 0 9 1;
#X connect 11 0 13 1;
#X connect 12 0 4 0;
#X connect 12 0 14 0;
#X connect 13 0 5 0;
#X connect 14 0 6 0;
#X restore 34 155 pd location;
#X obj 72 78 *~ 0.5;
#X obj 122 57 *~;
#X obj 122 78 +~;
#X obj 182 64 *~ 4;
#X obj 122 99 abs~;
#X obj 122 141 *~ 0.5;
#X obj 122 120 sqrt~;
#X obj 232 167 inlet;
#X text 182 11 a2;
#X text 122 11 a1;
#X obj 122 31 inlet~;
#X obj 182 31 inlet~;
#X text 232 147 clear;
#X connect 0 0 1 0;
#X connect 0 1 1 1;
#X connect 1 0 2 0;
#X connect 3 0 0 0;
#X connect 4 0 0 1;
#X connect 5 0 0 2;
#X connect 5 1 0 3;
#X connect 5 2 1 2;
#X connect 5 3 1 3;
#X connect 6 0 5 0;
#X connect 7 0 8 0;
#X connect 8 0 5 1;
#X connect 8 0 10 0;
#X connect 9 0 8 1;
#X connect 10 0 12 0;
#X connect 11 0 5 2;
#X connect 12 0 11 0;
#X connect 13 0 0 0;
#X connect 13 0 1 0;
#X connect 16 0 6 0;
#X connect 16 0 7 0;
#X connect 16 0 7 1;
#X connect 17 0 9 0;
#X restore 12 133 pd poles;
#X obj 12 159 outlet~;
#X obj 212 119 *~ -1;
#X obj 262 119 *~ -1;
#X obj 312 75 inlet;
#X obj 62 31 inlet~;
#X obj 112 31 inlet~;
#X obj 162 31 inlet~;
#X obj 212 31 inlet~;
#X obj 262 31 inlet~;
#X text 62 11 b0;
#X text 112 11 b1;
#X text 162 11 b2;
#X text 212 11 a1;
#X text 262 11 a2;
#X text 312 55 clear;
#X connect 0 0 2 0;
#X connect 1 0 3 0;
#X connect 1 1 3 1;
#X connect 2 0 1 0;
#X connect 3 0 4 0;
#X connect 5 0 3 2;
#X connect 6 0 3 3;
#X connect 7 0 1 4;
#X connect 7 0 3 4;
#X connect 8 0 2 1;
#X connect 8 0 1 1;
#X connect 9 0 1 2;
#X connect 10 0 1 3;
#X connect 11 0 5 0;
#X connect 12 0 6 0;
#X restore 46 88 pd @hv_obj biquad;
#X obj 12 20 inlet~;
#X obj 167 31 inlet~;
#X obj 62 31 inlet~;
#X obj 217 53 inlet;
#X msg 217 74 clear;
#X text 62 11 frequency;
#X text 217 33 clear;
#X text 167 11 q;
#X connect 0 0 2 1;
#X connect 0 1 2 2;
#X connect 0 2 2 3;
#X connect 0 3 2 4;
#X connect 0 4 2 5;
#X connect 2 0 1 0;
#X connect 3 0 2 0;
#X connect 4 0 0 1;
#X connect 5 0 0 0;
#X connect 6 0 7 0;
#X connect 7 0 2 6;
#X restore 12 253 pd highpass~;
#X obj 66 229 sig~ 0.4;
#X obj 39 205 sig~ 1000;
#X obj 313 100 sel 0;
#X obj 313 76 % 4;
#X obj 313 52 + 2;
#X obj 313 172 s \$0-r-bng-noi;
#X obj 313 28 r \$0-clock;
#X obj 32 277 r \$0-metro;
#X obj 12 327 throw~ \$0-master;
#X obj 32 302 tabwrite~ \$0-noise;
#X obj 313 148 spigot;
#X obj 342 124 r \$0-s-tgl-noi;
#X connect 0 0 12 0;
#X connect 1 0 11 0;
#X connect 2 0 5 1;
#X connect 3 0 10 0;
#X connect 4 0 6 0;
#X connect 5 0 13 0;
#X connect 6 0 5 0;
#X connect 7 0 6 2;
#X connect 8 0 6 3;
#X connect 9 0 6 1;
#X connect 10 0 4 0;
#X connect 11 0 2 0;
#X connect 12 0 1 0;
#X connect 13 0 23 0;
#X connect 13 0 22 0;
#X connect 14 0 13 2;
#X connect 15 0 13 1;
#X connect 16 0 24 0;
#X connect 17 0 16 0;
#X connect 18 0 17 0;
#X connect 20 0 18 0;
#X connect 21 0 23 0;
#X connect 24 0 19 0;
#X connect 25 0 24 1;
#X restore 314 99 pd noise;
#N canvas 585 222 1280 676 snare 0;
#X floatatom 12 156 5 0 0 0 - - -;
#X obj 12 179 mtof;
#X floatatom 12 203 5 0 0 0 - - -;
#X obj 12 279 phasor~;
#X obj 12 327 cos~;
#X obj 381 72 t b b;
#X obj 381 120 del 2;
#X msg 672 420 0 1;
#X obj 672 444 line~;
#X msg 702 420 1 0;
#X obj 12 351 *~;
#X msg 58 255 0;
#X obj 12 303 -~ 0.25;
#X obj 170 140 line~;
#X obj 59 183 sig~ 2;
#X obj 59 207 pow~;
#X obj 110 164 pow~ 6;
#X obj 12 226 *~;
#X obj 12 415 *~ 1;
#X obj 12 439 expr~ tanh($v1);
#X obj 12 463 *~;
#X obj 12 108 r \$0-trg-snr;
#X obj 58 231 r \$0-trg-snr;
#X obj 170 92 r \$0-trg-snr;
#X obj 702 396 r \$0-trg-snr;
#X obj 381 144 s \$0-trg-snr;
#X obj 413 96 s \$0-rst-snr;
#X obj 381 24 r \$0-s-bng-snr;
#X obj 672 372 r \$0-rst-snr;
#X msg 12 132 52;
#X obj 110 188 /~ 2;
#X obj 426 206 r \$0-trg-snr;
#X msg 426 230 seed 1431;
#X obj 426 254 noise~;
#N canvas 605 515 450 300 bandpass~ 0;
#N canvas 0 23 706 367 bandpass2.coeffs 0;
#N canvas 78 244 261 257 hz2rad 0;
#X obj 27 56 samplerate~;
#X obj 27 34 loadbang;
#X obj 27 122 atan;
#X msg 27 100 1;
#X obj 27 144 * 8;
#X obj 27 78 t b a;
#X obj 27 166 / 44100;
#X obj 12 188 *~;
#X obj 12 210 outlet~ w(rad);
#X obj 12 12 inlet~ freq(Hz);
#X text 77 166 // 2 * pi / SR;
#X text 107 56 // w = 2 * pi * f / SR;
#X connect 0 0 5 0;
#X connect 1 0 0 0;
#X connect 2 0 4 0;
#X connect 3 0 2 0;
#X connect 4 0 6 0;
#X connect 5 0 3 0;
#X connect 5 1 6 1;
#X connect 6 0 7 1;
#X connect 7 0 8 0;
#X connect 9 0 7 0;
#X restore 137 55 pd hz2rad;
#X obj 137 34 clip~ 20 20000;
#X obj 137 77 /~ 6.28319;
#X obj 137 121 cos~;
#X obj 298 72 clip~ 0.1 100;
#X obj 283 94 sig~ 1;
#X obj 283 116 /~;
#X obj 207 121 cos~;
#X obj 283 138 *~;
#X obj 283 160 *~ 0.5;
#X obj 12 258 sig~ 1;
#X obj 12 280 /~;
#X obj 122 297 *~;
#X obj 122 319 outlet~ b0;
#X obj 192 319 outlet~ b1;
#X obj 262 297 *~;
#X obj 262 319 outlet~ b2;
#X obj 347 297 *~;
#X obj 362 231 *~ -2;
#X obj 347 319 outlet~ a1;
#X obj 432 231 sig~ 1;
#X obj 432 253 -~;
#X obj 417 297 *~;
#X obj 417 319 outlet~ a2;
#X obj 57 263 +~ 1;
#X text 363 162 w0 = 2*pi*f0*Fs;
#X text 363 182 alpha = sin(w0)/(2*Q);
#X text 527 237 a2 = 1 - alpha;
#X text 527 217 a1 = -2*cos(w0);
#X text 392 72 H(z) = -----------------------------------------;
#X text 392 32 Audio-Cookbook:;
#X text 392 112 http://musicdsp.org/files/Audio-EQ-Cookbook.txt;
#X text 434 87 1 + (a1/a0)*z^(-1) + (a2/a0)*z^(-2);
#X text 434 57 (b0/a0) + (b1/a0)*z^(-1) + (b2/a0)*z^(-2);
#X text 527 197 a0 = 1 + alpha;
#X text 517 177 LPF:;
#X obj 207 99 -~ 0.25;
#X text 527 257 b0 = alpha;
#X text 527 277 b1 = 0;
#X text 527 297 b2 = -alpha;
#X obj 277 253 *~ -1;
#X obj 192 297 sig~ 0;
#X obj 137 12 inlet~;
#X obj 298 50 inlet~;
#X connect 0 0 2 0;
#X connect 1 0 0 0;
#X connect 2 0 3 0;
#X connect 2 0 36 0;
#X connect 3 0 18 0;
#X connect 4 0 6 1;
#X connect 5 0 6 0;
#X connect 6 0 8 0;
#X connect 7 0 8 1;
#X connect 8 0 9 0;
#X connect 9 0 21 1;
#X connect 9 0 24 0;
#X connect 9 0 40 0;
#X connect 9 0 12 1;
#X connect 10 0 11 0;
#X connect 11 0 12 0;
#X connect 11 0 15 0;
#X connect 11 0 17 0;
#X connect 11 0 22 0;
#X connect 12 0 13 0;
#X connect 15 0 16 0;
#X connect 17 0 19 0;
#X connect 18 0 17 1;
#X connect 20 0 21 0;
#X connect 21 0 22 1;
#X connect 22 0 23 0;
#X connect 24 0 11 1;
#X connect 36 0 7 0;
#X connect 40 0 15 1;
#X connect 41 0 14 0;
#X connect 42 0 1 0;
#X connect 43 0 4 0;
#X restore 62 52 pd bandpass2.coeffs;
#X obj 46 119 outlet~;
#N canvas 776 547 365 190 @hv_obj 0;
#X obj 12 31 inlet~;
#N canvas 1097 522 303 331 zeros 0;
#X obj 12 217 czero~;
#X obj 12 273 czero~;
#X obj 12 299 outlet~;
#X obj 75 299 outlet~;
#X obj 12 31 inlet~;
#X obj 47 122 *~ -1;
#X obj 47 143 *~ 0.5;
#X obj 132 58 *~;
#X obj 132 92 -~;
#X obj 187 78 *~ 4;
#X obj 187 57 *~;
#X obj 132 113 abs~;
#X obj 132 155 *~ 0.5;
#X obj 132 176 /~;
#N canvas 773 235 262 212 location 0;
#X obj 12 12 inlet~;
#X obj 62 12 inlet~;
#X obj 207 12 inlet~;
#X obj 12 174 outlet~;
#X obj 72 174 outlet~;
#X obj 132 174 outlet~;
#X obj 192 174 outlet~;
#N canvas 725 189 180 137 gte 0;
#X obj 117 12 inlet~;
#X obj 12 12 inlet~;
#X obj 12 100 outlet~;
#N canvas 758 270 144 76 @hv_obj 0;
#X obj 62 12 inlet~;
#X obj 12 12 inlet~;
#X obj 12 34 outlet~;
#X connect 1 0 2 0;
#X restore 12 78 pd @hv_obj __and~f;
#X obj 117 56 sig~ 1;
#N canvas 945 362 136 178 @hv_obj 0;
#X obj 12 56 -~;
#X obj 12 78 clip~ -1e-37 0;
#X obj 12 12 inlet~;
#X obj 62 12 inlet~;
#X obj 12 144 outlet~;
#X obj 12 122 *~ 1e+37;
#X obj 12 34 min~;
#X obj 12 100 +~ 1e-37;
#X connect 0 0 1 0;
#X connect 1 0 7 0;
#X connect 2 0 6 0;
#X connect 3 0 6 1;
#X connect 3 0 0 1;
#X connect 5 0 4 0;
#X connect 6 0 0 0;
#X connect 7 0 5 0;
#X restore 12 34 pd @hv_obj __gte~f;
#X connect 0 0 5 1;
#X connect 1 0 5 0;
#X connect 3 0 2 0;
#X connect 4 0 3 1;
#X connect 5 0 3 0;
#X restore 62 49 pd gte;
#N canvas 845 375 187 138 lte 0;
#X obj 117 12 inlet~;
#X obj 12 12 inlet~;
#X obj 12 100 outlet~;
#N canvas 467 216 140 82 @hv_obj 0;
#X obj 72 12 inlet~;
#X obj 12 12 inlet~;
#X obj 12 39 outlet~;
#X connect 1 0 2 0;
#X restore 12 78 pd @hv_obj __and~f;
#X obj 117 56 sig~ 1;
#N canvas 715 101 137 184 @hv_obj 0;
#X obj 12 56 -~;
#X obj 12 78 clip~ -1e-37 0;
#X obj 12 12 inlet~;
#X obj 62 12 inlet~;
#X obj 12 144 outlet~;
#X obj 12 122 *~ 1e+37;
#X obj 12 34 min~;
#X obj 12 100 +~ 1e-37;
#X connect 0 0 1 0;
#X connect 1 0 7 0;
#X connect 2 0 6 0;
#X connect 2 0 0 1;
#X connect 3 0 6 1;
#X connect 5 0 4 0;
#X connect 6 0 0 0;
#X connect 7 0 5 0;
#X restore 12 34 pd @hv_obj __lte~f;
#X connect 0 0 5 1;
#X connect 1 0 5 0;
#X connect 3 0 2 0;
#X connect 4 0 3 1;
#X connect 5 0 3 0;
#X restore 127 49 pd lte;
#X obj 12 152 +~;
#X obj 160 22 sig~ 0;
#X obj 147 125 *~;
#X obj 192 125 *~;
#X obj 132 152 -~;
#X obj 192 152 *~ -1;
#X connect 0 0 9 0;
#X connect 0 0 13 0;
#X connect 1 0 7 0;
#X connect 1 0 8 0;
#X connect 2 0 11 1;
#X connect 2 0 12 1;
#X connect 7 0 11 0;
#X connect 8 0 12 0;
#X connect 9 0 3 0;
#X connect 10 0 7 1;
#X connect 10 0 8 1;
#X connect 11 0 9 1;
#X connect 11 0 13 1;
#X connect 12 0 4 0;
#X connect 12 0 14 0;
#X connect 13 0 5 0;
#X connect 14 0 6 0;
#X restore 34 190 pd location;
#X obj 132 134 sqrt~;
#X obj 47 164 /~;
#X obj 252 203 inlet;
#X text 62 11 b0;
#X text 132 11 b1;
#X text 202 11 b2;
#X obj 202 31 inlet~;
#X obj 132 31 inlet~;
#X obj 62 31 inlet~;
#X text 252 183 clear;
#X connect 0 0 1 0;
#X connect 0 1 1 1;
#X connect 1 0 2 0;
#X connect 1 1 3 0;
#X connect 4 0 0 0;
#X connect 5 0 6 0;
#X connect 6 0 16 0;
#X connect 7 0 8 0;
#X connect 8 0 11 0;
#X connect 8 0 14 1;
#X connect 9 0 8 1;
#X connect 10 0 9 0;
#X connect 11 0 15 0;
#X connect 12 0 13 0;
#X connect 13 0 14 2;
#X connect 14 0 0 2;
#X connect 14 1 0 3;
#X connect 14 2 1 2;
#X connect 14 3 1 3;
#X connect 15 0 12 0;
#X connect 16 0 14 0;
#X connect 17 0 0 0;
#X connect 17 0 1 0;
#X connect 21 0 10 1;
#X connect 22 0 5 0;
#X connect 22 0 7 1;
#X connect 22 0 7 0;
#X connect 23 0 10 0;
#X connect 23 0 13 1;
#X connect 23 0 16 1;
#X restore 12 89 pd zeros;
#X obj 12 52 *~;
#N canvas 1083 390 288 282 poles 0;
#X obj 12 181 cpole~;
#X obj 12 228 cpole~;
#X obj 12 249 outlet~;
#X obj 12 31 inlet~;
#X obj 62 31 inlet~;
#N canvas 739 258 279 198 location 0;
#X obj 12 12 inlet~;
#X obj 127 12 inlet~;
#X obj 222 49 inlet~;
#X obj 12 155 outlet~;
#X obj 62 155 outlet~;
#X obj 112 155 outlet~;
#X obj 172 155 outlet~;
#N canvas 796 341 183 142 gte 0;
#X obj 117 12 inlet~;
#X obj 12 12 inlet~;
#X obj 12 100 outlet~;
#N canvas 679 326 140 75 @hv_obj 0;
#X obj 72 12 inlet~;
#X obj 12 12 inlet~;
#X obj 12 34 outlet~;
#X connect 1 0 2 0;
#X restore 12 78 pd @hv_obj __and~f;
#X obj 117 56 sig~ 1;
#N canvas 754 439 132 184 @hv_obj 0;
#X obj 12 56 -~;
#X obj 12 78 clip~ -1e-37 0;
#X obj 12 12 inlet~;
#X obj 62 12 inlet~;
#X obj 12 144 outlet~;
#X obj 12 122 *~ 1e+37;
#X obj 12 34 min~;
#X obj 12 100 +~ 1e-37;
#X connect 0 0 1 0;
#X connect 1 0 7 0;
#X connect 2 0 6 0;
#X connect 3 0 6 1;
#X connect 3 0 0 1;
#X connect 5 0 4 0;
#X connect 6 0 0 0;
#X connect 7 0 5 0;
#X restore 12 34 pd @hv_obj __gte~f;
#X connect 0 0 5 1;
#X connect 1 0 5 0;
#X connect 3 0 2 0;
#X connect 4 0 3 1;
#X connect 5 0 3 0;
#X restore 127 39 pd gte;
#N canvas 816 493 187 138 lte 0;
#X obj 117 12 inlet~;
#X obj 12 12 inlet~;
#X obj 12 100 outlet~;
#N canvas 467 216 142 76 @hv_obj 0;
#X obj 72 12 inlet~;
#X obj 12 12 inlet~;
#X obj 12 34 outlet~;
#X connect 1 0 2 0;
#X restore 12 78 pd @hv_obj __and~f;
#X obj 117 56 sig~ 1;
#N canvas 715 101 131 178 @hv_obj 0;
#X obj 12 56 -~;
#X obj 12 78 clip~ -1e-37 0;
#X obj 12 12 inlet~;
#X obj 62 12 inlet~;
#X obj 12 144 outlet~;
#X obj 12 122 *~ 1e+37;
#X obj 12 34 min~;
#X obj 12 100 +~ 1e-37;
#X connect 0 0 1 0;
#X connect 1 0 7 0;
#X connect 2 0 6 0;
#X connect 2 0 0 1;
#X connect 3 0 6 1;
#X connect 5 0 4 0;
#X connect 6 0 0 0;
#X connect 7 0 5 0;
#X restore 12 34 pd @hv_obj __lte~f;
#X connect 0 0 5 1;
#X connect 1 0 5 0;
#X connect 3 0 2 0;
#X connect 4 0 3 1;
#X connect 5 0 3 0;
#X restore 172 39 pd lte;
#X obj 12 83 +~;
#X obj 205 12 sig~ 0;
#X obj 127 66 *~;
#X obj 172 66 *~;
#X obj 112 133 -~;
#X obj 172 133 *~ -1;
#X connect 0 0 9 0;
#X connect 0 0 13 0;
#X connect 1 0 7 0;
#X connect 1 0 8 0;
#X connect 2 0 11 1;
#X connect 2 0 12 1;
#X connect 7 0 11 0;
#X connect 8 0 12 0;
#X connect 9 0 3 0;
#X connect 10 0 7 1;
#X connect 10 0 8 1;
#X connect 11 0 9 1;
#X connect 11 0 13 1;
#X connect 12 0 4 0;
#X connect 12 0 14 0;
#X connect 13 0 5 0;
#X connect 14 0 6 0;
#X restore 34 155 pd location;
#X obj 72 78 *~ 0.5;
#X obj 122 57 *~;
#X obj 122 78 +~;
#X obj 182 64 *~ 4;
#X obj 122 99 abs~;
#X obj 122 141 *~ 0.5;
#X obj 122 120 sqrt~;
#X obj 232 167 inlet;
#X text 182 11 a2;
#X text 122 11 a1;
#X obj 122 31 inlet~;
#X obj 182 31 inlet~;
#X text 232 147 clear;
#X connect 0 0 1 0;
#X connect 0 1 1 1;
#X connect 1 0 2 0;
#X connect 3 0 0 0;
#X connect 4 0 0 1;
#X connect 5 0 0 2;
#X connect 5 1 0 3;
#X connect 5 2 1 2;
#X connect 5 3 1 3;
#X connect 6 0 5 0;
#X connect 7 0 8 0;
#X connect 8 0 5 1;
#X connect 8 0 10 0;
#X connect 9 0 8 1;
#X connect 10 0 12 0;
#X connect 11 0 5 2;
#X connect 12 0 11 0;
#X connect 13 0 0 0;
#X connect 13 0 1 0;
#X connect 16 0 6 0;
#X connect 16 0 7 0;
#X connect 16 0 7 1;
#X connect 17 0 9 0;
#X restore 12 133 pd poles;
#X obj 12 159 outlet~;
#X obj 212 119 *~ -1;
#X obj 262 119 *~ -1;
#X obj 312 75 inlet;
#X obj 62 31 inlet~;
#X obj 112 31 inlet~;
#X obj 162 31 inlet~;
#X obj 212 31 inlet~;
#X obj 262 31 inlet~;
#X text 62 11 b0;
#X text 112 11 b1;
#X text 162 11 b2;
#X text 212 11 a1;
#X text 262 11 a2;
#X text 312 55 clear;
#X connect 0 0 2 0;
#X connect 1 0 3 0;
#X connect 1 1 3 1;
#X connect 2 0 1 0;
#X connect 3 0 4 0;
#X connect 5 0 3 2;
#X connect 6 0 3 3;
#X connect 7 0 1 4;
#X connect 7 0 3 4;
#X connect 8 0 2 1;
#X connect 8 0 1 1;
#X connect 9 0 1 2;
#X connect 10 0 1 3;
#X connect 11 0 5 0;
#X connect 12 0 6 0;
#X restore 46 98 pd @hv_obj biquad;
#X obj 12 31 inlet~;
#X obj 220 63 inlet;
#X msg 220 84 clear;
#X text 220 43 clear;
#X obj 62 31 inlet~;
#X obj 173 31 inlet~;
#X text 62 11 frequency;
#X text 173 11 q;
#X connect 0 0 2 1;
#X connect 0 1 2 2;
#X connect 0 2 2 3;
#X connect 0 3 2 4;
#X connect 0 4 2 5;
#X connect 2 0 1 0;
#X connect 3 0 2 0;
#X connect 4 0 5 0;
#X connect 5 0 2 6;
#X connect 7 0 0 0;
#X connect 8 0 0 1;
#X restore 496 273 pd bandpass~;
#X obj 921 134 t b b;
#X obj 921 182 del 2;
#X obj 921 230 unpack f f;
#X obj 921 297 lop~;
#X msg 988 254 1000 \$1;
#X obj 988 278 /;
#X msg 921 206 0 623;
#X msg 953 158 1 1;
#X obj 496 316 *~;
#X obj 921 110 r \$0-trg-snr;
#X obj 496 340 *~ 4;
#X obj 523 201 r \$0-trg-snr;
#X obj 523 249 mtof;
#N canvas 0 23 450 300 bandpass~ 0;
#N canvas 0 23 706 367 bandpass2.coeffs 0;
#N canvas 78 244 261 257 hz2rad 0;
#X obj 27 56 samplerate~;
#X obj 27 34 loadbang;
#X obj 27 122 atan;
#X msg 27 100 1;
#X obj 27 144 * 8;
#X obj 27 78 t b a;
#X obj 27 166 / 44100;
#X obj 12 188 *~;
#X obj 12 210 outlet~ w(rad);
#X obj 12 12 inlet~ freq(Hz);
#X text 77 166 // 2 * pi / SR;
#X text 107 56 // w = 2 * pi * f / SR;
#X connect 0 0 5 0;
#X connect 1 0 0 0;
#X connect 2 0 4 0;
#X connect 3 0 2 0;
#X connect 4 0 6 0;
#X connect 5 0 3 0;
#X connect 5 1 6 1;
#X connect 6 0 7 1;
#X connect 7 0 8 0;
#X connect 9 0 7 0;
#X restore 137 55 pd hz2rad;
#X obj 137 34 clip~ 20 20000;
#X obj 137 77 /~ 6.28319;
#X obj 137 121 cos~;
#X obj 298 72 clip~ 0.1 100;
#X obj 283 94 sig~ 1;
#X obj 283 116 /~;
#X obj 207 121 cos~;
#X obj 283 138 *~;
#X obj 283 160 *~ 0.5;
#X obj 12 258 sig~ 1;
#X obj 12 280 /~;
#X obj 122 297 *~;
#X obj 122 319 outlet~ b0;
#X obj 192 319 outlet~ b1;
#X obj 262 297 *~;
#X obj 262 319 outlet~ b2;
#X obj 347 297 *~;
#X obj 362 231 *~ -2;
#X obj 347 319 outlet~ a1;
#X obj 432 231 sig~ 1;
#X obj 432 253 -~;
#X obj 417 297 *~;
#X obj 417 319 outlet~ a2;
#X obj 57 263 +~ 1;
#X text 363 162 w0 = 2*pi*f0*Fs;
#X text 363 182 alpha = sin(w0)/(2*Q);
#X text 527 237 a2 = 1 - alpha;
#X text 527 217 a1 = -2*cos(w0);
#X text 392 72 H(z) = -----------------------------------------;
#X text 392 32 Audio-Cookbook:;
#X text 392 112 http://musicdsp.org/files/Audio-EQ-Cookbook.txt;
#X text 434 87 1 + (a1/a0)*z^(-1) + (a2/a0)*z^(-2);
#X text 434 57 (b0/a0) + (b1/a0)*z^(-1) + (b2/a0)*z^(-2);
#X text 527 197 a0 = 1 + alpha;
#X text 517 177 LPF:;
#X obj 207 99 -~ 0.25;
#X text 527 257 b0 = alpha;
#X text 527 277 b1 = 0;
#X text 527 297 b2 = -alpha;
#X obj 277 253 *~ -1;
#X obj 192 297 sig~ 0;
#X obj 137 12 inlet~;
#X obj 298 50 inlet~;
#X connect 0 0 2 0;
#X connect 1 0 0 0;
#X connect 2 0 3 0;
#X connect 2 0 36 0;
#X connect 3 0 18 0;
#X connect 4 0 6 1;
#X connect 5 0 6 0;
#X connect 6 0 8 0;
#X connect 7 0 8 1;
#X connect 8 0 9 0;
#X connect 9 0 21 1;
#X connect 9 0 24 0;
#X connect 9 0 40 0;
#X connect 9 0 12 1;
#X connect 10 0 11 0;
#X connect 11 0 12 0;
#X connect 11 0 15 0;
#X connect 11 0 17 0;
#X connect 11 0 22 0;
#X connect 12 0 13 0;
#X connect 15 0 16 0;
#X connect 17 0 19 0;
#X connect 18 0 17 1;
#X connect 20 0 21 0;
#X connect 21 0 22 1;
#X connect 22 0 23 0;
#X connect 24 0 11 1;
#X connect 36 0 7 0;
#X connect 40 0 15 1;
#X connect 41 0 14 0;
#X connect 42 0 1 0;
#X connect 43 0 4 0;
#X restore 62 52 pd bandpass2.coeffs;
#X obj 46 119 outlet~;
#N canvas 776 547 365 190 @hv_obj 0;
#X obj 12 31 inlet~;
#N canvas 1097 522 303 331 zeros 0;
#X obj 12 217 czero~;
#X obj 12 273 czero~;
#X obj 12 299 outlet~;
#X obj 75 299 outlet~;
#X obj 12 31 inlet~;
#X obj 47 122 *~ -1;
#X obj 47 143 *~ 0.5;
#X obj 132 58 *~;
#X obj 132 92 -~;
#X obj 187 78 *~ 4;
#X obj 187 57 *~;
#X obj 132 113 abs~;
#X obj 132 155 *~ 0.5;
#X obj 132 176 /~;
#N canvas 773 235 262 212 location 0;
#X obj 12 12 inlet~;
#X obj 62 12 inlet~;
#X obj 207 12 inlet~;
#X obj 12 174 outlet~;
#X obj 72 174 outlet~;
#X obj 132 174 outlet~;
#X obj 192 174 outlet~;
#N canvas 725 189 180 137 gte 0;
#X obj 117 12 inlet~;
#X obj 12 12 inlet~;
#X obj 12 100 outlet~;
#N canvas 758 270 144 76 @hv_obj 0;
#X obj 62 12 inlet~;
#X obj 12 12 inlet~;
#X obj 12 34 outlet~;
#X connect 1 0 2 0;
#X restore 12 78 pd @hv_obj __and~f;
#X obj 117 56 sig~ 1;
#N canvas 945 362 136 178 @hv_obj 0;
#X obj 12 56 -~;
#X obj 12 78 clip~ -1e-37 0;
#X obj 12 12 inlet~;
#X obj 62 12 inlet~;
#X obj 12 144 outlet~;
#X obj 12 122 *~ 1e+37;
#X obj 12 34 min~;
#X obj 12 100 +~ 1e-37;
#X connect 0 0 1 0;
#X connect 1 0 7 0;
#X connect 2 0 6 0;
#X connect 3 0 6 1;
#X connect 3 0 0 1;
#X connect 5 0 4 0;
#X connect 6 0 0 0;
#X connect 7 0 5 0;
#X restore 12 34 pd @hv_obj __gte~f;
#X connect 0 0 5 1;
#X connect 1 0 5 0;
#X connect 3 0 2 0;
#X connect 4 0 3 1;
#X connect 5 0 3 0;
#X restore 62 49 pd gte;
#N canvas 845 375 187 138 lte 0;
#X obj 117 12 inlet~;
#X obj 12 12 inlet~;
#X obj 12 100 outlet~;
#N canvas 467 216 140 82 @hv_obj 0;
#X obj 72 12 inlet~;
#X obj 12 12 inlet~;
#X obj 12 39 outlet~;
#X connect 1 0 2 0;
#X restore 12 78 pd @hv_obj __and~f;
#X obj 117 56 sig~ 1;
#N canvas 715 101 137 184 @hv_obj 0;
#X obj 12 56 -~;
#X obj 12 78 clip~ -1e-37 0;
#X obj 12 12 inlet~;
#X obj 62 12 inlet~;
#X obj 12 144 outlet~;
#X obj 12 122 *~ 1e+37;
#X obj 12 34 min~;
#X obj 12 100 +~ 1e-37;
#X connect 0 0 1 0;
#X connect 1 0 7 0;
#X connect 2 0 6 0;
#X connect 2 0 0 1;
#X connect 3 0 6 1;
#X connect 5 0 4 0;
#X connect 6 0 0 0;
#X connect 7 0 5 0;
#X restore 12 34 pd @hv_obj __lte~f;
#X connect 0 0 5 1;
#X connect 1 0 5 0;
#X connect 3 0 2 0;
#X connect 4 0 3 1;
#X connect 5 0 3 0;
#X restore 127 49 pd lte;
#X obj 12 152 +~;
#X obj 160 22 sig~ 0;
#X obj 147 125 *~;
#X obj 192 125 *~;
#X obj 132 152 -~;
#X obj 192 152 *~ -1;
#X connect 0 0 9 0;
#X connect 0 0 13 0;
#X connect 1 0 7 0;
#X connect 1 0 8 0;
#X connect 2 0 11 1;
#X connect 2 0 12 1;
#X connect 7 0 11 0;
#X connect 8 0 12 0;
#X connect 9 0 3 0;
#X connect 10 0 7 1;
#X connect 10 0 8 1;
#X connect 11 0 9 1;
#X connect 11 0 13 1;
#X connect 12 0 4 0;
#X connect 12 0 14 0;
#X connect 13 0 5 0;
#X connect 14 0 6 0;
#X restore 34 190 pd location;
#X obj 132 134 sqrt~;
#X obj 47 164 /~;
#X obj 252 203 inlet;
#X text 62 11 b0;
#X text 132 11 b1;
#X text 202 11 b2;
#X obj 202 31 inlet~;
#X obj 132 31 inlet~;
#X obj 62 31 inlet~;
#X text 252 183 clear;
#X connect 0 0 1 0;
#X connect 0 1 1 1;
#X connect 1 0 2 0;
#X connect 1 1 3 0;
#X connect 4 0 0 0;
#X connect 5 0 6 0;
#X connect 6 0 16 0;
#X connect 7 0 8 0;
#X connect 8 0 11 0;
#X connect 8 0 14 1;
#X connect 9 0 8 1;
#X connect 10 0 9 0;
#X connect 11 0 15 0;
#X connect 12 0 13 0;
#X connect 13 0 14 2;
#X connect 14 0 0 2;
#X connect 14 1 0 3;
#X connect 14 2 1 2;
#X connect 14 3 1 3;
#X connect 15 0 12 0;
#X connect 16 0 14 0;
#X connect 17 0 0 0;
#X connect 17 0 1 0;
#X connect 21 0 10 1;
#X connect 22 0 5 0;
#X connect 22 0 7 1;
#X connect 22 0 7 0;
#X connect 23 0 10 0;
#X connect 23 0 13 1;
#X connect 23 0 16 1;
#X restore 12 89 pd zeros;
#X obj 12 52 *~;
#N canvas 1083 390 288 282 poles 0;
#X obj 12 181 cpole~;
#X obj 12 228 cpole~;
#X obj 12 249 outlet~;
#X obj 12 31 inlet~;
#X obj 62 31 inlet~;
#N canvas 739 258 279 198 location 0;
#X obj 12 12 inlet~;
#X obj 127 12 inlet~;
#X obj 222 49 inlet~;
#X obj 12 155 outlet~;
#X obj 62 155 outlet~;
#X obj 112 155 outlet~;
#X obj 172 155 outlet~;
#N canvas 796 341 183 142 gte 0;
#X obj 117 12 inlet~;
#X obj 12 12 inlet~;
#X obj 12 100 outlet~;
#N canvas 679 326 140 75 @hv_obj 0;
#X obj 72 12 inlet~;
#X obj 12 12 inlet~;
#X obj 12 34 outlet~;
#X connect 1 0 2 0;
#X restore 12 78 pd @hv_obj __and~f;
#X obj 117 56 sig~ 1;
#N canvas 754 439 132 184 @hv_obj 0;
#X obj 12 56 -~;
#X obj 12 78 clip~ -1e-37 0;
#X obj 12 12 inlet~;
#X obj 62 12 inlet~;
#X obj 12 144 outlet~;
#X obj 12 122 *~ 1e+37;
#X obj 12 34 min~;
#X obj 12 100 +~ 1e-37;
#X connect 0 0 1 0;
#X connect 1 0 7 0;
#X connect 2 0 6 0;
#X connect 3 0 6 1;
#X connect 3 0 0 1;
#X connect 5 0 4 0;
#X connect 6 0 0 0;
#X connect 7 0 5 0;
#X restore 12 34 pd @hv_obj __gte~f;
#X connect 0 0 5 1;
#X connect 1 0 5 0;
#X connect 3 0 2 0;
#X connect 4 0 3 1;
#X connect 5 0 3 0;
#X restore 127 39 pd gte;
#N canvas 816 493 187 138 lte 0;
#X obj 117 12 inlet~;
#X obj 12 12 inlet~;
#X obj 12 100 outlet~;
#N canvas 467 216 142 76 @hv_obj 0;
#X obj 72 12 inlet~;
#X obj 12 12 inlet~;
#X obj 12 34 outlet~;
#X connect 1 0 2 0;
#X restore 12 78 pd @hv_obj __and~f;
#X obj 117 56 sig~ 1;
#N canvas 715 101 131 178 @hv_obj 0;
#X obj 12 56 -~;
#X obj 12 78 clip~ -1e-37 0;
#X obj 12 12 inlet~;
#X obj 62 12 inlet~;
#X obj 12 144 outlet~;
#X obj 12 122 *~ 1e+37;
#X obj 12 34 min~;
#X obj 12 100 +~ 1e-37;
#X connect 0 0 1 0;
#X connect 1 0 7 0;
#X connect 2 0 6 0;
#X connect 2 0 0 1;
#X connect 3 0 6 1;
#X connect 5 0 4 0;
#X connect 6 0 0 0;
#X connect 7 0 5 0;
#X restore 12 34 pd @hv_obj __lte~f;
#X connect 0 0 5 1;
#X connect 1 0 5 0;
#X connect 3 0 2 0;
#X connect 4 0 3 1;
#X connect 5 0 3 0;
#X restore 172 39 pd lte;
#X obj 12 83 +~;
#X obj 205 12 sig~ 0;
#X obj 127 66 *~;
#X obj 172 66 *~;
#X obj 112 133 -~;
#X obj 172 133 *~ -1;
#X connect 0 0 9 0;
#X connect 0 0 13 0;
#X connect 1 0 7 0;
#X connect 1 0 8 0;
#X connect 2 0 11 1;
#X connect 2 0 12 1;
#X connect 7 0 11 0;
#X connect 8 0 12 0;
#X connect 9 0 3 0;
#X connect 10 0 7 1;
#X connect 10 0 8 1;
#X connect 11 0 9 1;
#X connect 11 0 13 1;
#X connect 12 0 4 0;
#X connect 12 0 14 0;
#X connect 13 0 5 0;
#X connect 14 0 6 0;
#X restore 34 155 pd location;
#X obj 72 78 *~ 0.5;
#X obj 122 57 *~;
#X obj 122 78 +~;
#X obj 182 64 *~ 4;
#X obj 122 99 abs~;
#X obj 122 141 *~ 0.5;
#X obj 122 120 sqrt~;
#X obj 232 167 inlet;
#X text 182 11 a2;
#X text 122 11 a1;
#X obj 122 31 inlet~;
#X obj 182 31 inlet~;
#X text 232 147 clear;
#X connect 0 0 1 0;
#X connect 0 1 1 1;
#X connect 1 0 2 0;
#X connect 3 0 0 0;
#X connect 4 0 0 1;
#X connect 5 0 0 2;
#X connect 5 1 0 3;
#X connect 5 2 1 2;
#X connect 5 3 1 3;
#X connect 6 0 5 0;
#X connect 7 0 8 0;
#X connect 8 0 5 1;
#X connect 8 0 10 0;
#X connect 9 0 8 1;
#X connect 10 0 12 0;
#X connect 11 0 5 2;
#X connect 12 0 11 0;
#X connect 13 0 0 0;
#X connect 13 0 1 0;
#X connect 16 0 6 0;
#X connect 16 0 7 0;
#X connect 16 0 7 1;
#X connect 17 0 9 0;
#X restore 12 133 pd poles;
#X obj 12 159 outlet~;
#X obj 212 119 *~ -1;
#X obj 262 119 *~ -1;
#X obj 312 75 inlet;
#X obj 62 31 inlet~;
#X obj 112 31 inlet~;
#X obj 162 31 inlet~;
#X obj 212 31 inlet~;
#X obj 262 31 inlet~;
#X text 62 11 b0;
#X text 112 11 b1;
#X text 162 11 b2;
#X text 212 11 a1;
#X text 262 11 a2;
#X text 312 55 clear;
#X connect 0 0 2 0;
#X connect 1 0 3 0;
#X connect 1 1 3 1;
#X connect 2 0 1 0;
#X connect 3 0 4 0;
#X connect 5 0 3 2;
#X connect 6 0 3 3;
#X connect 7 0 1 4;
#X connect 7 0 3 4;
#X connect 8 0 2 1;
#X connect 8 0 1 1;
#X connect 9 0 1 2;
#X connect 10 0 1 3;
#X connect 11 0 5 0;
#X connect 12 0 6 0;
#X restore 46 98 pd @hv_obj biquad;
#X obj 12 31 inlet~;
#X obj 220 63 inlet;
#X msg 220 84 clear;
#X text 220 43 clear;
#X obj 62 31 inlet~;
#X obj 173 31 inlet~;
#X text 62 11 frequency;
#X text 173 11 q;
#X connect 0 0 2 1;
#X connect 0 1 2 2;
#X connect 0 2 2 3;
#X connect 0 3 2 4;
#X connect 0 4 2 5;
#X connect 2 0 1 0;
#X connect 3 0 2 0;
#X connect 4 0 5 0;
#X connect 5 0 2 6;
#X connect 7 0 0 0;
#X connect 8 0 0 1;
#X restore 616 273 pd bandpass~;
#X obj 643 201 r \$0-trg-snr;
#X obj 643 249 mtof;
#N canvas 0 23 450 300 bandpass~ 0;
#N canvas 0 23 706 367 bandpass2.coeffs 0;
#N canvas 78 244 261 257 hz2rad 0;
#X obj 27 56 samplerate~;
#X obj 27 34 loadbang;
#X obj 27 122 atan;
#X msg 27 100 1;
#X obj 27 144 * 8;
#X obj 27 78 t b a;
#X obj 27 166 / 44100;
#X obj 12 188 *~;
#X obj 12 210 outlet~ w(rad);
#X obj 12 12 inlet~ freq(Hz);
#X text 77 166 // 2 * pi / SR;
#X text 107 56 // w = 2 * pi * f / SR;
#X connect 0 0 5 0;
#X connect 1 0 0 0;
#X connect 2 0 4 0;
#X connect 3 0 2 0;
#X connect 4 0 6 0;
#X connect 5 0 3 0;
#X connect 5 1 6 1;
#X connect 6 0 7 1;
#X connect 7 0 8 0;
#X connect 9 0 7 0;
#X restore 137 55 pd hz2rad;
#X obj 137 34 clip~ 20 20000;
#X obj 137 77 /~ 6.28319;
#X obj 137 121 cos~;
#X obj 298 72 clip~ 0.1 100;
#X obj 283 94 sig~ 1;
#X obj 283 116 /~;
#X obj 207 121 cos~;
#X obj 283 138 *~;
#X obj 283 160 *~ 0.5;
#X obj 12 258 sig~ 1;
#X obj 12 280 /~;
#X obj 122 297 *~;
#X obj 122 319 outlet~ b0;
#X obj 192 319 outlet~ b1;
#X obj 262 297 *~;
#X obj 262 319 outlet~ b2;
#X obj 347 297 *~;
#X obj 362 231 *~ -2;
#X obj 347 319 outlet~ a1;
#X obj 432 231 sig~ 1;
#X obj 432 253 -~;
#X obj 417 297 *~;
#X obj 417 319 outlet~ a2;
#X obj 57 263 +~ 1;
#X text 363 162 w0 = 2*pi*f0*Fs;
#X text 363 182 alpha = sin(w0)/(2*Q);
#X text 527 237 a2 = 1 - alpha;
#X text 527 217 a1 = -2*cos(w0);
#X text 392 72 H(z) = -----------------------------------------;
#X text 392 32 Audio-Cookbook:;
#X text 392 112 http://musicdsp.org/files/Audio-EQ-Cookbook.txt;
#X text 434 87 1 + (a1/a0)*z^(-1) + (a2/a0)*z^(-2);
#X text 434 57 (b0/a0) + (b1/a0)*z^(-1) + (b2/a0)*z^(-2);
#X text 527 197 a0 = 1 + alpha;
#X text 517 177 LPF:;
#X obj 207 99 -~ 0.25;
#X text 527 257 b0 = alpha;
#X text 527 277 b1 = 0;
#X text 527 297 b2 = -alpha;
#X obj 277 253 *~ -1;
#X obj 192 297 sig~ 0;
#X obj 137 12 inlet~;
#X obj 298 50 inlet~;
#X connect 0 0 2 0;
#X connect 1 0 0 0;
#X connect 2 0 3 0;
#X connect 2 0 36 0;
#X connect 3 0 18 0;
#X connect 4 0 6 1;
#X connect 5 0 6 0;
#X connect 6 0 8 0;
#X connect 7 0 8 1;
#X connect 8 0 9 0;
#X connect 9 0 21 1;
#X connect 9 0 24 0;
#X connect 9 0 40 0;
#X connect 9 0 12 1;
#X connect 10 0 11 0;
#X connect 11 0 12 0;
#X connect 11 0 15 0;
#X connect 11 0 17 0;
#X connect 11 0 22 0;
#X connect 12 0 13 0;
#X connect 15 0 16 0;
#X connect 17 0 19 0;
#X connect 18 0 17 1;
#X connect 20 0 21 0;
#X connect 21 0 22 1;
#X connect 22 0 23 0;
#X connect 24 0 11 1;
#X connect 36 0 7 0;
#X connect 40 0 15 1;
#X connect 41 0 14 0;
#X connect 42 0 1 0;
#X connect 43 0 4 0;
#X restore 62 52 pd bandpass2.coeffs;
#X obj 46 119 outlet~;
#N canvas 776 547 365 190 @hv_obj 0;
#X obj 12 31 inlet~;
#N canvas 1097 522 303 331 zeros 0;
#X obj 12 217 czero~;
#X obj 12 273 czero~;
#X obj 12 299 outlet~;
#X obj 75 299 outlet~;
#X obj 12 31 inlet~;
#X obj 47 122 *~ -1;
#X obj 47 143 *~ 0.5;
#X obj 132 58 *~;
#X obj 132 92 -~;
#X obj 187 78 *~ 4;
#X obj 187 57 *~;
#X obj 132 113 abs~;
#X obj 132 155 *~ 0.5;
#X obj 132 176 /~;
#N canvas 773 235 262 212 location 0;
#X obj 12 12 inlet~;
#X obj 62 12 inlet~;
#X obj 207 12 inlet~;
#X obj 12 174 outlet~;
#X obj 72 174 outlet~;
#X obj 132 174 outlet~;
#X obj 192 174 outlet~;
#N canvas 725 189 180 137 gte 0;
#X obj 117 12 inlet~;
#X obj 12 12 inlet~;
#X obj 12 100 outlet~;
#N canvas 758 270 144 76 @hv_obj 0;
#X obj 62 12 inlet~;
#X obj 12 12 inlet~;
#X obj 12 34 outlet~;
#X connect 1 0 2 0;
#X restore 12 78 pd @hv_obj __and~f;
#X obj 117 56 sig~ 1;
#N canvas 945 362 136 178 @hv_obj 0;
#X obj 12 56 -~;
#X obj 12 78 clip~ -1e-37 0;
#X obj 12 12 inlet~;
#X obj 62 12 inlet~;
#X obj 12 144 outlet~;
#X obj 12 122 *~ 1e+37;
#X obj 12 34 min~;
#X obj 12 100 +~ 1e-37;
#X connect 0 0 1 0;
#X connect 1 0 7 0;
#X connect 2 0 6 0;
#X connect 3 0 6 1;
#X connect 3 0 0 1;
#X connect 5 0 4 0;
#X connect 6 0 0 0;
#X connect 7 0 5 0;
#X restore 12 34 pd @hv_obj __gte~f;
#X connect 0 0 5 1;
#X connect 1 0 5 0;
#X connect 3 0 2 0;
#X connect 4 0 3 1;
#X connect 5 0 3 0;
#X restore 62 49 pd gte;
#N canvas 845 375 187 138 lte 0;
#X obj 117 12 inlet~;
#X obj 12 12 inlet~;
#X obj 12 100 outlet~;
#N canvas 467 216 140 82 @hv_obj 0;
#X obj 72 12 inlet~;
#X obj 12 12 inlet~;
#X obj 12 39 outlet~;
#X connect 1 0 2 0;
#X restore 12 78 pd @hv_obj __and~f;
#X obj 117 56 sig~ 1;
#N canvas 715 101 137 184 @hv_obj 0;
#X obj 12 56 -~;
#X obj 12 78 clip~ -1e-37 0;
#X obj 12 12 inlet~;
#X obj 62 12 inlet~;
#X obj 12 144 outlet~;
#X obj 12 122 *~ 1e+37;
#X obj 12 34 min~;
#X obj 12 100 +~ 1e-37;
#X connect 0 0 1 0;
#X connect 1 0 7 0;
#X connect 2 0 6 0;
#X connect 2 0 0 1;
#X connect 3 0 6 1;
#X connect 5 0 4 0;
#X connect 6 0 0 0;
#X connect 7 0 5 0;
#X restore 12 34 pd @hv_obj __lte~f;
#X connect 0 0 5 1;
#X connect 1 0 5 0;
#X connect 3 0 2 0;
#X connect 4 0 3 1;
#X connect 5 0 3 0;
#X restore 127 49 pd lte;
#X obj 12 152 +~;
#X obj 160 22 sig~ 0;
#X obj 147 125 *~;
#X obj 192 125 *~;
#X obj 132 152 -~;
#X obj 192 152 *~ -1;
#X connect 0 0 9 0;
#X connect 0 0 13 0;
#X connect 1 0 7 0;
#X connect 1 0 8 0;
#X connect 2 0 11 1;
#X connect 2 0 12 1;
#X connect 7 0 11 0;
#X connect 8 0 12 0;
#X connect 9 0 3 0;
#X connect 10 0 7 1;
#X connect 10 0 8 1;
#X connect 11 0 9 1;
#X connect 11 0 13 1;
#X connect 12 0 4 0;
#X connect 12 0 14 0;
#X connect 13 0 5 0;
#X connect 14 0 6 0;
#X restore 34 190 pd location;
#X obj 132 134 sqrt~;
#X obj 47 164 /~;
#X obj 252 203 inlet;
#X text 62 11 b0;
#X text 132 11 b1;
#X text 202 11 b2;
#X obj 202 31 inlet~;
#X obj 132 31 inlet~;
#X obj 62 31 inlet~;
#X text 252 183 clear;
#X connect 0 0 1 0;
#X connect 0 1 1 1;
#X connect 1 0 2 0;
#X connect 1 1 3 0;
#X connect 4 0 0 0;
#X connect 5 0 6 0;
#X connect 6 0 16 0;
#X connect 7 0 8 0;
#X connect 8 0 11 0;
#X connect 8 0 14 1;
#X connect 9 0 8 1;
#X connect 10 0 9 0;
#X connect 11 0 15 0;
#X connect 12 0 13 0;
#X connect 13 0 14 2;
#X connect 14 0 0 2;
#X connect 14 1 0 3;
#X connect 14 2 1 2;
#X connect 14 3 1 3;
#X connect 15 0 12 0;
#X connect 16 0 14 0;
#X connect 17 0 0 0;
#X connect 17 0 1 0;
#X connect 21 0 10 1;
#X connect 22 0 5 0;
#X connect 22 0 7 1;
#X connect 22 0 7 0;
#X connect 23 0 10 0;
#X connect 23 0 13 1;
#X connect 23 0 16 1;
#X restore 12 89 pd zeros;
#X obj 12 52 *~;
#N canvas 1083 390 288 282 poles 0;
#X obj 12 181 cpole~;
#X obj 12 228 cpole~;
#X obj 12 249 outlet~;
#X obj 12 31 inlet~;
#X obj 62 31 inlet~;
#N canvas 739 258 279 198 location 0;
#X obj 12 12 inlet~;
#X obj 127 12 inlet~;
#X obj 222 49 inlet~;
#X obj 12 155 outlet~;
#X obj 62 155 outlet~;
#X obj 112 155 outlet~;
#X obj 172 155 outlet~;
#N canvas 796 341 183 142 gte 0;
#X obj 117 12 inlet~;
#X obj 12 12 inlet~;
#X obj 12 100 outlet~;
#N canvas 679 326 140 75 @hv_obj 0;
#X obj 72 12 inlet~;
#X obj 12 12 inlet~;
#X obj 12 34 outlet~;
#X connect 1 0 2 0;
#X restore 12 78 pd @hv_obj __and~f;
#X obj 117 56 sig~ 1;
#N canvas 754 439 132 184 @hv_obj 0;
#X obj 12 56 -~;
#X obj 12 78 clip~ -1e-37 0;
#X obj 12 12 inlet~;
#X obj 62 12 inlet~;
#X obj 12 144 outlet~;
#X obj 12 122 *~ 1e+37;
#X obj 12 34 min~;
#X obj 12 100 +~ 1e-37;
#X connect 0 0 1 0;
#X connect 1 0 7 0;
#X connect 2 0 6 0;
#X connect 3 0 6 1;
#X connect 3 0 0 1;
#X connect 5 0 4 0;
#X connect 6 0 0 0;
#X connect 7 0 5 0;
#X restore 12 34 pd @hv_obj __gte~f;
#X connect 0 0 5 1;
#X connect 1 0 5 0;
#X connect 3 0 2 0;
#X connect 4 0 3 1;
#X connect 5 0 3 0;
#X restore 127 39 pd gte;
#N canvas 816 493 187 138 lte 0;
#X obj 117 12 inlet~;
#X obj 12 12 inlet~;
#X obj 12 100 outlet~;
#N canvas 467 216 142 76 @hv_obj 0;
#X obj 72 12 inlet~;
#X obj 12 12 inlet~;
#X obj 12 34 outlet~;
#X connect 1 0 2 0;
#X restore 12 78 pd @hv_obj __and~f;
#X obj 117 56 sig~ 1;
#N canvas 715 101 131 178 @hv_obj 0;
#X obj 12 56 -~;
#X obj 12 78 clip~ -1e-37 0;
#X obj 12 12 inlet~;
#X obj 62 12 inlet~;
#X obj 12 144 outlet~;
#X obj 12 122 *~ 1e+37;
#X obj 12 34 min~;
#X obj 12 100 +~ 1e-37;
#X connect 0 0 1 0;
#X connect 1 0 7 0;
#X connect 2 0 6 0;
#X connect 2 0 0 1;
#X connect 3 0 6 1;
#X connect 5 0 4 0;
#X connect 6 0 0 0;
#X connect 7 0 5 0;
#X restore 12 34 pd @hv_obj __lte~f;
#X connect 0 0 5 1;
#X connect 1 0 5 0;
#X connect 3 0 2 0;
#X connect 4 0 3 1;
#X connect 5 0 3 0;
#X restore 172 39 pd lte;
#X obj 12 83 +~;
#X obj 205 12 sig~ 0;
#X obj 127 66 *~;
#X obj 172 66 *~;
#X obj 112 133 -~;
#X obj 172 133 *~ -1;
#X connect 0 0 9 0;
#X connect 0 0 13 0;
#X connect 1 0 7 0;
#X connect 1 0 8 0;
#X connect 2 0 11 1;
#X connect 2 0 12 1;
#X connect 7 0 11 0;
#X connect 8 0 12 0;
#X connect 9 0 3 0;
#X connect 10 0 7 1;
#X connect 10 0 8 1;
#X connect 11 0 9 1;
#X connect 11 0 13 1;
#X connect 12 0 4 0;
#X connect 12 0 14 0;
#X connect 13 0 5 0;
#X connect 14 0 6 0;
#X restore 34 155 pd location;
#X obj 72 78 *~ 0.5;
#X obj 122 57 *~;
#X obj 122 78 +~;
#X obj 182 64 *~ 4;
#X obj 122 99 abs~;
#X obj 122 141 *~ 0.5;
#X obj 122 120 sqrt~;
#X obj 232 167 inlet;
#X text 182 11 a2;
#X text 122 11 a1;
#X obj 122 31 inlet~;
#X obj 182 31 inlet~;
#X text 232 147 clear;
#X connect 0 0 1 0;
#X connect 0 1 1 1;
#X connect 1 0 2 0;
#X connect 3 0 0 0;
#X connect 4 0 0 1;
#X connect 5 0 0 2;
#X connect 5 1 0 3;
#X connect 5 2 1 2;
#X connect 5 3 1 3;
#X connect 6 0 5 0;
#X connect 7 0 8 0;
#X connect 8 0 5 1;
#X connect 8 0 10 0;
#X connect 9 0 8 1;
#X connect 10 0 12 0;
#X connect 11 0 5 2;
#X connect 12 0 11 0;
#X connect 13 0 0 0;
#X connect 13 0 1 0;
#X connect 16 0 6 0;
#X connect 16 0 7 0;
#X connect 16 0 7 1;
#X connect 17 0 9 0;
#X restore 12 133 pd poles;
#X obj 12 159 outlet~;
#X obj 212 119 *~ -1;
#X obj 262 119 *~ -1;
#X obj 312 75 inlet;
#X obj 62 31 inlet~;
#X obj 112 31 inlet~;
#X obj 162 31 inlet~;
#X obj 212 31 inlet~;
#X obj 262 31 inlet~;
#X text 62 11 b0;
#X text 112 11 b1;
#X text 162 11 b2;
#X text 212 11 a1;
#X text 262 11 a2;
#X text 312 55 clear;
#X connect 0 0 2 0;
#X connect 1 0 3 0;
#X connect 1 1 3 1;
#X connect 2 0 1 0;
#X connect 3 0 4 0;
#X connect 5 0 3 2;
#X connect 6 0 3 3;
#X connect 7 0 1 4;
#X connect 7 0 3 4;
#X connect 8 0 2 1;
#X connect 8 0 1 1;
#X connect 9 0 1 2;
#X connect 10 0 1 3;
#X connect 11 0 5 0;
#X connect 12 0 6 0;
#X restore 46 98 pd @hv_obj biquad;
#X obj 12 31 inlet~;
#X obj 220 63 inlet;
#X msg 220 84 clear;
#X text 220 43 clear;
#X obj 62 31 inlet~;
#X obj 173 31 inlet~;
#X text 62 11 frequency;
#X text 173 11 q;
#X connect 0 0 2 1;
#X connect 0 1 2 2;
#X connect 0 2 2 3;
#X connect 0 3 2 4;
#X connect 0 4 2 5;
#X connect 2 0 1 0;
#X connect 3 0 2 0;
#X connect 4 0 5 0;
#X connect 5 0 2 6;
#X connect 7 0 0 0;
#X connect 8 0 0 1;
#X restore 716 273 pd bandpass~;
#X obj 743 201 r \$0-trg-snr;
#X obj 743 249 mtof;
#X msg 743 225 118;
#X msg 523 225 70;
#X obj 12 375 *~ 0.25;
#X msg 643 225 93;
#X msg 170 116 1 \, 0 67;
#X obj 299 359 *~;
#X obj 170 332 pow~ 4;
#X obj 560 249 sig~ 14;
#X obj 680 249 sig~ 4;
#X obj 616 297 *~ 0.3;
#X obj 247 163 r \$0-trg-snr;
#X obj 247 211 mtof;
#X msg 247 187 37;
#X obj 229 332 *~;
#X obj 230 308 pow~ 2;
#X obj 496 297 *~ 1;
#X obj 247 235 phasor~;
#X obj 247 283 cos~;
#X msg 293 211 0;
#X obj 247 259 -~ 0.25;
#X obj 293 187 r \$0-trg-snr;
#X obj 831 254 r \$0-trg-snr;
#X obj 387 377 sig~ 1;
#X obj 387 401 -~;
#X obj 405 298 sqrt~;
#X obj 405 322 *~ 2;
#X obj 405 346 clip~ 0 1;
#X obj 478 420 *~;
#X obj 229 356 /~ 2;
#X obj 780 249 sig~ 2;
#X obj 716 297 *~ 0.2;
#X obj 381 48 bng 19 250 50 0 empty empty empty 17 7 0 10 -262144 -1
-1;
#X obj 984 439 % 8;
#X obj 984 463 sel 0;
#X obj 984 540 s \$0-r-bng-snr;
#X obj 984 415 r \$0-clock;
#X obj 32 511 r \$0-metro;
#X obj 12 561 throw~ \$0-master;
#X obj 32 536 tabwrite~ \$0-snare;
#X obj 12 487 *~ 0.8;
#X obj 984 516 spigot;
#X obj 1013 492 r \$0-s-tgl-snr;
#X connect 0 0 1 0;
#X connect 1 0 2 0;
#X connect 2 0 17 0;
#X connect 3 0 12 0;
#X connect 4 0 10 0;
#X connect 5 0 6 0;
#X connect 5 1 26 0;
#X connect 6 0 25 0;
#X connect 7 0 8 0;
#X connect 8 0 20 1;
#X connect 9 0 8 0;
#X connect 10 0 56 0;
#X connect 11 0 3 1;
#X connect 12 0 4 0;
#X connect 13 0 16 0;
#X connect 13 0 59 0;
#X connect 13 0 60 0;
#X connect 13 0 68 0;
#X connect 13 0 78 0;
#X connect 14 0 15 0;
#X connect 15 0 17 1;
#X connect 16 0 30 0;
#X connect 17 0 3 0;
#X connect 18 0 19 0;
#X connect 19 0 20 0;
#X connect 20 0 93 0;
#X connect 21 0 29 0;
#X connect 22 0 11 0;
#X connect 23 0 58 0;
#X connect 24 0 9 0;
#X connect 27 0 85 0;
#X connect 28 0 7 0;
#X connect 29 0 0 0;
#X connect 30 0 15 1;
#X connect 31 0 32 0;
#X connect 32 0 33 0;
#X connect 33 0 34 0;
#X connect 33 0 48 0;
#X connect 33 0 51 0;
#X connect 34 0 69 0;
#X connect 35 0 36 0;
#X connect 35 1 42 0;
#X connect 36 0 41 0;
#X connect 37 0 38 0;
#X connect 37 1 39 0;
#X connect 38 0 43 1;
#X connect 39 0 40 0;
#X connect 40 0 38 1;
#X connect 41 0 37 0;
#X connect 42 0 37 0;
#X connect 43 0 45 0;
#X connect 44 0 35 0;
#X connect 45 0 59 1;
#X connect 45 0 81 1;
#X connect 46 0 55 0;
#X connect 47 0 34 1;
#X connect 48 0 63 0;
#X connect 49 0 57 0;
#X connect 50 0 48 1;
#X connect 51 0 84 0;
#X connect 52 0 54 0;
#X connect 53 0 51 1;
#X connect 54 0 53 0;
#X connect 55 0 47 0;
#X connect 56 0 18 0;
#X connect 57 0 50 0;
#X connect 58 0 13 0;
#X connect 59 0 18 0;
#X connect 60 0 10 1;
#X connect 61 0 34 2;
#X connect 62 0 48 2;
#X connect 63 0 43 0;
#X connect 64 0 66 0;
#X connect 65 0 70 0;
#X connect 66 0 65 0;
#X connect 67 0 82 0;
#X connect 68 0 67 0;
#X connect 69 0 43 0;
#X connect 70 0 73 0;
#X connect 71 0 67 1;
#X connect 72 0 70 1;
#X connect 73 0 71 0;
#X connect 74 0 72 0;
#X connect 75 0 51 3;
#X connect 75 0 48 3;
#X connect 75 0 34 3;
#X connect 76 0 77 0;
#X connect 77 0 81 0;
#X connect 78 0 79 0;
#X connect 79 0 80 0;
#X connect 80 0 77 1;
#X connect 81 0 19 0;
#X connect 82 0 56 0;
#X connect 83 0 51 2;
#X connect 84 0 43 0;
#X connect 85 0 5 0;
#X connect 86 0 87 0;
#X connect 87 0 94 0;
#X connect 89 0 86 0;
#X connect 90 0 92 0;
#X connect 93 0 92 0;
#X connect 93 0 91 0;
#X connect 94 0 88 0;
#X connect 95 0 94 1;
#X restore 314 123 pd snare;
#N canvas 509 396 1082 546 pip 0;
#X obj 649 220 r \$0-s-bng-pip;
#X obj 649 268 vline~;
#X obj 381 143 r \$0-s-bng-pip;
#X msg 381 167 seed 14312;
#X obj 381 191 noise~;
#X obj 503 32 r \$0-s-bng-pip;
#X floatatom 503 150 5 0 0 0 - - -;
#X obj 503 173 mtof;
#X floatatom 503 197 5 0 0 0 - - -;
#X msg 503 126 81;
#X obj 381 263 expr~ tanh($v1);
#X obj 381 287 *~;
#X obj 251 165 r \$0-s-bng-pip;
#X msg 251 189 clear;
#X obj 381 311 *~ 0.5;
#X floatatom 583 150 5 0 0 0 - - -;
#X obj 583 173 mtof;
#X floatatom 583 197 5 0 0 0 - - -;
#X msg 583 126 84;
#X obj 503 80 sel 0 1;
#X obj 381 239 *~ 10;
#X msg 649 244 1 1 \, 0 0 38 1;
#X obj 503 244 *~ 0.5;
#X obj 381 215 bp~ \$2 10;
#X obj 503 220 osc~;
#X obj 556 63 tgl 15 0 empty empty empty 17 7 0 10 -262144 -1 -1 0
1;
#X obj 401 336 r \$0-metro;
#X obj 401 361 tabwrite~ \$0-pip;
#X obj 381 386 throw~ \$0-master;
#X obj 688 76 + 1;
#X obj 688 100 sel 11 15;
#X obj 688 52 % 32;
#X obj 688 174 s \$0-r-bng-pip;
#X obj 688 28 r \$0-clock;
#X obj 688 148 spigot;
#X obj 717 124 r \$0-s-tgl-pip;
#X connect 0 0 21 0;
#X connect 1 0 11 1;
#X connect 2 0 3 0;
#X connect 3 0 4 0;
#X connect 4 0 23 0;
#X connect 5 0 25 0;
#X connect 6 0 7 0;
#X connect 7 0 8 0;
#X connect 8 0 23 1;
#X connect 8 0 24 0;
#X connect 9 0 6 0;
#X connect 10 0 11 0;
#X connect 11 0 14 0;
#X connect 12 0 13 0;
#X connect 13 0 23 0;
#X connect 14 0 27 0;
#X connect 14 0 28 0;
#X connect 15 0 16 0;
#X connect 16 0 17 0;
#X connect 17 0 23 1;
#X connect 17 0 24 0;
#X connect 18 0 15 0;
#X connect 19 0 18 0;
#X connect 19 1 9 0;
#X connect 20 0 10 0;
#X connect 21 0 1 0;
#X connect 22 0 10 0;
#X connect 23 0 20 0;
#X connect 24 0 22 0;
#X connect 25 0 19 0;
#X connect 26 0 27 0;
#X connect 29 0 30 0;
#X connect 30 0 34 0;
#X connect 30 1 34 0;
#X connect 31 0 29 0;
#X connect 33 0 31 0;
#X connect 34 0 32 0;
#X connect 35 0 34 1;
#X restore 314 148 pd pip;
#N canvas 581 441 978 607 kick-2 0;
#X floatatom 12 76 5 0 0 0 - - -;
#X obj 12 99 mtof;
#X floatatom 12 123 5 0 0 0 - - -;
#X obj 12 204 phasor~;
#X obj 12 252 cos~;
#X obj 381 48 t b b;
#X obj 381 96 del 2;
#X msg 292 420 0 1;
#X obj 292 444 line~;
#X msg 322 420 1 0;
#X obj 12 319 +~;
#X obj 12 367 *~;
#X msg 58 180 0;
#X obj 12 228 -~ 0.25;
#X obj 247 84 line~;
#X obj 59 103 sig~ 2;
#X obj 59 127 pow~;
#X msg 12 52 28;
#X obj 12 146 *~;
#X obj 12 391 +~;
#X obj 12 343 /~ 2;
#X obj 12 439 expr~ tanh($v1);
#X obj 12 463 *~;
#X msg 247 60 1 \, 0 70;
#X obj 247 36 r \$0-trg-kik-2;
#X obj 12 28 r \$0-trg-kik-2;
#X obj 292 372 r \$0-rst-kik-2;
#X obj 322 396 r \$0-trg-kik-2;
#X obj 381 120 s \$0-trg-kik-2;
#X obj 413 72 s \$0-rst-kik-2;
#X obj 381 24 r \$0-s-bng-kik-2;
#X obj 58 156 r \$0-trg-kik-2;
#X obj 187 108 pow~ 1;
#X obj 247 348 pow~ 3;
#X obj 186 133 *~ 4;
#X obj 623 192 sel 0;
#X obj 591 240 random 101;
#X obj 591 288 sel 1;
#X msg 561 211 1;
#X obj 591 168 t b f;
#X msg 623 216 seed 562;
#X obj 591 264 < 10;
#X obj 441 283 sel 1;
#X obj 591 144 % 32;
#X obj 441 377 s \$0-r-bng-low;
#X obj 591 372 s \$0-r-bng-kik-2;
#X obj 591 120 r \$0-clock;
#X obj 32 512 r \$0-metro;
#X obj 12 562 throw~ \$0-master;
#X obj 32 537 tabwrite~ \$0-kick-2;
#X obj 441 259 > 90;
#X obj 12 415 *~ 1.5;
#X obj 12 487 *~ 0.8;
#X obj 591 341 spigot;
#X obj 620 317 r \$0-s-tgl-kik-2;
#X obj 441 336 spigot;
#X obj 470 312 r \$0-s-tgl-low;
#X connect 0 0 1 0;
#X connect 1 0 2 0;
#X connect 2 0 18 0;
#X connect 3 0 13 0;
#X connect 4 0 10 0;
#X connect 5 0 6 0;
#X connect 5 1 29 0;
#X connect 6 0 28 0;
#X connect 7 0 8 0;
#X connect 8 0 22 1;
#X connect 9 0 8 0;
#X connect 10 0 20 0;
#X connect 11 0 19 0;
#X connect 12 0 3 1;
#X connect 13 0 4 0;
#X connect 14 0 32 0;
#X connect 14 0 33 0;
#X connect 15 0 16 0;
#X connect 16 0 18 1;
#X connect 17 0 0 0;
#X connect 18 0 3 0;
#X connect 19 0 51 0;
#X connect 20 0 11 0;
#X connect 21 0 22 0;
#X connect 22 0 52 0;
#X connect 23 0 14 0;
#X connect 24 0 23 0;
#X connect 25 0 17 0;
#X connect 26 0 7 0;
#X connect 27 0 9 0;
#X connect 30 0 5 0;
#X connect 31 0 12 0;
#X connect 32 0 34 0;
#X connect 33 0 11 1;
#X connect 34 0 16 1;
#X connect 35 0 38 0;
#X connect 35 0 40 0;
#X connect 36 0 41 0;
#X connect 36 0 50 0;
#X connect 37 0 53 0;
#X connect 38 0 37 0;
#X connect 39 0 36 0;
#X connect 40 0 36 0;
#X connect 41 0 37 0;
#X connect 42 0 55 0;
#X connect 43 0 39 0;
#X connect 46 0 43 0;
#X connect 47 0 49 0;
#X connect 50 0 42 0;
#X connect 51 0 21 0;
#X connect 52 0 48 0;
#X connect 52 0 49 0;
#X connect 53 0 45 0;
#X connect 54 0 53 1;
#X connect 55 0 44 0;
#X connect 56 0 55 1;
#X restore 314 172 pd kick-2;
#N canvas 581 441 303 455 low 0;
#X obj 22 161 vline~;
#X obj 22 209 clip~ 0 1;
#X obj 134 70 noise~;
#X obj 22 233 *~;
#X msg 134 46 seed 15;
#X obj 134 22 r \$0-s-bng-low;
#X obj 22 113 r \$0-s-bng-low;
#N canvas 0 23 450 300 lowpass~ 0;
#N canvas 1006 332 706 367 lowpass.coeffs 0;
#X obj 12 45 inlet~ freq;
#X obj 288 50 inlet~ q;
#X obj 12 67 clip~ 20 20000;
#X obj 273 94 sig~ 1;
#X obj 273 116 /~;
#X obj 273 138 *~;
#X obj 273 160 *~ 0.5;
#X obj 12 261 sig~ 1;
#X obj 12 283 /~;
#X obj 122 297 *~;
#X obj 137 275 *~ 0.5;
#X obj 122 319 outlet~ b0;
#X obj 192 297 *~;
#X obj 192 319 outlet~ b1;
#X obj 262 297 *~;
#X obj 262 319 outlet~ b2;
#X obj 332 297 *~;
#X obj 347 253 *~ -2;
#X obj 332 319 outlet~ a1;
#X obj 417 231 sig~ 1;
#X obj 417 253 -~;
#X obj 402 297 *~;
#X obj 402 319 outlet~ a2;
#X obj 57 266 +~ 1;
#X text 363 162 w0 = 2*pi*f0*Fs;
#X text 363 182 alpha = sin(w0)/(2*Q);
#X text 527 237 a2 = 1 - alpha;
#X text 527 217 a1 = -2*cos(w0);
#X text 392 72 H(z) = -----------------------------------------;
#X text 392 32 Audio-Cookbook:;
#X text 392 112 http://musicdsp.org/files/Audio-EQ-Cookbook.txt;
#X obj 137 231 sig~ 1;
#X obj 137 253 -~;
#X obj 207 231 sig~ 1;
#X obj 207 253 -~;
#X obj 277 275 *~ 0.5;
#X obj 277 231 sig~ 1;
#X obj 277 253 -~;
#X text 434 87 1 + (a1/a0)*z^(-1) + (a2/a0)*z^(-2);
#X text 434 57 (b0/a0) + (b1/a0)*z^(-1) + (b2/a0)*z^(-2);
#X text 527 197 a0 = 1 + alpha;
#X text 527 257 b0 = (1 - cos(w0))/2;
#X text 527 277 b1 = (1 - cos(w0));
#X text 527 297 b2 = (1 - cos(w0))/2;
#X text 517 177 LPF:;
#X obj 12 88 /~ 44100;
#X obj 105 53 loadbang;
#X obj 105 74 samplerate~;
#X obj 12 110 *~ 6.28319;
#X obj 117 124 expr~ sin($v1);
#X obj 12 239 expr~ cos($v1);
#X obj 288 72 max~ 0.1;
#X connect 0 0 2 0;
#X connect 1 0 51 0;
#X connect 2 0 45 0;
#X connect 3 0 4 0;
#X connect 4 0 5 0;
#X connect 5 0 6 0;
#X connect 6 0 20 1;
#X connect 6 0 23 0;
#X connect 7 0 8 0;
#X connect 8 0 9 0;
#X connect 8 0 12 0;
#X connect 8 0 14 0;
#X connect 8 0 16 0;
#X connect 8 0 21 0;
#X connect 9 0 11 0;
#X connect 10 0 9 1;
#X connect 12 0 13 0;
#X connect 14 0 15 0;
#X connect 16 0 18 0;
#X connect 17 0 16 1;
#X connect 19 0 20 0;
#X connect 20 0 21 1;
#X connect 21 0 22 0;
#X connect 23 0 8 1;
#X connect 31 0 32 0;
#X connect 32 0 10 0;
#X connect 33 0 34 0;
#X connect 34 0 12 1;
#X connect 35 0 14 1;
#X connect 36 0 37 0;
#X connect 37 0 35 0;
#X connect 45 0 48 0;
#X connect 46 0 47 0;
#X connect 47 0 45 1;
#X connect 48 0 49 0;
#X connect 48 0 50 0;
#X connect 49 0 5 1;
#X connect 50 0 32 1;
#X connect 50 0 34 1;
#X connect 50 0 37 1;
#X connect 50 0 17 0;
#X connect 51 0 4 1;
#X restore 62 52 pd lowpass.coeffs;
#X obj 46 120 outlet~;
#N canvas 776 547 365 190 @hv_obj 0;
#X obj 12 31 inlet~;
#N canvas 1097 522 303 331 zeros 0;
#X obj 12 217 czero~;
#X obj 12 273 czero~;
#X obj 12 299 outlet~;
#X obj 75 299 outlet~;
#X obj 12 31 inlet~;
#X obj 47 122 *~ -1;
#X obj 47 143 *~ 0.5;
#X obj 132 58 *~;
#X obj 132 92 -~;
#X obj 187 78 *~ 4;
#X obj 187 57 *~;
#X obj 132 113 abs~;
#X obj 132 155 *~ 0.5;
#X obj 132 176 /~;
#N canvas 773 235 262 212 location 0;
#X obj 12 12 inlet~;
#X obj 62 12 inlet~;
#X obj 207 12 inlet~;
#X obj 12 174 outlet~;
#X obj 72 174 outlet~;
#X obj 132 174 outlet~;
#X obj 192 174 outlet~;
#N canvas 725 189 180 137 gte 0;
#X obj 117 12 inlet~;
#X obj 12 12 inlet~;
#X obj 12 100 outlet~;
#N canvas 758 270 144 76 @hv_obj 0;
#X obj 62 12 inlet~;
#X obj 12 12 inlet~;
#X obj 12 34 outlet~;
#X connect 1 0 2 0;
#X restore 12 78 pd @hv_obj __and~f;
#X obj 117 56 sig~ 1;
#N canvas 945 362 136 178 @hv_obj 0;
#X obj 12 56 -~;
#X obj 12 78 clip~ -1e-37 0;
#X obj 12 12 inlet~;
#X obj 62 12 inlet~;
#X obj 12 144 outlet~;
#X obj 12 122 *~ 1e+37;
#X obj 12 34 min~;
#X obj 12 100 +~ 1e-37;
#X connect 0 0 1 0;
#X connect 1 0 7 0;
#X connect 2 0 6 0;
#X connect 3 0 6 1;
#X connect 3 0 0 1;
#X connect 5 0 4 0;
#X connect 6 0 0 0;
#X connect 7 0 5 0;
#X restore 12 34 pd @hv_obj __gte~f;
#X connect 0 0 5 1;
#X connect 1 0 5 0;
#X connect 3 0 2 0;
#X connect 4 0 3 1;
#X connect 5 0 3 0;
#X restore 62 49 pd gte;
#N canvas 845 375 187 138 lte 0;
#X obj 117 12 inlet~;
#X obj 12 12 inlet~;
#X obj 12 100 outlet~;
#N canvas 467 216 140 82 @hv_obj 0;
#X obj 72 12 inlet~;
#X obj 12 12 inlet~;
#X obj 12 39 outlet~;
#X connect 1 0 2 0;
#X restore 12 78 pd @hv_obj __and~f;
#X obj 117 56 sig~ 1;
#N canvas 715 101 137 184 @hv_obj 0;
#X obj 12 56 -~;
#X obj 12 78 clip~ -1e-37 0;
#X obj 12 12 inlet~;
#X obj 62 12 inlet~;
#X obj 12 144 outlet~;
#X obj 12 122 *~ 1e+37;
#X obj 12 34 min~;
#X obj 12 100 +~ 1e-37;
#X connect 0 0 1 0;
#X connect 1 0 7 0;
#X connect 2 0 6 0;
#X connect 2 0 0 1;
#X connect 3 0 6 1;
#X connect 5 0 4 0;
#X connect 6 0 0 0;
#X connect 7 0 5 0;
#X restore 12 34 pd @hv_obj __lte~f;
#X connect 0 0 5 1;
#X connect 1 0 5 0;
#X connect 3 0 2 0;
#X connect 4 0 3 1;
#X connect 5 0 3 0;
#X restore 127 49 pd lte;
#X obj 12 152 +~;
#X obj 160 22 sig~ 0;
#X obj 147 125 *~;
#X obj 192 125 *~;
#X obj 132 152 -~;
#X obj 192 152 *~ -1;
#X connect 0 0 9 0;
#X connect 0 0 13 0;
#X connect 1 0 7 0;
#X connect 1 0 8 0;
#X connect 2 0 11 1;
#X connect 2 0 12 1;
#X connect 7 0 11 0;
#X connect 8 0 12 0;
#X connect 9 0 3 0;
#X connect 10 0 7 1;
#X connect 10 0 8 1;
#X connect 11 0 9 1;
#X connect 11 0 13 1;
#X connect 12 0 4 0;
#X connect 12 0 14 0;
#X connect 13 0 5 0;
#X connect 14 0 6 0;
#X restore 34 190 pd location;
#X obj 132 134 sqrt~;
#X obj 47 164 /~;
#X obj 252 203 inlet;
#X text 62 11 b0;
#X text 132 11 b1;
#X text 202 11 b2;
#X obj 202 31 inlet~;
#X obj 132 31 inlet~;
#X obj 62 31 inlet~;
#X text 252 183 clear;
#X connect 0 0 1 0;
#X connect 0 1 1 1;
#X connect 1 0 2 0;
#X connect 1 1 3 0;
#X connect 4 0 0 0;
#X connect 5 0 6 0;
#X connect 6 0 16 0;
#X connect 7 0 8 0;
#X connect 8 0 11 0;
#X connect 8 0 14 1;
#X connect 9 0 8 1;
#X connect 10 0 9 0;
#X connect 11 0 15 0;
#X connect 12 0 13 0;
#X connect 13 0 14 2;
#X connect 14 0 0 2;
#X connect 14 1 0 3;
#X connect 14 2 1 2;
#X connect 14 3 1 3;
#X connect 15 0 12 0;
#X connect 16 0 14 0;
#X connect 17 0 0 0;
#X connect 17 0 1 0;
#X connect 21 0 10 1;
#X connect 22 0 5 0;
#X connect 22 0 7 1;
#X connect 22 0 7 0;
#X connect 23 0 10 0;
#X connect 23 0 13 1;
#X connect 23 0 16 1;
#X restore 12 89 pd zeros;
#X obj 12 52 *~;
#N canvas 1083 390 288 282 poles 0;
#X obj 12 181 cpole~;
#X obj 12 228 cpole~;
#X obj 12 249 outlet~;
#X obj 12 31 inlet~;
#X obj 62 31 inlet~;
#N canvas 739 258 279 198 location 0;
#X obj 12 12 inlet~;
#X obj 127 12 inlet~;
#X obj 222 49 inlet~;
#X obj 12 155 outlet~;
#X obj 62 155 outlet~;
#X obj 112 155 outlet~;
#X obj 172 155 outlet~;
#N canvas 796 341 183 142 gte 0;
#X obj 117 12 inlet~;
#X obj 12 12 inlet~;
#X obj 12 100 outlet~;
#N canvas 679 326 140 75 @hv_obj 0;
#X obj 72 12 inlet~;
#X obj 12 12 inlet~;
#X obj 12 34 outlet~;
#X connect 1 0 2 0;
#X restore 12 78 pd @hv_obj __and~f;
#X obj 117 56 sig~ 1;
#N canvas 754 439 132 184 @hv_obj 0;
#X obj 12 56 -~;
#X obj 12 78 clip~ -1e-37 0;
#X obj 12 12 inlet~;
#X obj 62 12 inlet~;
#X obj 12 144 outlet~;
#X obj 12 122 *~ 1e+37;
#X obj 12 34 min~;
#X obj 12 100 +~ 1e-37;
#X connect 0 0 1 0;
#X connect 1 0 7 0;
#X connect 2 0 6 0;
#X connect 3 0 6 1;
#X connect 3 0 0 1;
#X connect 5 0 4 0;
#X connect 6 0 0 0;
#X connect 7 0 5 0;
#X restore 12 34 pd @hv_obj __gte~f;
#X connect 0 0 5 1;
#X connect 1 0 5 0;
#X connect 3 0 2 0;
#X connect 4 0 3 1;
#X connect 5 0 3 0;
#X restore 127 39 pd gte;
#N canvas 816 493 187 138 lte 0;
#X obj 117 12 inlet~;
#X obj 12 12 inlet~;
#X obj 12 100 outlet~;
#N canvas 467 216 142 76 @hv_obj 0;
#X obj 72 12 inlet~;
#X obj 12 12 inlet~;
#X obj 12 34 outlet~;
#X connect 1 0 2 0;
#X restore 12 78 pd @hv_obj __and~f;
#X obj 117 56 sig~ 1;
#N canvas 715 101 131 178 @hv_obj 0;
#X obj 12 56 -~;
#X obj 12 78 clip~ -1e-37 0;
#X obj 12 12 inlet~;
#X obj 62 12 inlet~;
#X obj 12 144 outlet~;
#X obj 12 122 *~ 1e+37;
#X obj 12 34 min~;
#X obj 12 100 +~ 1e-37;
#X connect 0 0 1 0;
#X connect 1 0 7 0;
#X connect 2 0 6 0;
#X connect 2 0 0 1;
#X connect 3 0 6 1;
#X connect 5 0 4 0;
#X connect 6 0 0 0;
#X connect 7 0 5 0;
#X restore 12 34 pd @hv_obj __lte~f;
#X connect 0 0 5 1;
#X connect 1 0 5 0;
#X connect 3 0 2 0;
#X connect 4 0 3 1;
#X connect 5 0 3 0;
#X restore 172 39 pd lte;
#X obj 12 83 +~;
#X obj 205 12 sig~ 0;
#X obj 127 66 *~;
#X obj 172 66 *~;
#X obj 112 133 -~;
#X obj 172 133 *~ -1;
#X connect 0 0 9 0;
#X connect 0 0 13 0;
#X connect 1 0 7 0;
#X connect 1 0 8 0;
#X connect 2 0 11 1;
#X connect 2 0 12 1;
#X connect 7 0 11 0;
#X connect 8 0 12 0;
#X connect 9 0 3 0;
#X connect 10 0 7 1;
#X connect 10 0 8 1;
#X connect 11 0 9 1;
#X connect 11 0 13 1;
#X connect 12 0 4 0;
#X connect 12 0 14 0;
#X connect 13 0 5 0;
#X connect 14 0 6 0;
#X restore 34 155 pd location;
#X obj 72 78 *~ 0.5;
#X obj 122 57 *~;
#X obj 122 78 +~;
#X obj 182 64 *~ 4;
#X obj 122 99 abs~;
#X obj 122 141 *~ 0.5;
#X obj 122 120 sqrt~;
#X obj 232 167 inlet;
#X text 182 11 a2;
#X text 122 11 a1;
#X obj 122 31 inlet~;
#X obj 182 31 inlet~;
#X text 232 147 clear;
#X connect 0 0 1 0;
#X connect 0 1 1 1;
#X connect 1 0 2 0;
#X connect 3 0 0 0;
#X connect 4 0 0 1;
#X connect 5 0 0 2;
#X connect 5 1 0 3;
#X connect 5 2 1 2;
#X connect 5 3 1 3;
#X connect 6 0 5 0;
#X connect 7 0 8 0;
#X connect 8 0 5 1;
#X connect 8 0 10 0;
#X connect 9 0 8 1;
#X connect 10 0 12 0;
#X connect 11 0 5 2;
#X connect 12 0 11 0;
#X connect 13 0 0 0;
#X connect 13 0 1 0;
#X connect 16 0 6 0;
#X connect 16 0 7 0;
#X connect 16 0 7 1;
#X connect 17 0 9 0;
#X restore 12 133 pd poles;
#X obj 12 159 outlet~;
#X obj 212 119 *~ -1;
#X obj 262 119 *~ -1;
#X obj 312 75 inlet;
#X obj 62 31 inlet~;
#X obj 112 31 inlet~;
#X obj 162 31 inlet~;
#X obj 212 31 inlet~;
#X obj 262 31 inlet~;
#X text 62 11 b0;
#X text 112 11 b1;
#X text 162 11 b2;
#X text 212 11 a1;
#X text 262 11 a2;
#X text 312 55 clear;
#X connect 0 0 2 0;
#X connect 1 0 3 0;
#X connect 1 1 3 1;
#X connect 2 0 1 0;
#X connect 3 0 4 0;
#X connect 5 0 3 2;
#X connect 6 0 3 3;
#X connect 7 0 1 4;
#X connect 7 0 3 4;
#X connect 8 0 2 1;
#X connect 8 0 1 1;
#X connect 9 0 1 2;
#X connect 10 0 1 3;
#X connect 11 0 5 0;
#X connect 12 0 6 0;
#X restore 46 99 pd @hv_obj biquad;
#X obj 12 31 inlet~;
#X obj 173 31 inlet~;
#X obj 62 31 inlet~;
#X obj 220 64 inlet;
#X msg 220 85 clear;
#X text 62 11 frequency;
#X text 173 11 q;
#X text 220 44 clear;
#X connect 0 0 2 1;
#X connect 0 1 2 2;
#X connect 0 2 2 3;
#X connect 0 3 2 4;
#X connect 0 4 2 5;
#X connect 2 0 1 0;
#X connect 3 0 2 0;
#X connect 4 0 0 1;
#X connect 5 0 0 0;
#X connect 6 0 7 0;
#X connect 7 0 2 6;
#X restore 134 142 pd lowpass~;
#X obj 158 94 sig~ 267;
#X obj 134 190 expr~ tanh($v1);
#N canvas 0 23 450 300 highpass~ 0;
#N canvas 200 23 682 315 highpass.coeffs 0;
#X obj 12 46 clip~ 20 20000;
#X obj 283 51 clip~ 0.1 100;
#X obj 268 73 sig~ 1;
#X obj 268 95 /~;
#X obj 268 117 *~;
#X obj 268 139 *~ 0.5;
#X obj 12 215 sig~ 1;
#X obj 12 237 /~;
#X obj 122 254 *~;
#X obj 137 200 +~ 1;
#X obj 137 232 *~ 0.5;
#X obj 122 276 outlet~ b0;
#X obj 192 254 *~;
#X obj 207 200 +~ 1;
#X obj 192 276 outlet~ b1;
#X obj 207 232 *~ -1;
#X obj 262 254 *~;
#X obj 277 200 +~ 1;
#X obj 277 232 *~ 0.5;
#X obj 262 276 outlet~ b2;
#X obj 332 254 *~;
#X obj 347 200 *~ -2;
#X obj 332 276 outlet~ a1;
#X obj 417 210 sig~ 1;
#X obj 417 232 -~;
#X obj 402 254 *~;
#X obj 402 276 outlet~ a2;
#X obj 57 220 +~ 1;
#X text 348 141 w0 = 2*pi*f0*Fs;
#X text 348 161 alpha = sin(w0)/(2*Q);
#X text 512 176 a0 = 1 + alpha;
#X text 512 216 a2 = 1 - alpha;
#X text 512 196 a1 = -2*cos(w0);
#X text 512 256 b1 = -(1 + cos(w0));
#X text 512 236 b0 = (1 + cos(w0))/2;
#X text 502 156 HPF:;
#X text 512 276 b2 = (1 + cos(w0))/2;
#X text 419 36 (b0/a0) + (b1/a0)*z^(-1) + (b2/a0)*z^(-2);
#X text 377 51 H(z) = -----------------------------------------;
#X text 419 66 1 + (a1/a0)*z^(-1) + (a2/a0)*z^(-2);
#X text 377 11 Audio-Cookbook:;
#X text 377 91 http://musicdsp.org/files/Audio-EQ-Cookbook.txt;
#X obj 12 24 inlet~;
#X obj 283 29 inlet~;
#X obj 12 89 *~ 6.28319;
#X obj 12 67 /~ 44100;
#X obj 105 32 loadbang;
#X obj 105 53 samplerate~;
#X obj 122 103 expr~ sin($v1);
#X obj 12 186 expr~ cos($v1);
#X connect 0 0 45 0;
#X connect 1 0 3 1;
#X connect 2 0 3 0;
#X connect 3 0 4 0;
#X connect 4 0 5 0;
#X connect 5 0 24 1;
#X connect 5 0 27 0;
#X connect 6 0 7 0;
#X connect 7 0 8 0;
#X connect 7 0 12 0;
#X connect 7 0 16 0;
#X connect 7 0 20 0;
#X connect 7 0 25 0;
#X connect 8 0 11 0;
#X connect 9 0 10 0;
#X connect 10 0 8 1;
#X connect 12 0 14 0;
#X connect 13 0 15 0;
#X connect 15 0 12 1;
#X connect 16 0 19 0;
#X connect 17 0 18 0;
#X connect 18 0 16 1;
#X connect 20 0 22 0;
#X connect 21 0 20 1;
#X connect 23 0 24 0;
#X connect 24 0 25 1;
#X connect 25 0 26 0;
#X connect 27 0 7 1;
#X connect 42 0 0 0;
#X connect 43 0 1 0;
#X connect 44 0 48 0;
#X connect 44 0 49 0;
#X connect 45 0 44 0;
#X connect 46 0 47 0;
#X connect 47 0 45 1;
#X connect 48 0 4 1;
#X connect 49 0 9 0;
#X connect 49 0 13 0;
#X connect 49 0 17 0;
#X connect 49 0 21 0;
#X restore 62 52 pd highpass.coeffs;
#X obj 46 109 outlet~;
#N canvas 776 547 365 190 @hv_obj 0;
#X obj 12 31 inlet~;
#N canvas 1097 522 303 331 zeros 0;
#X obj 12 217 czero~;
#X obj 12 273 czero~;
#X obj 12 299 outlet~;
#X obj 75 299 outlet~;
#X obj 12 31 inlet~;
#X obj 47 122 *~ -1;
#X obj 47 143 *~ 0.5;
#X obj 132 58 *~;
#X obj 132 92 -~;
#X obj 187 78 *~ 4;
#X obj 187 57 *~;
#X obj 132 113 abs~;
#X obj 132 155 *~ 0.5;
#X obj 132 176 /~;
#N canvas 773 235 262 212 location 0;
#X obj 12 12 inlet~;
#X obj 62 12 inlet~;
#X obj 207 12 inlet~;
#X obj 12 174 outlet~;
#X obj 72 174 outlet~;
#X obj 132 174 outlet~;
#X obj 192 174 outlet~;
#N canvas 725 189 180 137 gte 0;
#X obj 117 12 inlet~;
#X obj 12 12 inlet~;
#X obj 12 100 outlet~;
#N canvas 758 270 144 76 @hv_obj 0;
#X obj 62 12 inlet~;
#X obj 12 12 inlet~;
#X obj 12 34 outlet~;
#X connect 1 0 2 0;
#X restore 12 78 pd @hv_obj __and~f;
#X obj 117 56 sig~ 1;
#N canvas 945 362 136 178 @hv_obj 0;
#X obj 12 56 -~;
#X obj 12 78 clip~ -1e-37 0;
#X obj 12 12 inlet~;
#X obj 62 12 inlet~;
#X obj 12 144 outlet~;
#X obj 12 122 *~ 1e+37;
#X obj 12 34 min~;
#X obj 12 100 +~ 1e-37;
#X connect 0 0 1 0;
#X connect 1 0 7 0;
#X connect 2 0 6 0;
#X connect 3 0 6 1;
#X connect 3 0 0 1;
#X connect 5 0 4 0;
#X connect 6 0 0 0;
#X connect 7 0 5 0;
#X restore 12 34 pd @hv_obj __gte~f;
#X connect 0 0 5 1;
#X connect 1 0 5 0;
#X connect 3 0 2 0;
#X connect 4 0 3 1;
#X connect 5 0 3 0;
#X restore 62 49 pd gte;
#N canvas 845 375 187 138 lte 0;
#X obj 117 12 inlet~;
#X obj 12 12 inlet~;
#X obj 12 100 outlet~;
#N canvas 467 216 140 82 @hv_obj 0;
#X obj 72 12 inlet~;
#X obj 12 12 inlet~;
#X obj 12 39 outlet~;
#X connect 1 0 2 0;
#X restore 12 78 pd @hv_obj __and~f;
#X obj 117 56 sig~ 1;
#N canvas 715 101 137 184 @hv_obj 0;
#X obj 12 56 -~;
#X obj 12 78 clip~ -1e-37 0;
#X obj 12 12 inlet~;
#X obj 62 12 inlet~;
#X obj 12 144 outlet~;
#X obj 12 122 *~ 1e+37;
#X obj 12 34 min~;
#X obj 12 100 +~ 1e-37;
#X connect 0 0 1 0;
#X connect 1 0 7 0;
#X connect 2 0 6 0;
#X connect 2 0 0 1;
#X connect 3 0 6 1;
#X connect 5 0 4 0;
#X connect 6 0 0 0;
#X connect 7 0 5 0;
#X restore 12 34 pd @hv_obj __lte~f;
#X connect 0 0 5 1;
#X connect 1 0 5 0;
#X connect 3 0 2 0;
#X connect 4 0 3 1;
#X connect 5 0 3 0;
#X restore 127 49 pd lte;
#X obj 12 152 +~;
#X obj 160 22 sig~ 0;
#X obj 147 125 *~;
#X obj 192 125 *~;
#X obj 132 152 -~;
#X obj 192 152 *~ -1;
#X connect 0 0 9 0;
#X connect 0 0 13 0;
#X connect 1 0 7 0;
#X connect 1 0 8 0;
#X connect 2 0 11 1;
#X connect 2 0 12 1;
#X connect 7 0 11 0;
#X connect 8 0 12 0;
#X connect 9 0 3 0;
#X connect 10 0 7 1;
#X connect 10 0 8 1;
#X connect 11 0 9 1;
#X connect 11 0 13 1;
#X connect 12 0 4 0;
#X connect 12 0 14 0;
#X connect 13 0 5 0;
#X connect 14 0 6 0;
#X restore 34 190 pd location;
#X obj 132 134 sqrt~;
#X obj 47 164 /~;
#X obj 252 203 inlet;
#X text 62 11 b0;
#X text 132 11 b1;
#X text 202 11 b2;
#X obj 202 31 inlet~;
#X obj 132 31 inlet~;
#X obj 62 31 inlet~;
#X text 252 183 clear;
#X connect 0 0 1 0;
#X connect 0 1 1 1;
#X connect 1 0 2 0;
#X connect 1 1 3 0;
#X connect 4 0 0 0;
#X connect 5 0 6 0;
#X connect 6 0 16 0;
#X connect 7 0 8 0;
#X connect 8 0 11 0;
#X connect 8 0 14 1;
#X connect 9 0 8 1;
#X connect 10 0 9 0;
#X connect 11 0 15 0;
#X connect 12 0 13 0;
#X connect 13 0 14 2;
#X connect 14 0 0 2;
#X connect 14 1 0 3;
#X connect 14 2 1 2;
#X connect 14 3 1 3;
#X connect 15 0 12 0;
#X connect 16 0 14 0;
#X connect 17 0 0 0;
#X connect 17 0 1 0;
#X connect 21 0 10 1;
#X connect 22 0 5 0;
#X connect 22 0 7 1;
#X connect 22 0 7 0;
#X connect 23 0 10 0;
#X connect 23 0 13 1;
#X connect 23 0 16 1;
#X restore 12 89 pd zeros;
#X obj 12 52 *~;
#N canvas 1083 390 288 282 poles 0;
#X obj 12 181 cpole~;
#X obj 12 228 cpole~;
#X obj 12 249 outlet~;
#X obj 12 31 inlet~;
#X obj 62 31 inlet~;
#N canvas 739 258 279 198 location 0;
#X obj 12 12 inlet~;
#X obj 127 12 inlet~;
#X obj 222 49 inlet~;
#X obj 12 155 outlet~;
#X obj 62 155 outlet~;
#X obj 112 155 outlet~;
#X obj 172 155 outlet~;
#N canvas 796 341 183 142 gte 0;
#X obj 117 12 inlet~;
#X obj 12 12 inlet~;
#X obj 12 100 outlet~;
#N canvas 679 326 140 75 @hv_obj 0;
#X obj 72 12 inlet~;
#X obj 12 12 inlet~;
#X obj 12 34 outlet~;
#X connect 1 0 2 0;
#X restore 12 78 pd @hv_obj __and~f;
#X obj 117 56 sig~ 1;
#N canvas 754 439 132 184 @hv_obj 0;
#X obj 12 56 -~;
#X obj 12 78 clip~ -1e-37 0;
#X obj 12 12 inlet~;
#X obj 62 12 inlet~;
#X obj 12 144 outlet~;
#X obj 12 122 *~ 1e+37;
#X obj 12 34 min~;
#X obj 12 100 +~ 1e-37;
#X connect 0 0 1 0;
#X connect 1 0 7 0;
#X connect 2 0 6 0;
#X connect 3 0 6 1;
#X connect 3 0 0 1;
#X connect 5 0 4 0;
#X connect 6 0 0 0;
#X connect 7 0 5 0;
#X restore 12 34 pd @hv_obj __gte~f;
#X connect 0 0 5 1;
#X connect 1 0 5 0;
#X connect 3 0 2 0;
#X connect 4 0 3 1;
#X connect 5 0 3 0;
#X restore 127 39 pd gte;
#N canvas 816 493 187 138 lte 0;
#X obj 117 12 inlet~;
#X obj 12 12 inlet~;
#X obj 12 100 outlet~;
#N canvas 467 216 142 76 @hv_obj 0;
#X obj 72 12 inlet~;
#X obj 12 12 inlet~;
#X obj 12 34 outlet~;
#X connect 1 0 2 0;
#X restore 12 78 pd @hv_obj __and~f;
#X obj 117 56 sig~ 1;
#N canvas 715 101 131 178 @hv_obj 0;
#X obj 12 56 -~;
#X obj 12 78 clip~ -1e-37 0;
#X obj 12 12 inlet~;
#X obj 62 12 inlet~;
#X obj 12 144 outlet~;
#X obj 12 122 *~ 1e+37;
#X obj 12 34 min~;
#X obj 12 100 +~ 1e-37;
#X connect 0 0 1 0;
#X connect 1 0 7 0;
#X connect 2 0 6 0;
#X connect 2 0 0 1;
#X connect 3 0 6 1;
#X connect 5 0 4 0;
#X connect 6 0 0 0;
#X connect 7 0 5 0;
#X restore 12 34 pd @hv_obj __lte~f;
#X connect 0 0 5 1;
#X connect 1 0 5 0;
#X connect 3 0 2 0;
#X connect 4 0 3 1;
#X connect 5 0 3 0;
#X restore 172 39 pd lte;
#X obj 12 83 +~;
#X obj 205 12 sig~ 0;
#X obj 127 66 *~;
#X obj 172 66 *~;
#X obj 112 133 -~;
#X obj 172 133 *~ -1;
#X connect 0 0 9 0;
#X connect 0 0 13 0;
#X connect 1 0 7 0;
#X connect 1 0 8 0;
#X connect 2 0 11 1;
#X connect 2 0 12 1;
#X connect 7 0 11 0;
#X connect 8 0 12 0;
#X connect 9 0 3 0;
#X connect 10 0 7 1;
#X connect 10 0 8 1;
#X connect 11 0 9 1;
#X connect 11 0 13 1;
#X connect 12 0 4 0;
#X connect 12 0 14 0;
#X connect 13 0 5 0;
#X connect 14 0 6 0;
#X restore 34 155 pd location;
#X obj 72 78 *~ 0.5;
#X obj 122 57 *~;
#X obj 122 78 +~;
#X obj 182 64 *~ 4;
#X obj 122 99 abs~;
#X obj 122 141 *~ 0.5;
#X obj 122 120 sqrt~;
#X obj 232 167 inlet;
#X text 182 11 a2;
#X text 122 11 a1;
#X obj 122 31 inlet~;
#X obj 182 31 inlet~;
#X text 232 147 clear;
#X connect 0 0 1 0;
#X connect 0 1 1 1;
#X connect 1 0 2 0;
#X connect 3 0 0 0;
#X connect 4 0 0 1;
#X connect 5 0 0 2;
#X connect 5 1 0 3;
#X connect 5 2 1 2;
#X connect 5 3 1 3;
#X connect 6 0 5 0;
#X connect 7 0 8 0;
#X connect 8 0 5 1;
#X connect 8 0 10 0;
#X connect 9 0 8 1;
#X connect 10 0 12 0;
#X connect 11 0 5 2;
#X connect 12 0 11 0;
#X connect 13 0 0 0;
#X connect 13 0 1 0;
#X connect 16 0 6 0;
#X connect 16 0 7 0;
#X connect 16 0 7 1;
#X connect 17 0 9 0;
#X restore 12 133 pd poles;
#X obj 12 159 outlet~;
#X obj 212 119 *~ -1;
#X obj 262 119 *~ -1;
#X obj 312 75 inlet;
#X obj 62 31 inlet~;
#X obj 112 31 inlet~;
#X obj 162 31 inlet~;
#X obj 212 31 inlet~;
#X obj 262 31 inlet~;
#X text 62 11 b0;
#X text 112 11 b1;
#X text 162 11 b2;
#X text 212 11 a1;
#X text 262 11 a2;
#X text 312 55 clear;
#X connect 0 0 2 0;
#X connect 1 0 3 0;
#X connect 1 1 3 1;
#X connect 2 0 1 0;
#X connect 3 0 4 0;
#X connect 5 0 3 2;
#X connect 6 0 3 3;
#X connect 7 0 1 4;
#X connect 7 0 3 4;
#X connect 8 0 2 1;
#X connect 8 0 1 1;
#X connect 9 0 1 2;
#X connect 10 0 1 3;
#X connect 11 0 5 0;
#X connect 12 0 6 0;
#X restore 46 88 pd @hv_obj biquad;
#X obj 12 20 inlet~;
#X obj 167 31 inlet~;
#X obj 62 31 inlet~;
#X obj 217 53 inlet;
#X msg 217 74 clear;
#X text 62 11 frequency;
#X text 217 33 clear;
#X text 167 11 q;
#X connect 0 0 2 1;
#X connect 0 1 2 2;
#X connect 0 2 2 3;
#X connect 0 3 2 4;
#X connect 0 4 2 5;
#X connect 2 0 1 0;
#X connect 3 0 2 0;
#X connect 4 0 0 1;
#X connect 5 0 0 0;
#X connect 6 0 7 0;
#X connect 7 0 2 6;
#X restore 22 306 pd highpass~;
#X msg 22 137 1 1 \, 0 218 1;
#X obj 183 118 sig~ 4;
#X obj 134 166 *~ 4;
#X obj 134 214 lop~ 1000;
#X obj 49 257 sig~ 200;
#X obj 76 281 sig~ 1.4;
#X obj 22 185 *~ 4;
#X text 22 93 //AMP ENV;
#X text 134 2 //FILTERED NOISE;
#X obj 42 356 r \$0-metro;
#X obj 22 406 throw~ \$0-master;
#X obj 42 381 tabwrite~ \$0-low;
#X obj 22 330 *~ 0.4;
#X connect 0 0 17 0;
#X connect 1 0 3 0;
#X connect 2 0 7 0;
#X connect 3 0 10 0;
#X connect 4 0 2 0;
#X connect 5 0 4 0;
#X connect 6 0 11 0;
#X connect 7 0 13 0;
#X connect 8 0 7 1;
#X connect 9 0 14 0;
#X connect 10 0 23 0;
#X connect 11 0 0 0;
#X connect 12 0 7 2;
#X connect 13 0 9 0;
#X connect 14 0 3 1;
#X connect 15 0 10 1;
#X connect 16 0 10 2;
#X connect 17 0 1 0;
#X connect 20 0 22 0;
#X connect 23 0 22 0;
#X connect 23 0 21 0;
#X restore 314 196 pd low;
#N canvas 693 207 468 824 chords 0;
#X obj 6 247 cnv 15 120 150 empty empty empty 20 12 0 14 -233017 -66577
0;
#X obj 59 204 text define -k \$0-chords;
#A set 50 55 62 70 \; 51 65 74 \; 43 50 62 74 82 \; 39 51 58 65 79
86 \;;
#X obj 49 55 div 16;
#X obj 49 103 % 5;
#X obj 49 127 min 3;
#X obj 49 228 text get \$0-chords;
#X obj 18 281 until;
#X obj 18 363 list store;
#X obj 49 252 t b b l;
#X obj 58 310 + 1;
#X msg 72 281 0;
#X msg 18 334 get \$1 1;
#X obj 18 392 t f b;
#X obj 215 411 v \$0-ms;
#X obj 215 435 * 16;
#X obj 18 454 makenote 127 0;
#X obj 18 478 poly 16 1;
#X obj 18 502 pack f f f;
#X obj 240 170 text define -k \$0-dur;
#A set 16 \; 16 \; 16 \; 32 \;;
#X obj 49 175 t f f;
#X obj 240 194 text get \$0-dur;
#X obj 62 584 samphold~;
#X obj 207 565 phasor~ 421;
#X obj 207 517 mtof;
#X obj 207 541 * 8;
#X obj 62 608 /~ 8;
#X obj 18 627 +~;
#X obj 49 151 change -1;
#X obj 49 79 change -1;
#X obj 18 310 i;
#X obj 18 531 clone -s 1 voice 16 \$0;
#X obj 38 676 tabwrite~ \$0-chords;
#X obj 38 651 r \$0-metro;
#X obj 18 701 throw~ \$0-master;
#X obj 139 12 r \$0-s-play;
#X obj 139 36 sel 1;
#X msg 139 60 set -1;
#X obj 49 31 r \$0-clock;
#X obj 18 430 spigot;
#X obj 67 406 r \$0-s-tgl-crd;
#X obj 18 555 /~ 6;
#X connect 2 0 28 0;
#X connect 3 0 4 0;
#X connect 4 0 27 0;
#X connect 5 0 8 0;
#X connect 6 0 29 0;
#X connect 7 0 12 0;
#X connect 7 1 6 1;
#X connect 8 0 6 0;
#X connect 8 1 10 0;
#X connect 8 2 7 1;
#X connect 9 0 29 1;
#X connect 10 0 29 1;
#X connect 11 0 7 0;
#X connect 12 0 23 0;
#X connect 12 0 38 0;
#X connect 12 1 13 0;
#X connect 13 0 14 0;
#X connect 14 0 15 2;
#X connect 15 0 16 0;
#X connect 15 1 16 1;
#X connect 16 0 17 0;
#X connect 16 1 17 1;
#X connect 16 2 17 2;
#X connect 17 0 30 0;
#X connect 19 0 5 0;
#X connect 19 1 20 0;
#X connect 20 0 14 1;
#X connect 21 0 25 0;
#X connect 22 0 21 1;
#X connect 23 0 24 0;
#X connect 24 0 22 0;
#X connect 25 0 26 1;
#X connect 26 0 31 0;
#X connect 26 0 33 0;
#X connect 27 0 19 0;
#X connect 28 0 3 0;
#X connect 29 0 9 0;
#X connect 29 0 11 0;
#X connect 30 0 40 0;
#X connect 32 0 31 0;
#X connect 34 0 35 0;
#X connect 35 0 36 0;
#X connect 36 0 28 0;
#X connect 36 0 27 0;
#X connect 37 0 2 0;
#X connect 38 0 15 0;
#X connect 39 0 38 1;
#X connect 40 0 21 0;
#X connect 40 0 26 0;
#X restore 314 51 pd chords;
#X obj 221 165 cnv 15 80 70 empty empty empty 20 12 0 14 -129280 -66577
0;
#X obj 221 94 cnv 15 80 70 empty empty empty 20 12 0 14 -228980 -66577
0;
#X obj 221 23 cnv 15 80 70 empty empty empty 20 12 0 14 -178921 -66577
0;
#X obj 92 93 cnv 15 128 144 empty empty empty 20 12 0 14 -262141 -66577
0;
#X obj 16 209 bng 19 100 50 0 \$0-s-bng-kik \$0-r-bng-kik empty 0 -8
0 12 -1 -258113 -1;
#X obj 16 69 bng 19 250 50 0 \$0-s-bng-noi \$0-r-bng-noi empty 0 -8
0 12 -1 -258113 -1;
#X obj 15 139 bng 19 250 50 0 \$0-s-bng-snr \$0-r-bng-snr empty 0 -8
0 12 -1 -258113 -1;
#X obj 275 69 bng 19 250 50 0 \$0-s-bng-pip \$0-r-bng-pip empty 0 -8
0 12 -1 -258113 -1;
#X obj 275 139 bng 19 100 50 0 \$0-s-bng-kik-2 \$0-r-bng-kik-2 empty
0 -8 0 12 -1 -258113 -1;
#X obj 275 209 bng 19 250 50 0 \$0-s-bng-low \$0-r-bng-low empty 0
-8 0 12 -1 -258113 -1;
#N canvas 0 22 450 278 (subpatch) 0;
#X array \$0-chords 882 float 0;
#X coords 0 1 882 -1 120 120 1 0 0;
#X restore 95 114 graph;
#N canvas 0 22 450 278 (subpatch) 0;
#X array \$0-kick 882 float 0;
#X coords 0 1 882 -1 50 50 1 0 0;
#X restore 35 178 graph;
#N canvas 0 22 450 278 (subpatch) 0;
#X array \$0-snare 882 float 0;
#X coords 0 1 882 -1 50 50 1 0 0;
#X restore 35 108 graph;
#N canvas 0 22 450 278 (subpatch) 0;
#X array \$0-noise 882 float 0;
#X coords 0 1 882 -1 50 50 1 0 0;
#X restore 35 38 graph;
#N canvas 0 22 450 278 (subpatch) 0;
#X array \$0-low 882 float 0;
#X coords 0 1 882 -1 50 50 1 0 0;
#X restore 225 178 graph;
#N canvas 0 22 450 278 (subpatch) 0;
#X array \$0-kick-2 882 float 0;
#X coords 0 1 882 -1 50 50 1 0 0;
#X restore 225 108 graph;
#N canvas 0 22 450 278 (subpatch) 0;
#X array \$0-pip 882 float 0;
#X coords 0 1 882 -1 50 50 1 0 0;
#X restore 225 38 graph;
#X obj 92 23 cnv 15 128 70 empty empty empty 20 12 0 14 -99865 -66577
0;
#X obj 95 49 tgl 19 0 \$0-s-play \$0-r-play PLAY/STOP 0 -8 0 12 -262144
-1 -262144 0 1;
#N canvas 0 22 181 180 output 0;
#X obj 10 13 catch~ \$0-master;
#X obj 10 37 *~ 0.9;
#X obj 10 61 expr~ tanh($v1);
#X obj 10 85 hip~ 3;
#X obj 10 109 *~ 0.9;
#X obj 10 133 dac~ 1 2;
#X connect 0 0 1 0;
#X connect 1 0 2 0;
#X connect 2 0 3 0;
#X connect 3 0 4 0;
#X connect 4 0 5 0;
#X connect 4 0 5 1;
#X restore 314 225 pd output;
#N canvas 0 22 260 251 clock 0;
#X obj 81 49 loadbang;
#X msg 81 97 15000 \$1;
#X obj 81 121 /;
#X obj 22 140 metro;
#X obj 22 189 i;
#X obj 52 189 + 1;
#X obj 81 145 v \$0-ms;
#X obj 22 115 t f b;
#X msg 40 164 0;
#X obj 164 136 loadbang;
#X msg 164 160 1;
#X obj 164 208 s \$0-metro;
#X obj 22 213 s \$0-clock;
#X obj 22 23 r \$0-s-play;
#X obj 164 184 metro 50;
#X msg 81 73 135;
#X connect 0 0 15 0;
#X connect 1 0 2 0;
#X connect 2 0 3 1;
#X connect 2 0 6 0;
#X connect 3 0 4 0;
#X connect 4 0 5 0;
#X connect 4 0 12 0;
#X connect 5 0 4 1;
#X connect 7 0 3 0;
#X connect 7 1 8 0;
#X connect 8 0 4 1;
#X connect 9 0 10 0;
#X connect 10 0 14 0;
#X connect 13 0 7 0;
#X connect 14 0 11 0;
#X connect 15 0 1 0;
#X restore 314 22 pd clock;
#X text 410 33 "Idiotique" by Radiohead;
#X text 414 62 Patch by Mike Moreno 2020;
#X obj 275 108 tgl 19 1 \$0-s-tgl-kik-2 \$0-r-tgl-kik-2 empty 17 7
0 10 -1 -258113 -258113 1 1;
#X obj 275 38 tgl 19 1 \$0-s-tgl-pip \$0-r-tgl-pip empty 17 7 0 10
-1 -258113 -258113 1 1;
#X obj 275 178 tgl 19 1 \$0-s-tgl-low \$0-r-tgl-low empty 17 7 0 10
-1 -258113 -258113 1 1;
#X obj 15 178 tgl 19 1 \$0-s-tgl-kik \$0-r-tgl-kik empty 17 7 0 10
-1 -258113 -258113 1 1;
#X obj 15 108 tgl 19 1 \$0-s-tgl-snr \$0-r-tgl-snr empty 17 7 0 10
-1 -258113 -258113 1 1;
#X obj 16 38 tgl 19 1 \$0-s-tgl-noi \$0-r-tgl-noi empty 17 7 0 10 -1
-258113 -258113 1 1;
#X obj 196 95 tgl 19 1 \$0-s-tgl-crd \$0-r-tgl-crd empty 17 7 0 10
-1 -258113 -258113 1 1;
#X obj 457 154 r onOff;
#X connect 40 0 28 0;
