#N canvas 519 125 722 653 10;
#X obj 103 104 cnv 15 494 270 empty empty empty 20 12 0 14 -233017
-66577 0;
#X obj 349 326 hsl 64 30 0 100 0 0 empty empty Delay -2 -8 0 10 -261682
-1 -1 2400 1;
#X floatatom 382 309 5 0 0 0 - - -;
#N canvas 1286 373 319 229 pwm~ 0;
#X obj 24 87 phasor~;
#X obj 24 109 expr~ $v1 > $v2;
#X obj 24 174 outlet~;
#X obj 111 87 / 100;
#X obj 24 18 inlet;
#X obj 111 20 inlet;
#X msg 24 40 \$1 50;
#X obj 24 62 line;
#X msg 111 42 \$1 50;
#X obj 111 64 line;
#X obj 23 131 -~ 0.5;
#X obj 24 152 /~ 2;
#X connect 0 0 1 0;
#X connect 1 0 10 0;
#X connect 3 0 1 1;
#X connect 4 0 6 0;
#X connect 5 0 8 0;
#X connect 6 0 7 0;
#X connect 7 0 0 0;
#X connect 8 0 9 0;
#X connect 9 0 3 0;
#X connect 10 0 11 0;
#X connect 11 0 2 0;
#X restore 45 439 pd pwm~;
#X obj 128 182 hsl 128 15 20 4000 1 0 empty empty Frequency -2 -8 0
10 -204800 -1 -1 8009 1;
#X obj 271 182 hsl 64 15 1 99 0 0 empty empty PWM -2 -8 0 10 -204800
-1 -1 3150 1;
#X floatatom 225 166 5 0 0 0 - - -;
#X floatatom 305 166 5 0 0 0 - - -;
#X obj 14 6 loadbang;
#X msg 68 84 440;
#X msg 268 68 50;
#X obj 128 255 hsl 128 15 20 20000 1 0 empty empty Frequency -2 -8
0 10 -262130 -1 -1 6957 1;
#X obj 272 254 hsl 64 15 0.1 10 1 0 empty empty Q -2 -8 0 10 -262130
-1 -1 4400 1;
#X floatatom 306 238 5 0 0 0 - - -;
#X floatatom 225 239 5 0 0 0 - - -;
#X obj 201 326 hsl 64 30 0.01 100 1 0 empty empty Rate -2 -8 0 10 -261682
-1 -1 3000 1;
#X floatatom 234 310 5 0 0 0 - - -;
#X obj 276 327 hsl 64 30 0 100 0 0 empty empty Depth -2 -8 0 10 -261682
-1 -1 2300 1;
#X floatatom 309 309 5 0 0 0 - - -;
#X obj 127 327 hsl 64 30 -1 1 0 0 empty empty F-B -2 -8 0 10 -261682
-1 -1 4950 1;
#X floatatom 160 311 5 0 0 0 - - -;
#X msg 14 310 0;
#N canvas 1285 357 167 224 4poleLP~ 0;
#X obj 7 21 inlet~;
#X obj 7 194 outlet~;
#X obj 55 21 inlet;
#X obj 105 20 inlet;
#X obj 55 87 sig~;
#X msg 55 43 \$1 50;
#X obj 55 65 line;
#X obj 105 64 line;
#X msg 105 42 \$1 100;
#X obj 7 169 hip~ 1;
#X obj 6 117 vcf~, f 17;
#X obj 7 144 vcf~, f 17;
#X connect 0 0 10 0;
#X connect 2 0 5 0;
#X connect 3 0 8 0;
#X connect 4 0 11 1;
#X connect 4 0 10 1;
#X connect 5 0 6 0;
#X connect 6 0 4 0;
#X connect 7 0 10 2;
#X connect 7 0 11 2;
#X connect 8 0 7 0;
#X connect 9 0 1 0;
#X connect 10 0 11 0;
#X connect 11 0 9 0;
#X restore 44 488 pd 4poleLP~;
#N canvas 17 321 545 449 feedbDelay~ 0;
#X obj 27 22 inlet~;
#X obj 27 376 outlet~;
#X obj 296 224 vd~ modDelay;
#X obj 194 96 osc~ 0.5;
#X obj 194 118 +~ 1;
#X obj 194 140 /~ 2;
#X obj 111 280 delwrite~ modDelay 1000;
#X obj 195 163 *~, f 10;
#X obj 297 195 +~;
#X obj 252 140 line;
#X msg 193 53 \$1 50;
#X obj 193 75 line;
#X msg 312 118 \$1 50;
#X obj 312 140 line;
#X msg 252 118 \$1 200;
#X msg 126 54 \$1 50;
#X obj 126 76 line;
#X obj 111 247 *~;
#X obj 28 346 +~, f 45;
#X obj 126 30 inlet;
#X obj 312 30 inlet;
#X obj 252 29 inlet;
#X obj 193 29 inlet;
#X obj 451 48 block~ 1;
#X connect 0 0 6 0;
#X connect 0 0 18 0;
#X connect 2 0 17 0;
#X connect 2 0 18 1;
#X connect 3 0 4 0;
#X connect 4 0 5 0;
#X connect 5 0 7 0;
#X connect 7 0 8 0;
#X connect 8 0 2 0;
#X connect 9 0 7 1;
#X connect 10 0 11 0;
#X connect 11 0 3 0;
#X connect 12 0 13 0;
#X connect 13 0 8 1;
#X connect 14 0 9 0;
#X connect 15 0 16 0;
#X connect 16 0 17 1;
#X connect 17 0 6 0;
#X connect 18 0 1 0;
#X connect 19 0 15 0;
#X connect 20 0 12 0;
#X connect 21 0 14 0;
#X connect 22 0 10 0;
#X restore 43 527 pd feedbDelay~;
#N canvas 0 178 602 524 limiterS~ 0;
#X obj 103 105 tgl 15 0 empty empty Limiter 17 7 0 10 -262144 -1 -1
1 1;
#X obj 39 169 inlet~;
#X obj 39 307 outlet~;
#X obj 153 189 != 1;
#X obj 40 256 *~;
#X obj 138 212 *~;
#N canvas 318 284 905 487 limiter~ 0;
#X obj 27 81 inlet~;
#X floatatom 78 288 5 0 0 0 - - -;
#X msg 219 120 10;
#X floatatom 361 109 5 0 0 0 - - -;
#X obj 78 250 expr (($f1 - $f3) / $f2) - $f1 + $f3;
#X floatatom 219 154 5 0 0 0 - - -;
#X obj 219 95 loadbang;
#X obj 43 151 env~ 1024;
#X floatatom 78 226 5 0 0 0 - - -;
#X obj 78 373 dbtorms;
#X floatatom 78 407 12 0 0 0 - - -;
#X floatatom 78 349 5 0 0 0 - - -;
#X obj 78 322 expr 100 + $f1;
#X obj 27 545 outlet~;
#X obj 27 518 *~;
#X obj 43 202 moses;
#X floatatom 43 177 5 0 0 0 - - -;
#X msg 43 374 1;
#X obj 43 227 bng 15 250 50 0 empty empty empty 0 -6 0 8 -262144 -1
-1;
#X text 27 16 3.9.1.1. Limiter 2;
#X text 25 45 signal to be limited;
#X text 364 86 threshold / reference;
#X text 266 144 limit factor;
#X text 125 287 value by which the signal must be reduced;
#X text 204 357 conversion;
#X text 184 401 correction factor ofthe input signal's rms value;
#X text 329 524 www.pd-tutorial.com;
#X text 339 499 Johannes Kreidler;
#X obj 332 51 loadbang;
#X msg 330 87 90;
#X connect 0 0 7 0;
#X connect 0 0 14 0;
#X connect 1 0 12 0;
#X connect 2 0 5 0;
#X connect 3 0 4 2;
#X connect 3 0 15 1;
#X connect 4 0 1 0;
#X connect 5 0 4 1;
#X connect 6 0 2 0;
#X connect 7 0 16 0;
#X connect 8 0 4 0;
#X connect 9 0 10 0;
#X connect 10 0 14 1;
#X connect 11 0 9 0;
#X connect 12 0 11 0;
#X connect 14 0 13 0;
#X connect 15 0 18 0;
#X connect 15 1 8 0;
#X connect 16 0 15 0;
#X connect 17 0 14 1;
#X connect 18 0 17 0;
#X connect 28 0 29 0;
#X connect 29 0 3 0;
#X restore 39 214 pd limiter~;
#X obj 108 60 loadbang;
#X connect 0 0 3 0;
#X connect 0 0 4 1;
#X connect 1 0 5 0;
#X connect 1 0 6 0;
#X connect 3 0 5 1;
#X connect 4 0 2 0;
#X connect 5 0 2 0;
#X connect 6 0 4 0;
#X connect 7 0 0 0;
#X coords 0 -1 1 1 65 25 2 100 100;
#X restore 476 327 pd limiterS~;
#N canvas 0 136 726 480 graphSignal 0;
#X obj 3 27 r~ toPlot;
#N canvas 0 50 450 250 (subpatch) 0;
#X array signal 1000 float 0;
#X coords 0 1 999 -1 200 140 1 0 0;
#X restore 107 118 graph;
#X obj 44 345 tabwrite~ signal;
#X obj 313 116 tgl 15 0 empty empty ON 2 8 0 10 -262144 -1 -1 0 1;
#X obj 71 316 metro 100;
#X obj 316 136 vu 10 120 empty empty -1 -8 0 10 -66577 -1 0 0;
#X obj 278 56 env~;
#X obj 311 76 - 102;
#X connect 0 0 2 0;
#X connect 0 0 6 0;
#X connect 3 0 4 0;
#X connect 4 0 2 0;
#X connect 6 0 7 0;
#X connect 7 0 5 0;
#X coords 0 -1 1 1 235 165 2 100 100;
#X restore 351 133 pd graphSignal;
#X obj 502 400 s~ toPlot;
#X msg 40 238 880;
#X obj 477 500 outlet~;
#X obj 125 214 cnv 15 100 20 empty empty FILTER 10 10 0 14 -66577 -257985
0;
#X obj 113 104 cnv 15 100 20 empty empty KHAOS! 10 10 0 14 -4032 -66577
0;
#X obj 124 287 cnv 15 100 20 empty empty MOD 10 10 0 14 -66577 -258113
0;
#X obj 126 139 cnv 15 100 20 empty empty OSC 10 10 0 14 -66577 -4032
0;
#X obj 44 558 s~ out;
#X obj 476 306 r~ out;
#X obj 124 358 bng 11 50 30 0 empty empty reset 12 6 0 8 -258113 -1
-1;
#X obj 268 197 bng 11 50 30 0 empty empty reset 12 6 0 8 -258113 -1
-1;
#X text 359 4 KHAOS! Machine;
#X text 362 23 Alessio Degani \, 2016 <alessio.degani@gmail.com>;
#X obj 308 538 r pwm;
#X obj 308 518 r baseFrequency;
#X obj 307 556 r frequency;
#X obj 307 575 r Q;
#X obj 307 593 r rate;
#X obj 307 611 r depth;
#X obj 307 630 r delay;
#X obj 528 473 dac~;
#X obj 205 513 r reset;
#X connect 1 0 2 0;
#X connect 1 0 23 4;
#X connect 3 0 22 0;
#X connect 4 0 6 0;
#X connect 4 0 3 0;
#X connect 5 0 7 0;
#X connect 5 0 3 1;
#X connect 8 0 9 0;
#X connect 8 0 10 0;
#X connect 8 0 27 0;
#X connect 8 0 21 0;
#X connect 9 0 4 0;
#X connect 10 0 5 0;
#X connect 11 0 14 0;
#X connect 11 0 22 1;
#X connect 12 0 13 0;
#X connect 12 0 22 2;
#X connect 15 0 16 0;
#X connect 15 0 23 2;
#X connect 17 0 18 0;
#X connect 17 0 23 3;
#X connect 19 0 20 0;
#X connect 19 0 23 1;
#X connect 21 0 19 0;
#X connect 22 0 23 0;
#X connect 23 0 33 0;
#X connect 24 0 26 0;
#X connect 24 0 28 0;
#X connect 24 0 46 0;
#X connect 24 0 46 1;
#X connect 27 0 11 0;
#X connect 34 0 24 0;
#X connect 35 0 21 0;
#X connect 36 0 10 0;
#X connect 39 0 5 0;
#X connect 40 0 4 0;
#X connect 41 0 11 0;
#X connect 42 0 12 0;
#X connect 43 0 15 0;
#X connect 44 0 17 0;
#X connect 45 0 1 0;
#X connect 47 0 35 0;
#X coords 0 -1 1 1 500 279 2 100 100;
