#N canvas 211 247 307 301 12;
#X obj 120 128 *~;
#X obj 120 158 dac~;
#X obj 53 98 s onOff;
#X obj 183 109 r onOff;
#X obj 53 68 tgl 15 0 empty empty empty 17 7 0 10 -262144 -1 -1 0 1
;
#X obj 120 97 *~ 0.15;
#X obj 120 62 osc~ 440;
#X connect 0 0 1 0;
#X connect 0 0 1 1;
#X connect 3 0 0 1;
#X connect 4 0 2 0;
#X connect 5 0 0 0;
#X connect 6 0 5 0;
