#N canvas 0 23 1280 755 10;
#X obj 531 434 dac~;
#X obj 857 178 osc~;
#X obj 1016 126 line~;
#X obj 857 198 *~;
#X obj 763 69 bng 23 250 50 0 empty empty kick 0 -6 1 8 -243597 -261881
-33289;
#X floatatom 857 52 5 0 0 0 - - -;
#X obj 1016 87 del;
#X obj 896 95 del;
#X obj 856 138 line;
#X obj 857 158 sqrt;
#X obj 1067 86 del;
#X obj 1097 66 +;
#X floatatom 1005 52 5 0 0 0 - - -;
#X obj 916 72 + 30;
#X obj 837 95 del;
#X obj 348 279 line~;
#X obj 22 311 *~;
#X obj 307 155 bng 23 250 50 0 empty empty Synth 0 -6 1 8 -83500 -241406
-33289;
#X floatatom 368 194 5 0 0 0 - - -;
#X obj 349 234 del;
#X obj 242 234 del;
#X obj 178 279 line;
#X obj 415 235 del;
#X msg 414 257 0 200;
#X obj 434 211 +;
#X floatatom 455 191 5 0 0 0 - - -;
#X obj 262 212 + 30;
#X obj 178 234 del;
#X obj 198 211 - 10;
#X msg 242 257 0 250;
#X msg 178 257 5000 40;
#X msg 349 257 0.1 100;
#X msg 105 257 20000 19;
#X msg 292 257 0.5 19;
#X obj 179 326 phasor~;
#X obj 22 289 bp~;
#X msg 984 106 1 19;
#X floatatom 30 260 5 0 0 0 - - -;
#X floatatom 63 309 5 0 0 0 - - -;
#X obj 476 40 bng 40 250 50 0 empty empty start 0 -6 1 8 -42246 -225271
-33289;
#X obj 436 108 metro;
#X floatatom 606 55 5 0 0 0 - - -;
#X obj 306 117 metro;
#X obj 371 96 / 2;
#X obj 959 360 line~;
#X obj 788 442 *~;
#X obj 772 297 bng 23 250 50 0 empty empty snare 0 -6 1 8 -165485 -245309
-33289;
#X floatatom 856 270 5 0 0 0 - - -;
#X obj 956 317 del;
#X obj 895 318 del;
#X obj 838 359 line;
#X obj 1013 317 del;
#X obj 1026 297 +;
#X floatatom 995 279 5 0 0 0 - - -;
#X obj 915 295 + 30;
#X obj 838 318 del;
#X msg 1013 337 0 300;
#X obj 797 377 noise~;
#X obj 832 405 bp~;
#X floatatom 872 383 5 0 0 0 - - -;
#X obj 759 259 * 2;
#X obj 735 280 metro;
#X obj 856 72 - 5;
#X obj 179 302 /~;
#X obj 856 294 - 3;
#X msg 956 338 0.05 100;
#X obj 166 160 osc~;
#X obj 166 135 /~;
#X msg 876 337 100 150;
#X obj 201 687 *~;
#X obj 160 613 *~;
#X obj -4 126 noise~;
#X obj 223 687 osc~;
#X obj 278 668 -~;
#X obj 306 629 * 4;
#X obj 277 629 * 16;
#X obj 264 648 /;
#X obj 293 648 /;
#X obj 183 613 * 0.01;
#X floatatom 225 632 5 0 0 0 - - -;
#X obj 223 706 *~ 0.7;
#X obj 270 -192 metro;
#X obj 96 160 phasor~;
#X obj 631 287 / 20;
#X obj 190 551 *~;
#X obj 212 551 * 0.01;
#X floatatom 252 551 5 0 0 0 - - -;
#X obj 631 311 / 13;
#X obj 586 400 vsl 15 128 0 127 0 0 empty empty Master_Volume -50 -10
1 20 -2 -262144 -166441 6500 1;
#X obj 586 537 / 127;
#X obj 553 409 *~;
#X obj 521 408 *~;
#X obj 520 41 bng 40 250 50 0 empty empty stop 0 -6 1 8 -143491 -261689
-33289;
#X obj 443 -19 - 0;
#X obj 632 265 / 4;
#X text 1058 51 < fakerel;
#X obj 732 71 vsl 15 128 0 127 0 0 empty empty empty 0 -8 0 8 -262144
-1 -1 12700 1;
#X obj 732 205 / 127;
#X obj 127 648 delwrite~ delaya3 1000;
#X obj 128 593 delread~ delaya4 500;
#X obj 128 513 delwrite~ delaya2 1000;
#X obj 128 532 delread~ delaya2 500;
#X obj 129 573 delwrite~ delaya4 1000;
#X obj 126 668 delread~ delaya3 500;
#X text 1030 261 < fakerel;
#X obj 747 305 vsl 15 128 0 127 0 0 empty empty empty 0 -8 0 8 -262144
-1 -1 1700 1;
#X obj 747 441 / 127;
#X obj 750 466 *~;
#X obj 857 217 *~;
#X text 645 50 < tempo;
#X text 770 401 < vol;
#X text 763 152 < vol;
#X obj 22 334 *~;
#X obj 486 216 vsl 15 128 0 127 0 0 empty empty empty 0 -8 0 8 -262144
-1 -1 4700 1;
#X obj 54 333 / 127;
#X text 907 268 < AtoD time;
#X text 909 50 < AtoD time;
#X obj 145 493 / 127;
#X obj 70 565 vsl 15 128 0 127 0 0 empty empty delay_lev 0 -8 1 8 -262144
-1 -33289 0 1;
#X obj 122 493 *~;
#X obj 167 112 + 140;
#X obj -4 184 *~;
#X obj 18 208 / 127;
#X obj -29 77 vsl 15 128 0 127 0 0 empty empty empty 0 -8 0 8 -262144
-1 -1 2500 1;
#X text -11 68 noise lev;
#X obj 94 214 *~;
#X obj 123 214 / 127;
#X obj 71 76 vsl 15 128 0 127 0 0 empty empty empty 0 -8 0 8 -262144
-1 -1 8500 1;
#X obj 96 135 *~ 2;
#X obj 205 185 *~;
#X obj 234 185 / 127;
#X obj 270 50 vsl 15 128 0 127 0 0 empty empty empty 0 -8 0 8 -262144
-1 -1 12700 1;
#X text 70 53 1 0ct lev;
#X text 290 42 sub bass lev;
#X msg 230 118 2;
#X obj 147 401 *~;
#X obj 176 401 / 127;
#X obj 287 316 vsl 15 128 0 127 0 0 empty empty empty 0 -8 0 8 -262144
-1 -1 1500 1;
#X obj 229 96 del;
#X obj 165 185 *~ 2;
#X text 509 209 < synth vol;
#X text 309 312 < pitch dec lev;
#X msg 252 532 66;
#X msg 225 613 51;
#X msg 29 236 1000;
#X msg 859 26 18;
#X msg 1003 25 119;
#X msg 455 168 100;
#X obj 550 297 bng 40 250 50 0 empty empty Reset 0 -6 1 20 -128992
-233017 -66577;
#X msg 64 285 0;
#X msg 595 359 65;
#X obj 460 -339 loadbang;
#X msg 235 41 127;
#X msg 311 345 15;
#X msg 575 52 450;
#X msg 385 169 20;
#X floatatom 168 92 5 0 0 0 - - -;
#X obj 10 -44 bng 15 250 50 0 empty empty empty 0 -6 0 8 -262144 -1
-1;
#X obj 27 -44 bng 15 250 50 0 empty empty empty 0 -6 0 8 -262144 -1
-1;
#X obj 44 -44 bng 15 250 50 0 empty empty empty 0 -6 0 8 -262144 -1
-1;
#X obj 61 -44 bng 15 250 50 0 empty empty empty 0 -6 0 8 -262144 -1
-1;
#X obj 78 -44 bng 15 250 50 0 empty empty empty 0 -6 0 8 -262144 -1
-1;
#X obj 96 -44 bng 15 250 50 0 empty empty empty 0 -6 0 8 -262144 -1
-1;
#X obj 113 -44 bng 15 250 50 0 empty empty empty 0 -6 0 8 -262144 -1
-1;
#X msg -59 -21 -14;
#X msg 6 -21 85;
#X msg 38 -22 48;
#X msg 71 -22 30;
#X msg 137 -23 7;
#X msg 104 -23 13;
#X obj 951 389 osc~ 330;
#X obj 1004 389 osc~ 180;
#X obj 993 410 +~;
#X obj 882 583 / 127;
#X obj 882 448 vsl 15 128 0 127 0 0 empty empty empty 0 -8 0 8 -262144
-1 -1 8900 1;
#X obj 839 439 *~;
#X msg 794 338 2200 0;
#X msg 855 246 41;
#X msg 995 254 66;
#X msg 928 337 1 1;
#X msg 838 338 300 6;
#X msg 872 360 2;
#X msg 44 547 0;
#X msg 705 70 127;
#X msg 95 87 85;
#X obj 91 -187 + 1;
#N canvas 0 0 450 300 (subpatch) 0;
#X array myarray1 32 float 1;
#A 0 0 0 0 0 0 0 0 1 1 1 1 2 2 2 2 0 0 0 0 0 0 0 0 3 3 3 3 4 4 3 4
0;
#X coords 0 6 31 0 155 60 1;
#X restore 723 -67 graph;
#X obj 223 -127 metro;
#X obj -65 -120 == 0;
#X obj -28 -120 == 1;
#X obj 10 -120 == 2;
#X floatatom -57 -52 5 0 0 0 - - -;
#X obj 10 -98 select 1;
#X obj -28 -75 select 1;
#X obj -64 -97 select 1;
#X obj 47 -120 == 3;
#X obj 84 -120 == 4;
#X obj 47 -75 select 1;
#X obj 84 -98 select 1;
#X msg -8 91 25;
#X obj 121 -120 == 5;
#X obj 158 -120 == 6;
#X obj 121 -75 select 1;
#X obj 157 -97 select 1;
#X msg 23 -184 0;
#X obj 91 -165 mod 32;
#X obj 258 -152 / 2;
#X msg 722 -117 \; myarray1 0 0 0 0 0 0 0 0 1 1 1 1 2 2 2 2 0 0 0 0
0 0 0 0 3 3 3 3 4 4 3 4;
#X msg 780 115 65000 23;
#X msg 836 115 100 39;
#X msg 896 115 0 300;
#X obj 57 -176 f;
#N canvas 0 0 450 300 (subpatch) 0;
#X array myarray2 32 float 1;
#A 0 0 0 0 1 1 1 1 2 2 2 2 3 3 3 3 4 4 4 4 5 5 5 5 6 5 4 6 5 4 3 4
0;
#X coords 0 6 31 0 155 60 1;
#X restore 939 -71 graph;
#X msg -58 -228 set myarray2;
#X msg -58 -206 set myarray1;
#X obj -58 -147 tabread myarray1;
#X msg -26 -21 11;
#X obj 150 -259 random 100;
#X floatatom 101 -257 5 0 0 0 - - -;
#X obj 150 -213 select 1;
#X obj 186 -190 select 1;
#X obj 265 -258 * 16;
#X obj 150 -237 < 50;
#X text 304 -256 < the random number generator;
#X text 180 -74 < turns arrays to trigger notes;
#X msg 722 -164 \; myarray2 0 0 0 0 1 1 1 1 2 2 2 2 3 3 3 3 4 4 4 4
5 5 5 5 6 5 4 6 5 4 3 4;
#X obj 259 -50 random 100;
#X obj 258 4 select 1;
#X obj 294 27 select 1;
#X floatatom 211 -38 5 0 0 0 - - -;
#N canvas 0 0 450 300 (subpatch) 0;
#X array myarray3 32 float 1;
#A 0 0 0 2 2 2 3 2 1 3 2 1 3 2 4 4 4 4 3 2 1 3 2 1 3 2 0 0 0 0 0 0
0;
#X coords 0 7 31 0 155 60 1;
#X restore 938 -227 graph;
#X msg 582 -228 \; myarray3 2 2 2 2 3 2 1 3 2 1 3 2 4 4 4 4 3 2 1 3
2 1 3 2 0 0 0 0 0 0 0 0;
#X msg -58 -248 set myarray3;
#X obj 211 -212 > 80;
#X obj 199 -164 select 1;
#X obj 187 -237 > 50 < 80;
#X obj -127 43 random 100;
#X obj -128 97 select 1;
#X obj -92 120 select 1;
#X floatatom -100 26 5 0 0 0 - - -;
#X obj 358 -17 > 90;
#X obj 351 6 select 1;
#X msg 515 188 47;
#X obj 258 -20 < 60;
#X obj 295 -20 > 60 < 90;
#X msg 198 53 85;
#X msg -50 34 46;
#X msg 191 28 127;
#X msg 883 424 89;
#X obj 384 -199 random 100;
#X obj 383 -159 select 1;
#X obj 435 -159 select 1;
#X msg 398 -138 0;
#X msg 435 -139 127;
#X floatatom 337 -178 5 0 0 0 - - -;
#X msg 344 -137 40;
#X obj 384 -179 > 90;
#X obj 412 -179 < 90;
#X msg 370 -138 108;
#X obj 598 -178 random 100;
#X obj 600 -132 select 1;
#X obj 652 -132 select 1;
#X floatatom 554 -151 5 0 0 0 - - -;
#X msg 698 338 17;
#X obj 516 464 vsl 15 128 0 127 0 0 empty empty empty 0 -8 0 8 -262144
-1 -1 0 1;
#N canvas 0 0 450 300 (subpatch) 0;
#X array wavaud1 259 float 1;
#A 0 183.333 183.333 183.333 183.333 183.333 183.333 183.333 183.333
183.333 183.333 183.333 183.333 190 190 170 170 170 170 170 190 190
170 170 170 170 170 170 170 170 170 170 170 170 170 170 170 170 170
170 170 170 170 170 170 170 170 170 170 970 970 970 970 170 170 170
170 170 170 170 170 170 170 170 170 170 170 170 170 170 170 170 170
170 170 170 170 170 170 170 140 140 140 140 140 140 150 150 150 150
150 150 150 150 150 150 150 150 150 150 150 150 150 150 150 150 150
150 150 150 150 140 140 140 140 140 140 140 140 140 140 140 140 140
140 140 140 140 140 140 140 140 140 426.667 436.667 446.667 446.667
446.667 446.667 446.667 446.667 446.667 446.667 446.667 446.667 446.667
446.667 446.667 446.667 446.667 446.667 446.667 446.667 191.111 211.111
211.111 211.111 211.111 211.111 211.111 211.111 211.111 211.111 211.111
211.111 211.111 211.111 211.111 211.111 211.111 211.111 281.111 291.111
331.111 361.111 371.111 371.111 371.111 371.111 371.111 371.111 371.111
371.111 371.111 371.111 371.111 371.111 371.111 371.111 371.111 371.111
371.111 371.111 371.111 371.111 371.111 371.111 371.111 371.111 371.111
361.111 361.111 361.111 361.111 361.111 361.111 361.111 361.111 371.111
371.111 361.111 361.111 566.667 566.667 566.667 566.667 566.667 566.667
566.667 566.667 566.667 176.667 176.667 176.667 176.667 176.667 176.667
176.667 176.667 176.667 176.667 176.667 176.667 176.667 176.667 176.667
176.667 176.667 176.667 176.667 176.667 176.667 176.667 186.667 186.667
186.667 186.667 186.667 186.667 186.667 186.667 186.667 186.667 186.667
186.667 186.667 186.667 186.667 186.667 206.667;
#X coords 0 1000 258 0 259 100 1;
#X restore 815 626 graph;
#X obj 466 669 tabosc4~ wavaud1;
#N canvas 0 0 450 300 (subpatch) 0;
#X array wavaud2 259 float 1;
#A 0 21.667 51.667 61.667 61.667 61.667 61.667 61.667 61.667 61.667
71.667 71.667 201.667 221.667 241.667 241.667 241.667 526.667 541.667
561.667 581.667 591.667 601.667 611.667 620 628.333 636.667 645 653.333
661.667 668.333 675 681.667 688.333 695 701.667 705.952 710.238 714.524
718.81 723.095 727.381 731.667 701.667 696.667 671.667 661.667 731.667
731.667 731.667 731.667 731.667 731.667 731.667 711.667 701.667 701.667
701.667 641.667 631.667 611.667 611.667 601.667 601.667 601.667 601.667
601.667 601.667 601.667 631.667 631.667 631.667 651.667 671.667 671.667
701.667 701.667 701.667 701.667 701.667 701.667 706.667 704.167 701.667
699.167 696.667 694.167 691.667 689.167 686.667 684.167 681.667 679.167
676.667 676.667 676.667 676.667 676.667 696.667 706.667 736.667 736.667
776.667 796.667 796.667 806.667 826.667 826.667 826.667 826.667 826.667
826.667 826.667 756.667 776.667 716.667 706.667 626.667 598.333 595
591.667 591.667 601.667 601.667 601.667 621.667 621.667 631.667 631.667
661.667 661.667 671.667 671.667 671.667 671.667 671.667 661.667 651.667
269.267 269.667 270.066 270.466 270.866 271.266 271.666 272.066 272.466
272.866 283.266 293.266 303.266 573.266 693.266 693.266 693.266 693.266
693.266 683.266 683.266 683.266 683.266 683.266 683.266 683.266 683.266
663.266 663.266 643.266 623.266 613.266 613.266 593.266 583.266 583.266
573.266 513.266 513.266 323.266 343.266 353.266 353.266 353.266 373.266
373.266 373.266 353.266 353.266 353.266 343.266 343.266 333.266 313.266
293.266 293.266 283.266 253.266 233.266 223.266 223.266 223.266 223.266
223.266 223.266 223.266 223.266 223.266 223.266 223.266 223.266 223.266
223.266 223.266 223.266 223.266 223.266 223.266 223.266 223.266 223.266
223.266 223.266 223.266 223.266 233.266 233.266 233.266 233.266 253.266
258.266 263.266 283.266 288.266 323.266 323.266 353.266 358.266 363.266
393.266 398.266 403.266 423.266 428.266 453.266 463.266 483.266 483.266
483.266 493.266 493.266 503.266 503.266 523.266 523.266 523.266 523.266
523.266 523.266 533.266 533.266 553.266;
#X coords 0 1000 258 0 259 100 1;
#X restore 815 729 graph;
#X obj 466 689 tabosc4~ wavaud2;
#X obj 512 609 dbtorms;
#X obj 451 627 *~ 0;
#X obj 454 730 delwrite~ delaya5 1000;
#X obj 456 767 delread~ delaya5 500;
#X floatatom 455 750 5 0 0 0 - - -;
#X msg 732 48 0;
#X obj 385 769 line;
#X obj 333 680 random 100;
#X obj 334 730 select 1;
#X obj 386 730 select 1;
#X floatatom 288 711 5 0 0 0 - - -;
#X msg 328 750 215 5000;
#X msg 385 750 10 5000;
#X obj 457 827 delread~ delaya6 500;
#X obj 419 627 *~ 0;
#X obj 454 710 delwrite~ delaya6 1000;
#X floatatom 457 808 5 0 0 0 - - -;
#X obj 457 787 + 40;
#X obj 365 620 metro;
#X obj 391 599 * 32;
#X obj 564 629 line;
#X floatatom 564 649 5 0 0 0 - - -;
#X msg 481 477 0;
#X msg 564 609 0 20000;
#X obj -128 73 < 60;
#X obj -91 73 > 60;
#X obj -133 170 random 100;
#X obj -134 224 select 1;
#X obj -98 247 select 1;
#X floatatom -107 152 5 0 0 0 - - -;
#X msg -94 277 46;
#X obj -134 200 < 60;
#X obj -97 200 > 60;
#X obj -118 343 random 100;
#X obj -118 383 select 1;
#X obj -81 402 select 1;
#X floatatom -92 325 5 0 0 0 - - -;
#X obj -118 363 < 80;
#X obj -81 363 > 80;
#X msg -108 422 127;
#X text 877 765 0;
#X text 953 739 (ro sham bo) erp!;
#X msg -108 443 40;
#X obj 488 -263 select 1;
#X msg -81 421 65;
#X obj 502 -304 > 85;
#X obj 489 -283 &;
#X floatatom 515 -282 5 0 0 0 - - -;
#X obj 466 649 sig~ 0.2;
#X obj 690 573 metro;
#X obj 713 614 + 1;
#X obj 689 613 f;
#X obj 713 636 mod 2;
#X obj 654 642 == 0;
#X obj 653 685 == 1;
#X obj 654 662 select 1;
#X obj 653 705 select 1;
#X obj 716 553 / 4;
#X obj 626 634 bng 15 250 50 0 empty empty empty 0 -6 0 8 -262144 -1
-1;
#X obj 604 705 * 0;
#X msg 615 610 1 10000;
#X msg 607 673 28;
#X msg 688 593 0;
#X msg 1067 106 0 200;
#X obj 641 531 / 6;
#X obj 334 710 < 25;
#X obj 373 699 > 25;
#X msg 1016 106 0.2 130;
#X text -122 459 this rand gen triggers the long decay (synth) \, it
also pulls the volume down a little and boosts the snare noise - then
resets them;
#X text 907 537 < snare noise vol;
#X text 593 748 this bottom area is for that bizzare noise that comes
in and out every so often - feel free to skribble to the right;
#X text 32 706 much delay being used on the main synth to cheat and
get the 16ths what not;
#X text 578 -312 well it's messy as hell - nothing but an example really
- building tunes that don't play the same unless the artist chooses
so - and using randome seeds weighted by a percentage to trigger it
all - anyway this is pretty poor layout/setup as I'm a wilson but you
get the idea - pump it!;
#X obj 601 -152 < 90;
#X obj 629 -152 > 90;
#X text 577 -333 Partially Random Play - :] - "SHEDDING HYDROGEN";
#X text 943 736 0;
#X text 952 749 0;
#X text 956 727 0;
#X obj 249 -312 r onOff;
#X connect 1 0 3 0;
#X connect 2 0 3 1;
#X connect 3 0 108 0;
#X connect 4 0 36 0;
#X connect 4 0 6 0;
#X connect 4 0 7 0;
#X connect 4 0 10 0;
#X connect 4 0 208 0;
#X connect 4 0 14 0;
#X connect 5 0 6 1;
#X connect 5 0 11 0;
#X connect 5 0 13 0;
#X connect 5 0 62 0;
#X connect 6 0 336 0;
#X connect 7 0 210 0;
#X connect 8 0 9 0;
#X connect 9 0 1 0;
#X connect 10 0 332 0;
#X connect 11 0 10 1;
#X connect 12 0 11 1;
#X connect 13 0 7 1;
#X connect 14 0 209 0;
#X connect 15 0 16 1;
#X connect 16 0 112 0;
#X connect 17 0 33 0;
#X connect 17 0 19 0;
#X connect 17 0 20 0;
#X connect 17 0 22 0;
#X connect 17 0 27 0;
#X connect 17 0 32 0;
#X connect 18 0 19 1;
#X connect 18 0 24 0;
#X connect 18 0 26 0;
#X connect 18 0 28 0;
#X connect 19 0 31 0;
#X connect 20 0 29 0;
#X connect 21 0 63 0;
#X connect 22 0 23 0;
#X connect 23 0 15 0;
#X connect 24 0 22 1;
#X connect 25 0 24 1;
#X connect 26 0 20 1;
#X connect 27 0 30 0;
#X connect 28 0 27 1;
#X connect 29 0 21 0;
#X connect 30 0 21 0;
#X connect 31 0 15 0;
#X connect 32 0 21 0;
#X connect 33 0 15 0;
#X connect 34 0 135 0;
#X connect 35 0 16 0;
#X connect 36 0 2 0;
#X connect 37 0 35 1;
#X connect 38 0 35 2;
#X connect 39 0 40 0;
#X connect 39 0 61 0;
#X connect 39 0 42 0;
#X connect 39 0 187 0;
#X connect 39 0 81 0;
#X connect 39 0 287 0;
#X connect 39 0 318 0;
#X connect 40 0 4 0;
#X connect 40 0 138 0;
#X connect 41 0 40 1;
#X connect 41 0 60 0;
#X connect 41 0 75 0;
#X connect 41 0 76 0;
#X connect 41 0 77 0;
#X connect 41 0 74 0;
#X connect 41 0 43 0;
#X connect 41 0 83 0;
#X connect 41 0 87 0;
#X connect 41 0 94 0;
#X connect 41 0 138 1;
#X connect 41 0 206 0;
#X connect 41 0 221 0;
#X connect 41 0 288 0;
#X connect 41 0 326 0;
#X connect 41 0 333 0;
#X connect 42 0 17 0;
#X connect 43 0 42 1;
#X connect 44 0 45 1;
#X connect 45 0 107 0;
#X connect 46 0 179 0;
#X connect 46 0 48 0;
#X connect 46 0 51 0;
#X connect 46 0 176 0;
#X connect 46 0 55 0;
#X connect 46 0 49 0;
#X connect 47 0 48 1;
#X connect 47 0 52 0;
#X connect 47 0 54 0;
#X connect 47 0 64 0;
#X connect 48 0 65 0;
#X connect 49 0 68 0;
#X connect 50 0 58 1;
#X connect 51 0 56 0;
#X connect 52 0 51 1;
#X connect 53 0 52 1;
#X connect 54 0 49 1;
#X connect 55 0 180 0;
#X connect 56 0 44 0;
#X connect 57 0 58 0;
#X connect 57 0 175 0;
#X connect 58 0 45 0;
#X connect 59 0 58 2;
#X connect 60 0 61 1;
#X connect 61 0 46 0;
#X connect 61 0 226 0;
#X connect 62 0 14 1;
#X connect 63 0 34 0;
#X connect 64 0 55 1;
#X connect 65 0 44 0;
#X connect 66 0 139 0;
#X connect 67 0 66 0;
#X connect 68 0 50 0;
#X connect 69 0 90 0;
#X connect 69 0 91 0;
#X connect 70 0 91 0;
#X connect 71 0 121 0;
#X connect 72 0 80 0;
#X connect 73 0 72 0;
#X connect 74 0 77 1;
#X connect 75 0 76 1;
#X connect 76 0 73 0;
#X connect 77 0 73 1;
#X connect 78 0 70 1;
#X connect 78 0 90 0;
#X connect 79 0 78 0;
#X connect 80 0 69 1;
#X connect 81 0 217 0;
#X connect 81 0 249 0;
#X connect 81 0 259 0;
#X connect 82 0 125 0;
#X connect 83 0 99 0;
#X connect 85 0 84 1;
#X connect 86 0 85 0;
#X connect 87 0 101 0;
#X connect 88 0 89 0;
#X connect 89 0 90 1;
#X connect 89 0 91 1;
#X connect 90 0 0 1;
#X connect 91 0 0 0;
#X connect 92 0 93 0;
#X connect 93 0 42 0;
#X connect 93 0 61 0;
#X connect 93 0 40 0;
#X connect 93 0 81 0;
#X connect 93 0 187 0;
#X connect 93 0 287 0;
#X connect 93 0 318 0;
#X connect 94 0 103 0;
#X connect 96 0 97 0;
#X connect 97 0 108 1;
#X connect 99 0 70 0;
#X connect 101 0 84 0;
#X connect 103 0 69 0;
#X connect 105 0 106 0;
#X connect 106 0 107 1;
#X connect 107 0 90 0;
#X connect 107 0 91 0;
#X connect 108 0 91 0;
#X connect 108 0 90 0;
#X connect 112 0 91 0;
#X connect 112 0 90 0;
#X connect 112 0 119 0;
#X connect 113 0 114 0;
#X connect 114 0 112 1;
#X connect 117 0 119 1;
#X connect 118 0 117 0;
#X connect 119 0 100 0;
#X connect 119 0 102 0;
#X connect 119 0 98 0;
#X connect 120 0 67 0;
#X connect 120 0 128 0;
#X connect 121 0 35 0;
#X connect 122 0 121 1;
#X connect 123 0 122 0;
#X connect 125 0 35 0;
#X connect 126 0 125 1;
#X connect 127 0 126 0;
#X connect 128 0 82 0;
#X connect 129 0 35 0;
#X connect 130 0 129 1;
#X connect 131 0 130 0;
#X connect 134 0 63 1;
#X connect 134 0 67 1;
#X connect 135 0 35 0;
#X connect 136 0 135 1;
#X connect 137 0 136 0;
#X connect 138 0 134 0;
#X connect 139 0 129 0;
#X connect 142 0 86 0;
#X connect 143 0 79 0;
#X connect 144 0 37 0;
#X connect 145 0 5 0;
#X connect 146 0 12 0;
#X connect 147 0 25 0;
#X connect 148 0 177 0;
#X connect 148 0 178 0;
#X connect 148 0 145 0;
#X connect 148 0 146 0;
#X connect 148 0 143 0;
#X connect 148 0 142 0;
#X connect 148 0 155 0;
#X connect 148 0 147 0;
#X connect 148 0 144 0;
#X connect 148 0 181 0;
#X connect 148 0 149 0;
#X connect 148 0 150 0;
#X connect 148 0 182 0;
#X connect 148 0 199 0;
#X connect 148 0 184 0;
#X connect 148 0 152 0;
#X connect 148 0 242 0;
#X connect 148 0 183 0;
#X connect 148 0 263 0;
#X connect 148 0 153 0;
#X connect 148 0 92 0;
#X connect 148 0 248 0;
#X connect 148 0 207 0;
#X connect 148 0 204 0;
#X connect 148 0 225 0;
#X connect 148 0 214 0;
#X connect 148 0 231 0;
#X connect 148 0 154 0;
#X connect 148 0 291 0;
#X connect 148 0 331 0;
#X connect 149 0 38 0;
#X connect 150 0 88 0;
#X connect 151 0 148 0;
#X connect 152 0 131 0;
#X connect 153 0 137 0;
#X connect 154 0 41 0;
#X connect 155 0 18 0;
#X connect 156 0 120 0;
#X connect 157 0 164 0;
#X connect 158 0 216 0;
#X connect 159 0 165 0;
#X connect 160 0 166 0;
#X connect 161 0 167 0;
#X connect 162 0 169 0;
#X connect 163 0 168 0;
#X connect 164 0 156 0;
#X connect 165 0 156 0;
#X connect 166 0 156 0;
#X connect 167 0 156 0;
#X connect 168 0 156 0;
#X connect 169 0 156 0;
#X connect 170 0 172 0;
#X connect 171 0 172 1;
#X connect 172 0 58 0;
#X connect 173 0 175 1;
#X connect 174 0 173 0;
#X connect 175 0 45 0;
#X connect 176 0 50 0;
#X connect 177 0 47 0;
#X connect 178 0 53 0;
#X connect 179 0 44 0;
#X connect 180 0 50 0;
#X connect 181 0 59 0;
#X connect 182 0 118 0;
#X connect 183 0 96 0;
#X connect 184 0 127 0;
#X connect 185 0 205 0;
#X connect 187 0 211 0;
#X connect 188 0 194 0;
#X connect 188 0 315 0;
#X connect 189 0 193 0;
#X connect 190 0 192 0;
#X connect 192 0 159 0;
#X connect 193 0 158 0;
#X connect 194 0 157 0;
#X connect 195 0 197 0;
#X connect 196 0 198 0;
#X connect 197 0 160 0;
#X connect 198 0 161 0;
#X connect 199 0 123 0;
#X connect 200 0 202 0;
#X connect 201 0 203 0;
#X connect 202 0 162 0;
#X connect 203 0 163 0;
#X connect 204 0 211 0;
#X connect 205 0 211 1;
#X connect 206 0 187 1;
#X connect 208 0 8 0;
#X connect 209 0 8 0;
#X connect 210 0 8 0;
#X connect 211 0 185 0;
#X connect 211 0 215 0;
#X connect 213 0 215 0;
#X connect 214 0 215 0;
#X connect 215 0 188 0;
#X connect 215 0 189 0;
#X connect 215 0 190 0;
#X connect 215 0 191 0;
#X connect 215 0 195 0;
#X connect 215 0 196 0;
#X connect 215 0 200 0;
#X connect 215 0 201 0;
#X connect 216 0 156 0;
#X connect 217 0 218 0;
#X connect 217 0 222 0;
#X connect 217 0 235 0;
#X connect 217 0 233 0;
#X connect 217 0 314 0;
#X connect 219 0 214 0;
#X connect 219 0 295 0;
#X connect 220 0 213 0;
#X connect 220 0 302 0;
#X connect 221 0 81 1;
#X connect 222 0 219 0;
#X connect 226 0 229 0;
#X connect 226 0 240 0;
#X connect 226 0 243 0;
#X connect 226 0 244 0;
#X connect 227 0 182 0;
#X connect 228 0 245 0;
#X connect 232 0 215 0;
#X connect 233 0 234 0;
#X connect 234 0 232 0;
#X connect 234 0 236 0;
#X connect 235 0 220 0;
#X connect 236 0 239 0;
#X connect 236 0 293 0;
#X connect 236 0 294 0;
#X connect 237 0 246 0;
#X connect 238 0 199 0;
#X connect 240 0 241 0;
#X connect 241 0 247 0;
#X connect 242 0 113 0;
#X connect 243 0 227 0;
#X connect 244 0 228 0;
#X connect 245 0 118 0;
#X connect 246 0 123 0;
#X connect 247 0 118 0;
#X connect 248 0 174 0;
#X connect 249 0 254 0;
#X connect 249 0 256 0;
#X connect 249 0 257 0;
#X connect 250 0 252 0;
#X connect 250 0 258 0;
#X connect 250 0 255 0;
#X connect 251 0 253 0;
#X connect 251 0 184 0;
#X connect 251 0 199 0;
#X connect 252 0 131 0;
#X connect 253 0 131 0;
#X connect 255 0 123 0;
#X connect 256 0 250 0;
#X connect 257 0 251 0;
#X connect 258 0 127 0;
#X connect 259 0 262 0;
#X connect 259 0 342 0;
#X connect 259 0 343 0;
#X connect 260 0 183 0;
#X connect 261 0 274 0;
#X connect 263 0 105 0;
#X connect 264 0 269 0;
#X connect 266 0 268 0;
#X connect 268 0 283 0;
#X connect 268 0 270 0;
#X connect 269 0 270 1;
#X connect 269 0 283 1;
#X connect 270 0 90 0;
#X connect 270 0 284 0;
#X connect 272 0 91 0;
#X connect 273 0 272 0;
#X connect 274 0 96 0;
#X connect 275 0 273 0;
#X connect 275 0 286 0;
#X connect 276 0 279 0;
#X connect 276 0 334 0;
#X connect 276 0 335 0;
#X connect 277 0 280 0;
#X connect 277 0 329 0;
#X connect 278 0 281 0;
#X connect 278 0 292 0;
#X connect 280 0 275 0;
#X connect 281 0 275 0;
#X connect 282 0 90 0;
#X connect 283 0 91 0;
#X connect 283 0 271 0;
#X connect 285 0 282 0;
#X connect 286 0 285 0;
#X connect 287 0 276 0;
#X connect 288 0 287 1;
#X connect 289 0 290 0;
#X connect 290 0 328 1;
#X connect 291 0 264 0;
#X connect 292 0 289 0;
#X connect 293 0 237 0;
#X connect 294 0 238 0;
#X connect 295 0 298 0;
#X connect 295 0 300 0;
#X connect 295 0 301 0;
#X connect 296 0 153 0;
#X connect 297 0 299 0;
#X connect 299 0 137 0;
#X connect 300 0 296 0;
#X connect 301 0 297 0;
#X connect 302 0 305 0;
#X connect 302 0 306 0;
#X connect 302 0 307 0;
#X connect 303 0 155 0;
#X connect 303 0 248 0;
#X connect 303 0 242 0;
#X connect 304 0 313 0;
#X connect 304 0 308 0;
#X connect 306 0 303 0;
#X connect 307 0 304 0;
#X connect 308 0 174 0;
#X connect 308 0 311 0;
#X connect 311 0 113 0;
#X connect 312 0 4 0;
#X connect 313 0 18 0;
#X connect 314 0 315 1;
#X connect 315 0 316 0;
#X connect 315 0 312 0;
#X connect 317 0 266 0;
#X connect 318 0 320 0;
#X connect 319 0 321 0;
#X connect 320 0 319 0;
#X connect 320 0 322 0;
#X connect 320 0 323 0;
#X connect 321 0 320 1;
#X connect 322 0 324 0;
#X connect 323 0 325 0;
#X connect 324 0 291 0;
#X connect 325 0 327 0;
#X connect 326 0 318 1;
#X connect 327 0 330 0;
#X connect 328 0 264 0;
#X connect 329 0 289 0;
#X connect 330 0 328 0;
#X connect 331 0 320 0;
#X connect 332 0 2 0;
#X connect 333 0 280 0;
#X connect 334 0 277 0;
#X connect 335 0 278 0;
#X connect 336 0 2 0;
#X connect 342 0 260 0;
#X connect 343 0 261 0;
#X connect 348 0 39 0;
